<?xml version="1.0" encoding="UTF-8" standalone="no"?>
<!-- Created with Inkscape (http://www.inkscape.org/) -->

<svg
   xmlns:dc="http://purl.org/dc/elements/1.1/"
   xmlns:cc="http://creativecommons.org/ns#"
   xmlns:rdf="http://www.w3.org/1999/02/22-rdf-syntax-ns#"
   xmlns:svg="http://www.w3.org/2000/svg"
   xmlns="http://www.w3.org/2000/svg"
   xmlns:sodipodi="http://sodipodi.sourceforge.net/DTD/sodipodi-0.dtd"
   xmlns:inkscape="http://www.inkscape.org/namespaces/inkscape"
   width="6.25in"
   height="8.5in"
   viewBox="0 0 158.75 215.9"
   version="1.1"
   id="svg8"
   class="param(class) svg"
   inkscape:version="0.92.3 (2405546, 2018-03-11)"
   sodipodi:docname="dizzyOwl.svg">
  <defs
     id="defs2">
    <filter
       inkscape:menu-tooltip="In and out glow with a possible offset and colorizable flood"
       inkscape:menu="Shadows and Glows"
       inkscape:label="Cutout Glow"
       style="color-interpolation-filters:sRGB"
       id="filter4764">
      <feOffset
         dy="3"
         dx="3"
         id="feOffset4754" />
      <feGaussianBlur
         stdDeviation="3"
         result="blur"
         id="feGaussianBlur4756" />
      <feFlood
         flood-color="rgb(0,0,0)"
         flood-opacity="1"
         result="flood"
         id="feFlood4758" />
      <feComposite
         in="flood"
         in2="SourceGraphic"
         operator="in"
         result="composite"
         id="feComposite4760" />
      <feBlend
         in="blur"
         in2="composite"
         mode="normal"
         id="feBlend4762" />
    </filter>
  </defs>
  <sodipodi:namedview
     id="base"
     pagecolor="#ffffff"
     bordercolor="#666666"
     borderopacity="1.0"
     inkscape:pageopacity="0.0"
     inkscape:pageshadow="2"
     inkscape:zoom="1.4"
     inkscape:cx="315.05572"
     inkscape:cy="427.31462"
     inkscape:document-units="mm"
     inkscape:current-layer="svg8"
     showgrid="false"
     inkscape:window-width="1920"
     inkscape:window-height="1172"
     inkscape:window-x="0"
     inkscape:window-y="0"
     inkscape:window-maximized="1"
     units="in"
     width="6.25in" />
  <metadata
     id="metadata5">
    <rdf:RDF>
      <cc:Work
         rdf:about="">
        <dc:format>image/svg+xml</dc:format>
        <dc:type
           rdf:resource="http://purl.org/dc/dcmitype/StillImage" />
        <dc:title></dc:title>
      </cc:Work>
    </rdf:RDF>
  </metadata>
  <g
     inkscape:label="Layer 1"
     inkscape:groupmode="layer"
     id="layer1"
     transform="translate(0,-81.1)">
    <ellipse
       style="opacity:0.08450706;fill:#1a1a1a;fill-opacity:1;stroke:none;stroke-width:4.61369371;stroke-miterlimit:4;stroke-dasharray:none;stroke-opacity:1;filter:url(#filter4764)"
       id="path4633"
       cx="81.233864"
       cy="260.3765"
       rx="67.987076"
       ry="13.323661" />
    <path
       style="fill:#dd9335;fill-opacity:0.94117647;stroke:none;stroke-width:0.26458332px;stroke-linecap:butt;stroke-linejoin:miter;stroke-opacity:1"
       d="m 71.158336,103.54778 c 5.92397,-1.74215 9.70485,-1.62643 18.25624,0.8325 19.286164,6.90925 33.455304,22.21604 45.357134,47.24702 11.15235,22.44637 20.76172,92.22587 0.75596,101.29762 L 29.221869,252.64143 C 5.3257019,246.24195 16.90734,184.19089 25.660737,154.39727 33.544726,129.03478 52.254516,108.00271 71.158336,103.54778 Z"
       id="path3739"
       inkscape:connector-curvature="0"
       sodipodi:nodetypes="ccccccc" />
    <path
       style="fill:#6c5353;fill-opacity:1;stroke:none;stroke-width:0.26458332px;stroke-linecap:butt;stroke-linejoin:miter;stroke-opacity:1"
       d="m 100.96107,109.91133 c 12.51018,3.70347 28.97757,2.71089 40.4245,-1.73725 -3.89958,5.19122 -8.65826,15.20432 -13.22984,18.04069 -3.72937,1.69383 -6.09024,0.56905 -9.15398,-0.0668 -4.67976,-5.87808 -11.40094,-11.78398 -18.04068,-16.23662 z"
       id="path4599"
       inkscape:connector-curvature="0"
       sodipodi:nodetypes="ccccc" />
    <path
       style="fill:#6c5353;fill-opacity:1;stroke:none;stroke-width:0.26458332px;stroke-linecap:butt;stroke-linejoin:miter;stroke-opacity:1"
       d="m 59.585972,108.26466 c -12.51019,3.70347 -28.97757,2.71089 -40.42451,-1.73725 3.89958,5.19122 8.65826,15.20432 13.22984,18.04069 3.72937,1.69383 6.09024,0.56905 9.15398,-0.0668 4.67976,-5.87808 11.40095,-11.78398 18.04069,-16.23662 z"
       id="path4599-5"
       inkscape:connector-curvature="0"
       sodipodi:nodetypes="ccccc" />
    <path
       style="fill:#1a1a1a;stroke:#000000;stroke-width:0.26458332px;stroke-linecap:butt;stroke-linejoin:miter;stroke-opacity:1"
       d="m 54.640767,252.01777 -14.930061,10.20536 13.985121,-6.4256 0.377975,9.63839 2.456845,-9.07143 14.363099,4.34673 -11.150301,-8.88244 z"
       id="path4616"
       inkscape:connector-curvature="0" />
    <path
       style="fill:#1a1a1a;stroke:#000000;stroke-width:0.26458332px;stroke-linecap:butt;stroke-linejoin:miter;stroke-opacity:1"
       d="m 96.157566,249.76184 -14.93007,10.20536 13.98513,-6.4256 0.37797,9.63839 2.45685,-9.07143 14.363084,4.34673 -11.15029,-8.88244 z"
       id="path4616-3"
       inkscape:connector-curvature="0" />
  </g>
  <rect
     style="fill:#e3dbdb;stroke-width:0.24651712"
     id="rect3721"
     width="42.711308"
     height="44.601189"
     x="82.23304"
     y="38.777283"
     ry="20.906807" />
  <rect
     style="fill:#e3dbdb;stroke-width:0.24651714"
     id="rect3721-3"
     width="42.711308"
     height="44.601189"
     x="34.759232"
     y="38.777283"
     ry="20.906807" />
  <path
     style="fill:#483e37;stroke:#000000;stroke-width:0.20316857px;stroke-linecap:butt;stroke-linejoin:miter;stroke-opacity:1"
     d="m 75.592566,73.282453 9.82739,-0.22287 c -4.5258,1.802487 -6.18127,4.958947 -5.66965,9.137667 z"
     id="path4574"
     inkscape:connector-curvature="0"
     sodipodi:nodetypes="cccc" />
  <path
     style="opacity:0.98999999;fill:#f0ce77;fill-opacity:0.94117647;stroke:none;stroke-width:5.46778774;stroke-miterlimit:4;stroke-dasharray:none;stroke-opacity:1"
     id="path4576"
     sodipodi:type="arc"
     sodipodi:cx="81.099083"
     sodipodi:cy="171.63594"
     sodipodi:rx="40.821426"
     sodipodi:ry="69.73661"
     sodipodi:start="3.1403112"
     sodipodi:end="0.0014360062"
     d="m 40.27769,171.7253 a 40.821426,69.73661 0 0 1 20.397402,-60.46993 40.821426,69.73661 0 0 1 40.853448,0.005 40.821426,69.73661 0 0 1 20.39193,60.47532 l -40.821387,-0.10014 z" />
  <style
     type="text/css"
     id="style28">

    .svg{
      animation: fade-in 3s ease;
    }

    @keyframes fade-in{
      0%{
        opacity: 0;
      }
      100%{
        opacity: 1;
      }
    }


    .dizzy-left {
      animation: rotate 7s linear infinite;
      transform-box: fill-box;
      transform-origin: center;
    }

    @keyframes rotate {
      from { transform: rotate(360deg); }
      to { transform: rotate(0deg); }
    }

    .dizzy-right {
      animation: rotate-right 7s linear infinite;
      transform-box: fill-box;
      transform-origin: center;
    }

    @keyframes rotate-right {
      from { transform: rotate(0deg); }
      to { transform: rotate(360deg); }
    }


  </style>

  <path
     class="dizzy-left"
     style="fill:#e3dbdb;fill-opacity:1;fill-rule:evenodd;stroke:#000000;stroke-width:0.86557704;stroke-miterlimit:4;stroke-dasharray:none"
     id="path843"
     d="m 55.032423,61.543162 c 0.451167,0.659546 -0.66571,0.963036 -1.10451,0.801576 -1.193189,-0.439041 -1.206317,-2.033942 -0.59152,-2.936824 1.084938,-1.593328 3.389733,-1.528006 4.769139,-0.381464 2.012668,1.6729 1.861069,4.763753 0.171407,6.601454 -2.244783,2.441459 -6.144454,2.199183 -8.433769,-0.03865 -2.87491,-2.810258 -2.539952,-7.528397 0.248706,-10.266083 3.37258,-3.310934 8.914182,-2.882271 12.098398,0.458763 3.748517,3.933125 3.225566,10.301119 -0.668819,13.930712 C 57.028881,73.899755 49.832627,73.28216 45.758428,68.833771 41.132035,63.78247 41.844509,55.75669 46.84736,51.238429 c 5.609525,-5.06617 14.46573,-4.258657 19.427657,1.298989 5.218241,5.844733 4.725194,14.953476 -0.696153,20.487585"
     transform="matrix(1.1556166,0,0,1.1598766,-9.161392,-9.4553824)" />

  <path
     class="dizzy-right"
     style="fill:#e3dbdb;fill-opacity:1;fill-rule:evenodd;stroke:#000000;stroke-width:0.86557704;stroke-miterlimit:4;stroke-dasharray:none"
     d="m -105.07626,60.415818 c 0.46747,0.749632 -0.7804,1.032571 -1.25753,0.833687 -1.2974,-0.540807 -1.23724,-2.303092 -0.51589,-3.271604 1.27298,-1.709144 3.81571,-1.529096 5.28568,-0.198091 2.14481,1.942046 1.832666,5.348996 -0.1197,7.299757 -2.59381,2.591664 -6.8899,2.141497 -9.31384,-0.437505 -3.04396,-3.238697 -2.45311,-8.434506 0.75531,-11.32791 3.88022,-3.499259 9.98121,-2.766351 13.341982,1.073101 3.956356,4.519872 3.080615,11.529253 -1.390899,15.356063 -5.158353,4.41462 -13.078173,3.395565 -17.370143,-1.708697 -4.87368,-5.796065 -3.71099,-14.627706 2.0265,-19.384216 6.43325,-5.333311 16.177695,-4.026772 21.398292,2.344293 5.490273,6.70017 4.519258,16.738285 -1.728042,22.597274"
     transform="scale(-1,1)" />

</svg>
