<?xml version="1.0" standalone="no"?>
<!DOCTYPE svg PUBLIC "-//W3C//DTD SVG 1.1//EN" "http://www.w3.org/Graphics/SVG/1.1/DTD/svg11.dtd" >
<svg xmlns="http://www.w3.org/2000/svg" xmlns:xlink="http://www.w3.org/1999/xlink" version="1.1">
<metadata>
Created by FontForge 20170924 at Thu Dec 20 12:47:58 2018
 By www-data
Copyright (c) 2003 by Bitstream, Inc. All Rights Reserved.
DejaVu changes are in public domain
Changes by Saber Rastikerdar are in public domain.
Non-Arabic(Latin) glyphs and data in extended version are imported from Roboto font under the Apache License, Version 2.0.
</metadata>
<defs>
<font id="Vazir" horiz-adv-x="0" >
  <font-face 
    font-family="Vazir"
    font-weight="400"
    font-stretch="normal"
    units-per-em="1024"
    panose-1="0 0 0 0 0 0 0 0 0 0"
    ascent="819"
    descent="-205"
    x-height="541"
    cap-height="728"
    bbox="-492 -477 1615 1177"
    underline-thickness="1"
    underline-position="-2"
    unicode-range="U+000D-FFFD"
  />
<missing-glyph horiz-adv-x="543" 
d="M51 102h307v524h-307v-524zM0 677h410v-626h-410v626z" />
    <glyph glyph-name="unifb56" unicode="&#x67e;" horiz-adv-x="904" arabic-form="isolated" 
d="M431 0q-381 0 -381 243q0 68 27 129q27 -12 79 -35q-16 -41 -16 -80q0 -165 281 -165q251 0 316 48q32 24 32 83q0 45 -18 122l81 21q25 -75 25 -136q0 -118 -69 -167q-85 -60 -328 -63h-28h-1zM393 -284q18 17 71 71q18 -18 72 -71l-72 -72q-18 18 -71 72zM475 -151
q18 18 72 71q18 -17 71 -70l-71 -71q-18 17 -72 70zM313 -151l71 71q18 -17 72 -70q-18 -18 -72 -71q-18 17 -71 70z" />
    <glyph glyph-name="unifb57" unicode="&#x67e;" horiz-adv-x="951" arabic-form="final" 
d="M384 -284q18 17 72 71q17 -18 71 -71l-72 -72q-18 18 -71 72zM466 -151q18 18 72 71q18 -17 71 -70q-18 -18 -72 -71q-17 17 -71 70zM304 -151l71 71q18 -17 72 -70q-18 -18 -72 -71q-18 17 -71 70zM430 0q-381 0 -381 243q0 68 28 129q26 -12 79 -35q-17 -42 -17 -81
q0 -164 289 -164q260 0 321 65q17 18 17 61q0 17 -1 29q-1 13 -2 40q20 3 82 10l8 -108q3 -42 25 -70q22 -27 70 -27h7q9 0 9 -39v-9q0 -44 -9 -44h-7q-105 0 -150 88q-81 -85 -346 -88h-20h-2z" />
    <glyph glyph-name="unifb58" unicode="&#x67e;" horiz-adv-x="336" arabic-form="initial" 
d="M35 0h-39q-28 0 -28 44v9q0 39 28 39h39q80 0 108 16q42 25 42 104q0 60 -18 133q27 7 81 20q25 -77 25 -151q0 -122 -70 -175q-36 -28 -106 -36q-28 -3 -62 -3zM68 -284l71 71l71 -71q-18 -18 -71 -72q-18 18 -71 72zM149 -151q18 18 72 71q18 -17 71 -70
q-17 -18 -71 -71q-18 17 -72 70zM-12 -151q17 18 71 71q17 -17 71 -70q-18 -18 -72 -71q-18 17 -70 70z" />
    <glyph glyph-name="unifb59" unicode="&#x67e;" horiz-adv-x="359" arabic-form="medial" 
d="M68 -284l71 71l71 -71q-18 -18 -71 -72q-18 18 -71 72zM149 -151q18 18 72 71q18 -17 71 -70q-17 -18 -71 -71q-18 17 -72 70zM-12 -151q17 18 71 71q17 -17 71 -70q-18 -18 -72 -71q-18 17 -70 70zM372 44q0 -44 -9 -44h-6q-98 0 -136 71q-40 -57 -128 -68
q-21 -3 -45 -3h-52q-28 0 -28 44v9q0 39 28 39h49q116 0 128 66q3 18 3 42t-1 47q-1 14 -3 41q21 2 83 9q2 -28 8 -115q6 -90 96 -90h4q9 0 9 -43v-5z" />
    <glyph glyph-name="unifb7a" unicode="&#x686;" horiz-adv-x="683" arabic-form="isolated" 
d="M63 -72q0 292 357 371q2 0 5 1q-13 5 -57 23q-97 39 -133 39q-56 0 -93 -47q-5 -6 -14 -18q-19 9 -77 38q2 4 8 14q63 103 177 104v0q63 0 152 -43q156 -76 241 -79l-6 -87q-88 -6 -147 -19q-328 -77 -328 -289q0 -185 265 -185q108 0 208 48q6 -29 19 -87
q-100 -48 -234 -48q-195 0 -279 90q-64 70 -64 174zM340 -108l72 72q18 -18 71 -72q-18 -17 -71 -71q-18 18 -72 71zM423 27q18 17 72 70l70 -70q-17 -18 -71 -71q-18 17 -71 71zM260 27q18 17 72 70q17 -17 71 -70q-18 -18 -72 -71q-18 17 -71 71z" />
    <glyph glyph-name="unifb7b" unicode="&#x686;" horiz-adv-x="693" arabic-form="final" 
d="M280 -132q16 15 64 63q15 -16 63 -63l-64 -64q-16 16 -63 64zM353 -13q16 15 63 62q16 -15 64 -62q-16 -16 -64 -63q-16 15 -63 63zM209 -13q16 15 63 62q16 -15 64 -62q-16 -16 -64 -63q-16 15 -63 63zM629 331q-2 -22 -6 -87q-52 -4 -98 -11v-4q0 -137 140 -137h32
q10 0 10 -36v-12q0 -44 -10 -44h-32q-217 0 -217 212v6q-300 -75 -300 -282q0 -185 265 -185q108 0 208 48q6 -29 19 -87q-100 -48 -234 -48q-195 0 -279 90q-64 70 -64 174q0 292 357 371q2 0 5 1q-13 5 -57 23q-97 39 -133 39q-56 0 -93 -47q-5 -6 -14 -18q-19 9 -77 38
q2 4 8 14q64 104 177 104q63 0 152 -43q156 -76 241 -79z" />
    <glyph glyph-name="unifb7c" unicode="&#x686;" horiz-adv-x="668" arabic-form="initial" 
d="M-4 0q-28 0 -28 44v9q0 39 28 39h31q165 0 408 125q12 7 37 19q-13 4 -108 43q-99 39 -134 39q-57 0 -93 -47q-5 -6 -14 -18q-19 9 -77 38q2 4 8 14q63 103 177 104q63 0 152 -43q156 -76 241 -79q0 -29 -1 -87q-58 -5 -212 -87q-97 -51 -187 -79q-108 -34 -204 -34h-24z
M275 -284l71 71l71 -71l-72 -72q-17 18 -70 72zM356 -151q18 18 72 71q18 -17 72 -70q-18 -18 -72 -71q-18 17 -72 70zM195 -151q17 18 70 71q18 -17 72 -70q-18 -18 -72 -71q-18 17 -70 70z" />
    <glyph glyph-name="unifb7d" unicode="&#x686;" horiz-adv-x="676" arabic-form="medial" 
d="M275 -284l71 71l71 -71l-72 -72q-17 18 -70 72zM356 -151q18 18 72 71q18 -17 72 -70q-18 -18 -72 -71q-18 17 -72 70zM195 -151q17 18 70 71q18 -17 72 -70q-18 -18 -72 -71q-18 17 -70 70zM472 236q-12 4 -108 43q-99 39 -134 39q-57 0 -93 -47q-5 -6 -14 -18
q-19 9 -77 38q2 4 8 14q63 103 177 104q63 0 152 -43q156 -76 241 -79q0 -29 -1 -87q-41 -4 -103 -35q1 -73 139 -73h21q11 0 11 -36v-12q0 -44 -11 -44h-29q-183 0 -199 134q-20 -10 -41 -21q-97 -51 -187 -79q-108 -34 -204 -34h-24q-28 0 -28 44v9q0 39 28 39h31
q165 0 408 125q12 7 37 19z" />
    <glyph glyph-name="unifb8a" unicode="&#x698;" horiz-adv-x="420" arabic-form="isolated" 
d="M301 266q42 -101 42 -187q0 -273 -318 -333q-10 26 -31 79q262 49 263 251q0 68 -39 160q28 10 83 30zM156 563q18 17 71 71l72 -72l-71 -71zM238 428q18 18 71 72l72 -72l-71 -71q-18 18 -72 71zM76 428q18 18 71 72l72 -72q-18 -18 -72 -71z" />
    <glyph glyph-name="unifb8b" unicode="&#x698;" horiz-adv-x="435" arabic-form="final" 
d="M156 563q18 17 71 71l72 -72l-71 -71zM238 428q18 18 71 72l72 -72l-71 -71q-18 18 -72 71zM76 428q18 18 71 72l72 -72q-18 -18 -72 -71zM340 27q-29 -227 -315 -281q-10 26 -31 79q262 49 263 251q0 68 -39 160q28 10 83 30q8 -24 31 -97q25 -77 94 -77h14q10 0 10 -36
v-12q0 -44 -10 -44h-8q-73 0 -92 27z" />
    <glyph glyph-name="unifb8e" unicode="&#x6a9;" horiz-adv-x="924" arabic-form="isolated" 
d="M749 330q66 -70 64 -155q-3 -175 -306 -175h-91q-367 0 -367 243q0 68 28 129q26 -12 79 -35q-17 -42 -17 -81q1 -164 277 -164h91q217 0 217 96q0 48 -52 97q-77 71 -137 119q-57 44 -57 93q0 64 70 91q116 44 347 132v-91q-84 -31 -336 -125q132 -111 190 -174z" />
    <glyph glyph-name="unifb8f" unicode="&#x6a9;" horiz-adv-x="962" arabic-form="final" 
d="M416 0q-367 0 -367 243q0 68 28 129q26 -12 79 -35q-17 -42 -17 -81q1 -164 277 -164h91q216 0 217 96q0 48 -52 97q-80 74 -137 119q-57 44 -57 93q0 65 70 91q116 44 347 132v-91q-85 -31 -337 -125q131 -109 191 -174q40 -43 65 -113q45 -125 144 -125h8q10 0 10 -39
v-9q0 -44 -10 -44h-8q-109 0 -174 88q-57 -88 -277 -88h-91z" />
    <glyph glyph-name="unifb90" unicode="&#x6a9;" horiz-adv-x="475" arabic-form="initial" 
d="M109 504q131 -109 191 -174q65 -70 64 -155q-3 -175 -296 -175h-72q-28 0 -28 44v9q0 39 28 39h72q206 0 207 96q0 48 -52 97q-77 71 -137 119q-57 44 -57 93q0 65 70 91q116 44 346 132v-91q-84 -31 -336 -125v0z" />
    <glyph glyph-name="unifb91" unicode="&#x6a9;" horiz-adv-x="513" arabic-form="medial" 
d="M109 504q131 -109 191 -174q41 -44 65 -113q44 -125 144 -125h8q10 0 10 -39v-9q0 -44 -10 -44h-8q-109 0 -174 88q-58 -88 -267 -88h-72q-28 0 -28 44v9q0 39 28 39h72q206 0 207 96q0 48 -52 97q-77 71 -137 119q-57 44 -57 93q0 65 70 91q116 44 346 132v-91
q-84 -31 -336 -125z" />
    <glyph glyph-name="unifb92" unicode="&#x6af;" horiz-adv-x="924" arabic-form="isolated" 
d="M749 330q66 -70 64 -155q-3 -175 -306 -175h-91q-367 0 -367 243q0 68 28 129q26 -12 79 -35q-17 -42 -17 -81q1 -164 277 -164h91q217 0 217 96q0 48 -52 97q-77 71 -137 119q-57 44 -57 93q0 64 70 91q116 44 347 132v-91q-84 -31 -336 -125q132 -111 190 -174z
M892 792l-392 -152v65q98 38 392 151v-64z" />
    <glyph glyph-name="unifb93" unicode="&#x6af;" horiz-adv-x="962" arabic-form="final" 
d="M892 792l-392 -152v65q98 38 392 151v-64zM416 0q-367 0 -367 243q0 68 28 129q26 -12 79 -35q-17 -42 -17 -81q1 -164 277 -164h91q216 0 217 96q0 48 -52 97q-80 74 -137 119q-57 44 -57 93q0 65 70 91q116 44 347 132v-91q-85 -31 -337 -125q131 -109 191 -174
q40 -43 65 -113q45 -125 144 -125h8q10 0 10 -39v-9q0 -44 -10 -44h-8q-109 0 -174 88q-57 -88 -277 -88h-91z" />
    <glyph glyph-name="unifb94" unicode="&#x6af;" horiz-adv-x="475" arabic-form="initial" 
d="M109 504q131 -109 191 -174q65 -70 64 -155q-3 -175 -296 -175h-72q-28 0 -28 44v9q0 39 28 39h72q206 0 207 96q0 48 -52 97q-77 71 -137 119q-57 44 -57 93q0 65 70 91q116 44 346 132v-91q-84 -31 -336 -125v0zM442 793q-98 -38 -391 -151v65q97 37 391 150v-64z" />
    <glyph glyph-name="unifb95" unicode="&#x6af;" horiz-adv-x="513" arabic-form="medial" 
d="M442 793q-50 -19 -201 -78q-48 -18 -190 -73v65q97 37 391 150v-64zM109 504q131 -109 191 -174q41 -44 65 -113q44 -125 144 -125h8q10 0 10 -39v-9q0 -44 -10 -44h-8q-109 0 -174 88q-58 -88 -267 -88h-72q-28 0 -28 44v9q0 39 28 39h72q206 0 207 96q0 48 -52 97
q-77 71 -137 119q-57 44 -57 93q0 65 70 91q116 44 346 132v-91q-84 -31 -336 -125z" />
    <glyph glyph-name="unifb9e" unicode="&#x6ba;" horiz-adv-x="728" arabic-form="isolated" 
d="M647 -73q-75 -152 -283 -152q-313 0 -313 290q0 105 45 215q27 -11 80 -32q-37 -96 -37 -181q0 -203 228 -203q222 0 224 222q0 92 -46 185l87 30q44 -120 44 -235q0 -81 -29 -139z" />
    <glyph glyph-name="unifb9f" unicode="&#x6ba;" horiz-adv-x="769" arabic-form="final" 
d="M675 28q0 -80 -28 -136q-75 -152 -283 -152q-313 0 -313 291q0 104 45 214q27 -11 80 -33q-37 -95 -37 -180q0 -204 228 -204q222 0 224 223q0 92 -46 185l87 30q9 -29 36 -114q20 -60 96 -60h10q10 0 10 -36v-12q0 -44 -10 -44h-7q-63 0 -92 28z" />
    <glyph glyph-name="unifba5" unicode="&#x6c0;" horiz-adv-x="527" arabic-form="final" 
d="M168 588q31 -7 57 -7q79 0 111 25q23 19 23 40q0 13 -19 13q-16 0 -49 1q-59 1 -59 60q0 61 63 101q44 28 123 29q-2 -21 -5 -63q-113 -3 -121 -60v-6q14 0 56 -1q58 -2 68 -51q9 -49 -33 -97q-22 -23 -57 -37q-43 -16 -104 -16q-30 0 -64 5q3 21 10 64zM51 203
q0 147 259 226q-1 8 -5 23q21 5 82 17q10 -74 41 -296q12 -81 93 -81h10q10 0 10 -36v-12q0 -44 -10 -44h-12q-137 0 -162 113q-60 -52 -134 -52q-111 0 -155 73q-17 29 -17 69zM320 346q-180 -65 -180 -137q0 -61 80 -61q39 0 77 24q48 29 38 95q-3 22 -11 66q0 3 -2 14z
" />
    <glyph glyph-name="unifbac" unicode="&#x6be;" horiz-adv-x="697" arabic-form="initial" 
d="M48 0h-52q-28 0 -28 44v9q0 39 28 39h133h25q-21 15 -34 29q-39 45 -38 99q0 61 42 111q52 60 133 60q75 0 124 -47q43 -40 43 -101q0 -91 -79 -139q81 -12 104 -12q35 0 53 7q54 21 55 79q1 121 -285 258q14 26 43 77q332 -161 332 -333v-3q-2 -73 -46 -122
q-49 -55 -152 -55q-77 0 -191 36q-122 -36 -210 -36zM311 166q33 33 35 73q0 25 -14 41q-28 30 -70 30q-51 0 -77 -43q-12 -20 -13 -48q0 -32 31 -59q14 -13 30 -20q12 -7 26 -9q7 2 14 7q22 13 38 28z" />
    <glyph glyph-name="unifbad" unicode="&#x6be;" horiz-adv-x="496" arabic-form="medial" 
d="M287 -157q0 249 202 249h11q10 0 10 -39v-9q0 -44 -10 -44h-12q-143 0 -124 -211q-20 -19 -61 -59q-170 81 -200 270h-107q-28 0 -28 44v9q0 39 28 39h100q9 200 76 272q41 44 102 44t97 -44q36 -43 35 -120q-2 -85 -66 -161q-68 -79 -156 -83q17 -103 103 -157zM180 92
q58 1 104 50q40 43 40 105q0 65 -49 66q-85 3 -95 -221z" />
    <glyph glyph-name="unifbe8" unicode="&#x649;" horiz-adv-x="323" arabic-form="initial" 
d="M35 0h-38t-29 44v9q0 39 29 39h38q80 0 109 16q42 25 42 104q0 60 -18 133q27 7 81 20q24 -77 24 -151q0 -122 -69 -175q-52 -39 -169 -39z" />
    <glyph glyph-name="unifbe9" unicode="&#x649;" horiz-adv-x="359" arabic-form="medial" 
d="M373 44q0 -44 -10 -44h-5q-99 0 -137 71q-49 -71 -173 -71h-52q-28 0 -28 44v9q0 39 28 39h50q115 0 128 66q3 18 3 42t-1 47q-1 14 -3 41q20 2 82 9q2 -28 8 -115q6 -90 96 -90h4q10 0 10 -43v-5z" />
    <glyph glyph-name="unifbfc" unicode="&#x6cc;" horiz-adv-x="752" arabic-form="isolated" 
d="M139 42q0 -203 232 -204q89 0 158 33q37 17 64 45q28 28 28 64q0 28 -39 28q-19 1 -57 1q-125 0 -125 99q0 95 60 160q78 85 219 85h10v-97h-11q-80 0 -133 -36q-53 -37 -54 -92q0 -15 8 -21q9 -7 27 -7h59q119 0 119 -100q0 -145 -144 -211q-84 -38 -192 -38
q-316 0 -316 289q0 108 54 236q26 -10 79 -32q-46 -112 -46 -202z" />
    <glyph glyph-name="unifbfd" unicode="&#x6cc;" horiz-adv-x="752" arabic-form="final" 
d="M755 92q10 0 10 -39v-9q0 -44 -10 -44h-71h-8q24 -18 24 -56q0 -77 -91 -136q-105 -68 -246 -68q-312 0 -312 292q0 96 36 184q27 -10 80 -32q-28 -75 -28 -153q0 -202 224 -203q85 0 157 33q58 26 83 63q11 17 11 33q0 43 -66 43h-76q-29 4 -40 48q-5 20 -5 31t5 13h323
z" />
    <glyph glyph-name="unifbfe" unicode="&#x6cc;" horiz-adv-x="341" arabic-form="initial" 
d="M35 0h-39q-28 0 -28 44v9q0 39 28 39h39q80 0 108 16q42 25 42 104q0 60 -18 133q27 7 81 20q25 -77 25 -151q0 -122 -70 -175q-20 -16 -51 -25q-47 -14 -117 -14zM152 -159q18 19 72 74q19 -19 73 -74q-18 -18 -72 -73q-18 19 -73 73zM-11 -159q18 19 72 74l74 -74
l-73 -73q-18 19 -73 73z" />
    <glyph glyph-name="unifbff" unicode="&#x6cc;" horiz-adv-x="359" arabic-form="medial" 
d="M152 -159q18 19 72 74q19 -19 73 -74q-18 -18 -72 -73q-18 19 -73 73zM-11 -159q18 19 72 74l74 -74l-73 -73q-18 19 -73 73zM372 44q0 -44 -9 -44h-6q-33 0 -60 8q-51 16 -76 63q-49 -71 -173 -71h-52q-28 0 -28 44v9q0 39 28 39h49q116 0 128 66q3 18 3 42t-1 47
q-1 14 -3 41q21 2 83 9q2 -28 8 -115q6 -90 96 -90h4q9 0 9 -43v-5z" />
    <glyph glyph-name="unifdf2" unicode="&#xfdf2;" horiz-adv-x="1384" arabic-form="isolated" 
d="M671 836v201h44v-201h-44zM712 795q0 -20 1 -41q-1 -46 33 -46q35 0 35 51q0 18 -8 58q15 3 44 7q9 -31 9 -60q0 -101 -74 -102q-32 -1 -52 26q-16 -58 -76 -58q-68 0 -69 84q-1 30 6 55l39 -6q-5 -24 -4 -42q0 -42 33 -42q42 0 43 57q1 25 1 59h39zM51 203
q0 147 259 226q-1 8 -5 23q21 5 82 17q10 -74 41 -296q12 -81 93 -81h10q10 0 10 -36v-12q0 -44 -10 -44h-12q-137 0 -162 113q-60 -52 -134 -52q-111 0 -155 73q-17 29 -17 69zM320 346q-180 -65 -180 -137q0 -61 80 -61q39 0 77 24q48 29 38 95q-3 22 -11 66q0 3 -2 14z
M542 0h-14q-29 0 -29 44v9q0 39 29 39h15q116 0 116 124v361h86v-361q0 -124 102 -124h5q16 0 16 -39v-9q0 -24 -4 -33q-4 -11 -12 -11h-4q-100 0 -152 72q-48 -72 -154 -72zM848 0q-29 0 -29 44v9q0 39 29 39h29q98 0 98 105v462h87v-464q0 -195 -188 -195h-26zM1212 704
h87v-704h-87v704z" />
    <glyph glyph-name="unifdfc" unicode="&#xfdfc;" horiz-adv-x="1773" arabic-form="isolated" 
d="M556 50q1 163 2 654h86v-555q0 -69 -5 -135q-4 -52 -17 -93q-54 -181 -271 -181q-300 0 -299 280q0 101 41 203q26 -11 79 -32q-33 -86 -33 -172q0 -191 212 -191q205 0 205 222zM1573 236q42 -100 42 -187q0 -273 -318 -333q-10 27 -31 80q262 48 263 251q0 68 -39 160
q28 10 83 29zM1047 0h-39q-28 0 -28 44v9q0 39 28 39h39q80 0 108 16q42 25 42 104q0 60 -18 133q27 7 81 20q25 -77 25 -151q0 -122 -70 -175q-51 -39 -168 -39zM1084 -141q19 18 73 73q19 -18 74 -73l-73 -73q-18 18 -74 73zM922 -141l73 73l73 -73q-18 -19 -73 -73z
M1001 44q0 -44 -10 -44h-11q-184 0 -184 217v487h88v-486q0 -126 98 -126h9q10 0 10 -39v-9z" />
    <glyph glyph-name="unife70" unicode="&#xfe70;" horiz-adv-x="396" arabic-form="isolated" 
d="M23 538v52q57 23 228 93v-51q-57 -24 -228 -94zM23 644v52q57 23 228 93v-52q-57 -23 -228 -93z" />
    <glyph glyph-name="unife71" unicode="&#xfe71;" horiz-adv-x="396" arabic-form="medial" 
d="M249 0q-29 0 -29 44v9q0 39 29 39h1h150q11 0 11 -39v-9q0 -44 -11 -44h-151zM120 0q-28 0 -28 44v9q0 39 28 39h152q9 0 9 -39v-9q0 -44 -9 -44h-152zM-4 0q-28 0 -28 44v9q0 39 28 39h152q9 0 9 -39v-9q0 -44 -9 -44h-152zM23 538v52q57 23 228 93v-51
q-57 -24 -228 -94zM23 644v52q57 23 228 93v-52q-57 -23 -228 -93z" />
    <glyph glyph-name="unife72" unicode="&#xfe72;" horiz-adv-x="396" arabic-form="isolated" 
d="M154 859q-10 -12 -10 -27q0 -28 33 -42q11 -5 37 -13q14 23 14 47q0 49 -41 49q-21 0 -33 -14zM20 757q1 -113 67 -113q35 1 73 38q23 22 43 61l-15 3q-51 11 -69 35q-16 22 -16 47t9 42q21 42 73 42l1 1q35 0 57 -21q24 -23 24 -67q0 -20 -11 -54q5 -1 15 -1
q14 -1 29 -1v-40q-20 1 -25 2q-13 1 -38 3q-23 -55 -67 -94q-40 -35 -83 -35q-93 0 -95 152h28z" />
    <glyph glyph-name="unife74" unicode="&#xfe74;" horiz-adv-x="396" arabic-form="isolated" 
d="M25 -223v52q57 23 228 93v-52q-57 -23 -228 -93zM25 -117v52q57 23 228 93v-52q-57 -23 -228 -93z" />
    <glyph glyph-name="unife76" unicode="&#xfe76;" horiz-adv-x="396" arabic-form="isolated" 
d="M8 675v52q57 23 228 93v-52q-57 -24 -228 -93z" />
    <glyph glyph-name="unife77" unicode="&#xfe77;" horiz-adv-x="396" arabic-form="medial" 
d="M249 0q-29 0 -29 44v9q0 38 28 39h1h151q11 0 11 -39v-9q0 -44 -11 -44h-151zM120 0q-28 0 -28 44v9q0 39 28 39h152q9 0 9 -39v-9q0 -44 -9 -44h-152zM-4 0q-28 0 -28 44v9q0 39 28 39h152q9 0 9 -39v-9q0 -44 -9 -44h-152zM8 675v52q57 23 228 93v-52q-57 -24 -228 -93
z" />
    <glyph glyph-name="unife78" unicode="&#xfe78;" horiz-adv-x="396" arabic-form="isolated" 
d="M266 732q-30 0 -50 3l-15 1q-63 -88 -182 -95v39q93 4 138 69q-21 4 -44 16q-44 25 -44 68q1 32 19 54q23 27 63 27q30 0 53 -18q16 -13 24 -32q4 -15 4 -32q0 -28 -12 -59q3 0 9 -1q20 -1 37 -1v-39zM180 780q0 2 3 7q10 24 10 45q0 20 -13 31q-12 10 -27 10
q-22 1 -35 -15q-9 -11 -9 -27q0 -23 34 -39q11 -5 37 -12z" />
    <glyph glyph-name="unife79" unicode="&#xfe79;" horiz-adv-x="396" arabic-form="medial" 
d="M249 0q-29 0 -29 44v9q0 36 25 39h4h151q11 0 11 -39v-9q0 -44 -11 -44h-151zM120 0q-28 0 -28 44v9q0 39 28 39h152q9 0 9 -39v-9q0 -44 -9 -44h-152zM-4 0q-28 0 -28 44v9q0 39 28 39h152q9 0 9 -39v-9q0 -44 -9 -44h-152zM266 732q-30 0 -50 3l-15 1q-47 -65 -124 -86
q-27 -7 -58 -9v39q93 4 138 69q-21 4 -44 16q-44 25 -44 68q1 32 19 54q23 27 63 27q30 0 53 -18q16 -13 24 -32q4 -15 4 -32q0 -28 -12 -59q3 0 9 -1q20 -1 37 -1v-39zM180 780q0 2 3 7q10 24 10 45q0 20 -13 31q-12 10 -27 10q-22 1 -35 -15q-9 -11 -9 -27q0 -23 34 -39
q11 -5 37 -12z" />
    <glyph glyph-name="unife7a" unicode="&#xfe7a;" horiz-adv-x="396" arabic-form="isolated" 
d="M31 -173v52q57 23 228 93v-52q-57 -23 -228 -93z" />
    <glyph glyph-name="unife7b" unicode="&#xfe7b;" horiz-adv-x="396" arabic-form="medial" 
d="M249 0q-10 0 -17 6q-12 10 -12 38v9q0 39 29 39h151q11 0 11 -39v-9q0 -44 -11 -44h-151zM120 0q-28 0 -28 44v9q0 39 28 39h152q9 0 9 -39v-9q0 -44 -9 -44h-152zM-4 0q-28 0 -28 44v9q0 39 28 39h152q9 0 9 -39v-9q0 -44 -9 -44h-152zM31 -226v52q57 23 228 93v-51
q-57 -24 -228 -94z" />
    <glyph glyph-name="unife7c" unicode="&#xfe7c;" horiz-adv-x="396" arabic-form="isolated" 
d="M164 884q0 -20 1 -41q-1 -46 33 -46q35 0 35 51q0 19 -8 59q15 2 44 6q9 -30 9 -61q0 -100 -74 -101q-32 0 -52 26q-16 -58 -76 -58q-68 0 -69 84q-1 2 -1 4q1 28 7 51l39 -6q-5 -24 -4 -42q0 -42 33 -42q42 0 43 56q1 26 1 60h39z" />
    <glyph glyph-name="unife7d" unicode="&#xfe7d;" horiz-adv-x="396" arabic-form="medial" 
d="M249 0q-29 0 -29 44v9q0 39 29 39h20h131q11 0 11 -39v-9q0 -44 -11 -44h-151zM120 0q-28 0 -28 44v9q0 39 28 39h152q9 0 9 -39v-9q0 -44 -9 -44h-152zM-4 0q-28 0 -28 44v9q0 39 28 39h152q9 0 9 -39v-9q0 -44 -9 -44h-152zM164 884q0 -20 1 -41q-1 -46 33 -46
q35 0 35 51q0 19 -8 59q15 2 44 6q9 -30 9 -61q0 -100 -74 -101q-32 0 -52 26q-13 -47 -55 -56q-10 -2 -21 -2q-68 0 -69 84q-1 30 6 55l39 -6q-5 -24 -4 -42q0 -42 33 -42q42 0 43 56q1 26 1 60h39z" />
    <glyph glyph-name="unife7e" unicode="&#xfe7e;" horiz-adv-x="396" arabic-form="isolated" 
d="M59 731q0 41 28 69q29 28 69 28q41 0 70 -28q28 -28 28 -69t-28 -70q-29 -28 -70 -28q-40 0 -69 28q-28 29 -28 70zM102 731q-1 -24 16 -40q16 -16 39 -16q24 0 40 16t16 40q0 23 -16 39t-40 16q-23 0 -39 -16q-17 -16 -16 -39z" />
    <glyph glyph-name="unife7f" unicode="&#xfe7f;" horiz-adv-x="396" arabic-form="medial" 
d="M249 0q-29 0 -29 44v9q0 36 25 39h4h151q11 0 11 -39v-9q0 -44 -11 -44h-151zM120 0q-28 0 -28 44v9q0 39 28 39h152q9 0 9 -39v-9q0 -44 -9 -44h-152zM-4 0q-28 0 -28 44v9q0 39 28 39h152q9 0 9 -39v-9q0 -44 -9 -44h-152zM59 731q0 41 28 69q29 28 69 28q41 0 70 -28
q28 -28 28 -69t-28 -70q-24 -23 -56 -27q-7 -1 -14 -1q-40 0 -69 28q-28 29 -28 70zM102 731q-1 -24 16 -40q16 -16 39 -16q24 0 40 16t16 40q0 23 -16 39t-40 16q-23 0 -39 -16q-17 -16 -16 -39z" />
    <glyph glyph-name="unife80" unicode="&#x621;" horiz-adv-x="434" arabic-form="isolated" 
d="M59 6v89q56 36 100 49q-90 47 -90 127q0 67 36 108q51 59 132 59q84 0 130 -45q-10 -23 -29 -69q-39 28 -94 28q-44 0 -69 -24q-23 -23 -23 -57q0 -46 86 -86q42 10 126 29q4 -21 15 -86q-127 -15 -320 -122z" />
    <glyph glyph-name="unife81" unicode="&#x622;" horiz-adv-x="316" arabic-form="isolated" 
d="M120 633h87v-633h-87v633zM127 729q-56 8 -102 -46q-17 17 -50 53q58 84 144 71q24 -4 74 -12q48 -8 110 23l33 -69q-65 -40 -139 -29q-24 3 -70 9z" />
    <glyph glyph-name="unife82" unicode="&#x622;" horiz-adv-x="265" arabic-form="final" 
d="M127 729q-56 8 -102 -46q-17 17 -50 53q58 84 144 71q24 -4 74 -12q48 -8 110 23l33 -69q-48 -29 -100 -31q-19 -1 -39 2q-24 3 -70 9zM280 44q0 -44 -10 -44h-10q-184 0 -184 217v397h87v-396q0 -126 98 -126h9q10 0 10 -39v-9z" />
    <glyph glyph-name="unife83" unicode="&#x623;" horiz-adv-x="239" arabic-form="isolated" 
d="M78 603h65h21v-602h-86v602zM62 712q-37 28 -37 80q0 44 30 75q34 37 88 37q37 0 70 -22q1 -22 1 -66q-31 21 -64 21q-31 0 -49 -17q-13 -15 -13 -35q0 -29 47 -46q6 -3 12 -2l70 14v-63q-51 -12 -204 -49v61q13 3 49 12z" />
    <glyph glyph-name="unife84" unicode="&#x623;" horiz-adv-x="265" arabic-form="final" 
d="M67 712q-37 28 -37 80q0 44 30 75q34 37 88 37q37 0 71 -22v-66q-31 21 -64 21q-31 0 -48 -17q-15 -15 -15 -35q1 -29 48 -46q7 -3 12 -2l70 14v-63q-28 -7 -112 -27q-23 -5 -91 -22v61zM280 44v-4q0 -40 -11 -40h-10q-184 0 -184 217v397h73h14v-396q0 -126 98 -126h9
q11 0 11 -39v-9z" />
    <glyph glyph-name="unife85" unicode="&#x624;" horiz-adv-x="430" arabic-form="isolated" 
d="M166 490q-37 29 -37 81q0 44 30 74q34 37 88 37q37 0 70 -22q1 -21 1 -65q-31 21 -64 21q-31 0 -49 -17q-13 -15 -13 -35q0 -30 47 -47q6 -2 12 -1q35 7 70 13v-62q-51 -13 -204 -50v62q13 3 49 11zM51 -175q217 40 254 182q-60 -8 -76 -8q-182 -1 -182 150q0 60 25 115
q48 98 143 98h11q94 -6 135 -114q30 -75 30 -164q0 -280 -309 -338q-10 26 -31 79zM305 101q-10 167 -97 167q-48 0 -68 -60q-9 -28 -9 -52q0 -68 98 -68q37 0 76 13z" />
    <glyph glyph-name="unife86" unicode="&#x624;" horiz-adv-x="436" arabic-form="final" 
d="M303 0h-74q-182 0 -182 149q0 60 25 115q48 98 143 98h11q146 -10 163 -270h51q11 0 11 -43v-5q0 -44 -11 -44h-57q-38 -204 -301 -254q-10 26 -31 79q216 40 252 175zM305 92q-11 175 -97 176q-47 0 -68 -60q-9 -27 -9 -52q0 -64 93 -64h81zM166 490q-37 29 -37 81
q0 44 30 74q34 37 88 37q37 0 70 -22q1 -21 1 -65q-31 21 -64 21q-31 0 -49 -17q-13 -15 -13 -35q0 -30 47 -47q6 -2 12 -1q35 7 70 13v-62q-51 -13 -204 -50v62q13 3 49 11z" />
    <glyph glyph-name="unife87" unicode="&#x625;" horiz-adv-x="239" arabic-form="isolated" 
d="M64 -256q-36 29 -36 81q0 44 29 75q31 33 77 36h11q38 0 71 -21v-66q-31 21 -64 21q-31 0 -48 -17q-14 -14 -14 -34q1 -31 47 -47q7 -3 12 -2q35 7 71 14v-63q-51 -12 -204 -49v61q12 3 48 11zM76 704h86v-704h-86v704z" />
    <glyph glyph-name="unife88" unicode="&#x625;" horiz-adv-x="265" arabic-form="final" 
d="M280 44v-4q0 -40 -11 -40h-10q-45 0 -79 13q-105 40 -105 204v487h87v-486q0 -126 98 -126h9q11 0 11 -39v-9zM99 -252q-37 28 -37 80q0 44 30 75q28 31 71 36q8 1 17 1q37 0 71 -22v-66q-31 21 -64 21q-31 0 -48 -17q-15 -15 -15 -35q1 -29 48 -46q7 -3 12 -2l70 14v-63
q-51 -12 -203 -49v61z" />
    <glyph glyph-name="unife89" unicode="&#x626;" horiz-adv-x="752" arabic-form="isolated" 
d="M192 388q-37 28 -37 80q0 44 29 76q35 36 89 36q38 0 71 -21v-66q-32 20 -64 20t-48 -17q-15 -14 -15 -34q2 -30 48 -47q7 -3 12 -2q35 7 70 15v-64l-120 -28q-21 -5 -83 -20v61q12 3 48 11zM139 42q0 -203 232 -204q89 0 158 33q37 17 64 45q28 28 28 64q0 28 -39 28
q-19 1 -57 1q-125 0 -125 99q0 95 60 160q78 85 219 85h10v-97h-11q-80 0 -133 -36q-53 -37 -54 -92q0 -15 8 -21q9 -7 27 -7h59q119 0 119 -100q0 -145 -144 -211q-84 -38 -192 -38q-316 0 -316 289q0 108 54 236q12 -5 37 -15q11 -4 42 -17q-46 -112 -46 -202z" />
    <glyph glyph-name="unife8a" unicode="&#x626;" horiz-adv-x="752" arabic-form="final" 
d="M755 92q10 0 10 -39v-9q0 -44 -10 -44h-71h-8q24 -18 24 -56q0 -77 -91 -136q-105 -68 -246 -68q-312 0 -312 292q0 96 36 184q27 -10 80 -32q-28 -75 -28 -153q0 -202 224 -203q85 0 157 33q58 26 83 63q11 17 11 33q0 43 -66 43h-76q-29 4 -40 48q-5 20 -5 31t5 13h323
zM252 297q-36 29 -36 81q0 44 29 75q35 36 88 36q38 0 71 -21v-65q-31 20 -64 20q-31 0 -48 -17q-14 -14 -14 -34q1 -31 47 -48q7 -2 12 -1q35 7 71 14v-63q-41 -10 -164 -39q-10 -3 -40 -10v62q12 2 48 10z" />
    <glyph glyph-name="unife8b" unicode="&#x626;" horiz-adv-x="298" arabic-form="initial" 
d="M35 0h-39q-28 0 -28 44v9q0 39 28 39h39q54 0 83 16q42 25 42 104q0 60 -18 133q27 7 82 20q24 -77 24 -151q0 -122 -70 -175q-51 -39 -143 -39zM67 481q-38 28 -38 80q0 44 30 75q34 37 89 37q37 0 70 -21q0 -22 1 -66q-32 21 -64 21t-49 -18q-14 -14 -14 -34
q1 -30 48 -47q6 -3 12 -1q35 6 69 13v-63q-50 -12 -203 -49v62q12 3 49 11z" />
    <glyph glyph-name="unife8c" unicode="&#x626;" horiz-adv-x="332" arabic-form="medial" 
d="M348 44q0 -44 -11 -44h-5q-99 0 -136 71q-49 -71 -148 -71h-52q-28 0 -28 44v9q0 39 28 39h49q91 0 103 66q4 18 4 42t-2 47q-1 14 -2 41q13 1 53 6q7 1 28 3q2 -28 8 -115q7 -90 96 -90h4q11 0 11 -43v-5zM80 428q-37 28 -37 80q0 44 29 76q35 36 89 36q38 0 71 -21v-66
q-32 20 -64 20t-48 -17q-15 -14 -15 -34q2 -30 48 -47q7 -3 12 -2q35 7 70 15v-64q-51 -12 -203 -48v61q12 3 48 11z" />
    <glyph glyph-name="unife8d" unicode="&#x627;" horiz-adv-x="239" arabic-form="isolated" 
d="M76 704h86v-704h-86v704z" />
    <glyph glyph-name="unife8e" unicode="&#x627;" horiz-adv-x="265" arabic-form="final" 
d="M280 44v-4q0 -40 -11 -40h-10q-184 0 -184 217v487h87v-486q0 -126 98 -126h9q11 0 11 -39v-9z" />
    <glyph glyph-name="unife8f" unicode="&#x628;" horiz-adv-x="904" arabic-form="isolated" 
d="M431 0q-381 0 -381 243q0 68 27 129q27 -12 79 -35q-16 -41 -16 -80q0 -165 281 -165q251 0 316 48q32 24 32 83q0 45 -18 122l81 21q25 -75 25 -136q0 -118 -69 -167q-84 -59 -322 -63h-34h-1zM396 -159q18 19 73 74q18 -19 73 -74l-73 -73q-18 19 -73 73z" />
    <glyph glyph-name="unife90" unicode="&#x628;" horiz-adv-x="951" arabic-form="final" 
d="M430 0q-381 0 -381 243q0 68 28 129q26 -12 79 -35q-17 -42 -17 -81q0 -164 289 -164q260 0 321 65q17 18 17 61q0 17 -1 29q-1 13 -2 40q20 3 82 10l8 -108q3 -42 25 -70q22 -27 70 -27h7q9 0 9 -39v-9q0 -44 -9 -44h-7q-105 0 -150 88q-81 -85 -346 -88h-20h-2z
M381 -159q18 19 73 74q18 -19 73 -74q-18 -18 -72 -73q-19 19 -74 73z" />
    <glyph glyph-name="unife91" unicode="&#x628;" horiz-adv-x="298" arabic-form="initial" 
d="M35 0h-39q-28 0 -28 44v9q0 39 28 39h39q54 0 83 16q42 25 42 104q0 60 -18 133q27 7 82 20q24 -77 24 -151q0 -122 -70 -175q-38 -29 -98 -36q-21 -3 -45 -3zM36 -159q18 19 73 74q18 -19 73 -74l-73 -73q-18 19 -73 73z" />
    <glyph glyph-name="unife92" unicode="&#x628;" horiz-adv-x="333" arabic-form="medial" 
d="M348 44q0 -44 -11 -44h-5q-99 0 -136 71q-39 -56 -107 -68q-19 -3 -41 -3h-52q-28 0 -28 44v9q0 39 28 39h49q91 0 103 66q4 18 4 42t-2 47q-1 14 -2 41q20 2 81 9q2 -28 8 -115q7 -90 96 -90h4q11 0 11 -43v-5zM56 -159q18 19 72 74q19 -19 73 -74q-18 -18 -72 -73
q-18 19 -73 73z" />
    <glyph glyph-name="unife93" unicode="&#x629;" horiz-adv-x="471" arabic-form="isolated" 
d="M231 322q-95 -83 -95 -146q0 -84 101 -84q103 0 103 84q0 59 -109 146zM192 473q233 -170 233 -300q0 -94 -82 -145q-39 -25 -105 -26q-61 0 -103 22q-84 41 -84 149q0 103 113 215q-7 6 -22 19q13 17 50 66zM241 630l73 73q18 -18 73 -74l-72 -72q-19 18 -74 73zM79 630
q18 18 72 73q18 -18 73 -74l-72 -72q-19 18 -73 73z" />
    <glyph glyph-name="unife94" unicode="&#x629;" horiz-adv-x="527" arabic-form="final" 
d="M51 203q0 147 259 226q-1 8 -5 23q21 5 82 17q10 -74 41 -296q12 -81 93 -81h10q10 0 10 -36v-12q0 -44 -10 -44h-12q-137 0 -162 113q-60 -52 -134 -52q-111 0 -155 73q-17 29 -17 69zM320 346q-180 -65 -180 -137q0 -61 80 -61q39 0 77 24q48 29 38 95q-3 22 -11 66
q0 3 -2 14zM305 612q19 18 74 73l73 -73l-73 -73q-18 18 -74 73zM143 612l73 73l73 -73q-18 -19 -73 -73z" />
    <glyph glyph-name="unife95" unicode="&#x62a;" horiz-adv-x="904" arabic-form="isolated" 
d="M431 0q-381 0 -381 243q0 68 27 129q27 -12 79 -35q-16 -41 -16 -80q0 -165 281 -165q251 0 316 48q32 24 32 83q0 45 -18 122l81 21q25 -75 25 -136q0 -118 -69 -167q-90 -63 -356 -63h-1zM464 471q18 18 72 73q19 -18 73 -73q-18 -19 -72 -73zM301 471q18 18 72 73
q19 -18 74 -73q-18 -19 -73 -73z" />
    <glyph glyph-name="unife96" unicode="&#x62a;" horiz-adv-x="951" arabic-form="final" 
d="M430 0q-381 0 -381 243q0 68 28 129q26 -12 79 -35q-17 -42 -17 -81q0 -164 289 -164q260 0 321 65q17 18 17 61q0 17 -1 29q-1 13 -2 40q20 3 82 10l8 -108q3 -42 25 -70q22 -27 70 -27h7q9 0 9 -39v-9q0 -44 -9 -44h-7q-105 0 -150 88q-83 -88 -366 -88h-2zM470 471
l73 73l73 -73q-18 -19 -72 -73q-19 18 -74 73zM308 471q18 18 72 73l73 -73q-18 -19 -73 -73q-18 18 -72 73z" />
    <glyph glyph-name="unife97" unicode="&#x62a;" horiz-adv-x="349" arabic-form="initial" 
d="M35 0h-39q-28 0 -28 44v9q0 39 28 39h39q80 0 108 16q42 25 42 104q0 60 -18 133q27 7 81 20q25 -77 25 -151q0 -122 -70 -175q-51 -39 -168 -39zM160 523q18 18 72 73q19 -19 73 -74q-18 -18 -72 -73q-18 19 -73 74zM-3 523q18 18 72 73l74 -74l-73 -73q-18 19 -73 74z
" />
    <glyph glyph-name="unife98" unicode="&#x62a;" horiz-adv-x="359" arabic-form="medial" 
d="M372 44q0 -44 -9 -44h-6q-98 0 -136 71q-49 -71 -173 -71h-52q-28 0 -28 44v9q0 39 28 39h49q116 0 128 66q3 18 3 42t-1 47q-1 14 -3 41q21 2 83 9q2 -28 8 -115q6 -90 96 -90h4q9 0 9 -43v-5zM158 481l73 73q18 -18 73 -74l-72 -72q-19 18 -74 73zM-4 481q18 18 72 73
q18 -18 73 -74q-18 -18 -73 -72q-18 18 -72 73z" />
    <glyph glyph-name="unife99" unicode="&#x62b;" horiz-adv-x="904" arabic-form="isolated" 
d="M431 0q-381 0 -381 243q0 68 27 129q27 -12 79 -35q-16 -41 -16 -80q0 -165 281 -165q251 0 316 48q32 24 32 83q0 45 -18 122l81 21q25 -75 25 -136q0 -118 -69 -167q-90 -63 -356 -63h-1zM383 574l71 71q18 -18 71 -72l-70 -70q-18 17 -72 71zM465 440l71 71
q18 -18 72 -71q-18 -18 -71 -72zM303 440q18 18 70 71q18 -18 72 -71q-17 -18 -71 -72q-18 18 -71 72z" />
    <glyph glyph-name="unife9a" unicode="&#x62b;" horiz-adv-x="951" arabic-form="final" 
d="M430 0q-381 0 -381 243q0 68 28 129q26 -12 79 -35q-17 -42 -17 -81q0 -164 289 -164q260 0 321 65q17 18 17 61q0 17 -1 29q-1 13 -2 40q20 3 82 10l8 -108q3 -42 25 -70q22 -27 70 -27h7q9 0 9 -39v-9q0 -44 -9 -44h-7q-105 0 -150 88q-83 -88 -366 -88h-2zM388 573
q17 18 71 71q17 -18 71 -72q-18 -17 -71 -71q-18 18 -71 72zM469 439q18 18 72 71l71 -71q-17 -18 -71 -71q-18 17 -72 71zM308 439q17 18 70 71q18 -18 72 -71l-71 -71q-18 17 -71 71z" />
    <glyph glyph-name="unife9b" unicode="&#x62b;" horiz-adv-x="339" arabic-form="initial" 
d="M35 0h-39q-28 0 -28 44v9q0 39 28 39h39q80 0 108 16q42 25 42 104q0 60 -18 133q22 5 65 16l16 4q25 -77 25 -151q0 -122 -70 -175q-51 -39 -168 -39zM70 649q18 18 71 72q18 -18 71 -72q-17 -18 -71 -71q-17 18 -71 71zM152 516q18 17 72 71q17 -18 71 -72l-71 -71z
M-10 516q18 17 70 71l72 -72q-17 -18 -71 -71q-18 18 -71 72z" />
    <glyph glyph-name="unife9c" unicode="&#x62b;" horiz-adv-x="359" arabic-form="medial" 
d="M372 44q0 -44 -9 -44h-6q-98 0 -136 71q-49 -71 -173 -71h-52q-28 0 -28 44v9q0 39 28 39h49q116 0 128 66q3 18 3 42t-1 47q-1 14 -3 41q5 0 18 2q16 2 65 7q2 -28 8 -115q6 -90 96 -90h4q9 0 9 -43v-5zM72 601q18 18 72 71q17 -18 71 -72q-18 -17 -71 -71zM155 467
q17 18 71 71l71 -71q-17 -18 -70 -71q-18 17 -72 71zM-8 467l71 71q18 -18 72 -71l-71 -71q-18 17 -72 71z" />
    <glyph glyph-name="unife9d" unicode="&#x62c;" horiz-adv-x="683" arabic-form="isolated" 
d="M63 -72q0 292 357 371q2 0 5 1q-13 5 -57 23q-97 39 -133 39q-56 0 -93 -47q-5 -6 -14 -18q-19 9 -77 38q2 4 8 14q63 103 177 104v0q63 0 152 -43q156 -76 241 -79l-6 -87q-88 -6 -147 -19q-328 -77 -328 -289q0 -185 265 -185q108 0 208 48q6 -29 19 -87
q-100 -48 -234 -48q-195 0 -279 90q-64 70 -64 174zM329 -32q19 18 74 72l73 -73q-19 -18 -73 -72q-18 18 -74 73z" />
    <glyph glyph-name="unife9e" unicode="&#x62c;" horiz-adv-x="693" arabic-form="final" 
d="M629 331q-2 -22 -6 -87q-52 -4 -98 -11v-4q0 -137 140 -137h32q10 0 10 -36v-12q0 -44 -10 -44h-32q-217 0 -217 212v6q-300 -75 -300 -282q0 -185 265 -185q108 0 208 48q6 -29 19 -87q-100 -48 -234 -48q-195 0 -279 90q-64 70 -64 174q0 292 357 371q2 0 5 1
q-13 5 -57 23q-97 39 -133 39q-56 0 -93 -47q-5 -6 -14 -18q-19 9 -77 38q2 4 8 14q64 104 177 104q63 0 152 -43q156 -76 241 -79zM283 -52q18 18 73 72l73 -73q-18 -18 -73 -72z" />
    <glyph glyph-name="unife9f" unicode="&#x62c;" horiz-adv-x="668" arabic-form="initial" 
d="M280 -159q19 19 73 74l74 -74q-19 -18 -73 -73q-18 19 -74 73zM-4 0q-28 0 -28 44v9q0 39 28 39h31q165 0 408 125q12 7 37 19q-13 4 -108 43q-99 39 -134 39q-57 0 -93 -47q-5 -6 -14 -18q-19 9 -77 38q2 4 8 14q63 103 177 104q63 0 152 -43q156 -76 241 -79
q0 -29 -1 -87q-58 -5 -212 -87q-80 -42 -155 -69q-125 -44 -236 -44h-24z" />
    <glyph glyph-name="unifea0" unicode="&#x62c;" horiz-adv-x="676" arabic-form="medial" 
d="M281 -159q18 19 73 74q18 -19 73 -74q-18 -18 -72 -73q-19 19 -74 73zM472 236q-12 4 -108 43q-99 39 -134 39q-57 0 -93 -47q-5 -6 -14 -18q-19 9 -77 38q2 4 8 14q63 103 177 104q63 0 152 -43q156 -76 241 -79q0 -29 -1 -87q-41 -4 -103 -35q1 -73 139 -73h21
q11 0 11 -36v-12q0 -44 -11 -44h-29q-183 0 -199 134q-20 -10 -41 -21q-80 -42 -154 -68q-126 -45 -237 -45h-24q-28 0 -28 44v9q0 39 28 39h31q165 0 408 125q12 7 37 19z" />
    <glyph glyph-name="unifea1" unicode="&#x62d;" horiz-adv-x="693" arabic-form="isolated" 
d="M63 -72q0 292 357 371q2 0 5 1q-13 5 -57 23q-97 39 -133 39q-56 0 -93 -47q-5 -6 -14 -18q-19 9 -77 38q2 4 8 14q63 103 177 104v0q63 0 152 -43q156 -76 241 -79l-6 -87q-88 -6 -147 -19q-328 -77 -328 -289q0 -185 265 -185q108 0 208 48q6 -29 19 -87
q-100 -48 -234 -48q-195 0 -279 90q-64 70 -64 174z" />
    <glyph glyph-name="unifea2" unicode="&#x62d;" horiz-adv-x="693" arabic-form="final" 
d="M629 331q-2 -22 -6 -87q-52 -4 -98 -11v-4q0 -137 140 -137h32q10 0 10 -36v-12q0 -44 -10 -44h-32q-217 0 -217 212v6q-300 -75 -300 -282q0 -185 265 -185q108 0 208 48q6 -29 19 -87q-100 -48 -234 -48q-195 0 -279 90q-64 70 -64 174q0 292 357 371q2 0 5 1
q-13 5 -57 23q-97 39 -133 39q-56 0 -93 -47q-5 -6 -14 -18q-19 9 -77 38q2 4 8 14q64 104 177 104q63 0 152 -43q156 -76 241 -79z" />
    <glyph glyph-name="unifea3" unicode="&#x62d;" horiz-adv-x="668" arabic-form="initial" 
d="M-3 0q-29 0 -29 44v9q0 39 29 39h30q165 0 408 125q12 7 37 19q-13 4 -108 43q-98 39 -133 39q-57 0 -94 -47q-4 -6 -13 -18q-20 9 -77 38q2 4 8 14q62 103 176 104q64 0 152 -43q156 -76 241 -79v-87q-58 -5 -212 -87q-215 -113 -391 -113h-24z" />
    <glyph glyph-name="unifea4" unicode="&#x62d;" horiz-adv-x="676" arabic-form="medial" 
d="M472 236q-12 4 -108 43q-98 39 -133 39q-57 0 -94 -47q-4 -6 -13 -18q-20 9 -77 38q2 4 8 14q62 103 176 104q64 0 152 -43q156 -76 241 -79v-87q-41 -4 -104 -35q2 -73 139 -73h21q11 0 11 -36v-12q0 -44 -11 -44h-29q-183 0 -199 134q-19 -10 -40 -21
q-215 -113 -391 -113h-24q-29 0 -29 44v9q0 39 29 39h30q165 0 408 125q12 7 37 19z" />
    <glyph glyph-name="unifea5" unicode="&#x62e;" horiz-adv-x="693" arabic-form="isolated" 
d="M217 619l73 73l73 -73q-18 -19 -72 -73q-19 18 -74 73zM63 -72q0 292 357 371q2 0 5 1q-13 5 -57 23q-97 39 -133 39q-56 0 -93 -47q-5 -6 -14 -18q-19 9 -77 38q2 4 8 14q63 103 177 104v0q12 0 25 -2q55 -6 127 -41q156 -76 241 -79l-6 -87q-88 -6 -147 -19
q-328 -77 -328 -289q0 -185 265 -185q108 0 208 48q6 -29 19 -87q-100 -48 -234 -48q-195 0 -279 90q-64 70 -64 174z" />
    <glyph glyph-name="unifea6" unicode="&#x62e;" horiz-adv-x="693" arabic-form="final" 
d="M217 619l73 73l73 -73q-18 -19 -72 -73q-19 18 -74 73zM629 331q-2 -22 -6 -87q-52 -4 -98 -11v-4q0 -137 140 -137h32q10 0 10 -36v-12q0 -44 -10 -44h-32q-217 0 -217 212v6q-300 -75 -300 -282q0 -185 265 -185q108 0 208 48q6 -29 19 -87q-100 -48 -234 -48
q-195 0 -279 90q-64 70 -64 174q0 292 357 371q2 0 5 1q-13 5 -57 23q-97 39 -133 39q-56 0 -93 -47q-5 -6 -14 -18q-19 9 -77 38q2 4 8 14q64 104 177 104q12 0 25 -2q55 -6 127 -41q156 -76 241 -79z" />
    <glyph glyph-name="unifea7" unicode="&#x62e;" horiz-adv-x="668" arabic-form="initial" 
d="M197 592q18 19 73 73l73 -73l-72 -72q-19 18 -74 72zM-4 0q-28 0 -28 44v9q0 39 28 39h31q165 0 408 125q12 7 37 19q-13 4 -108 43q-99 39 -134 39q-57 0 -93 -47q-5 -6 -14 -18q-19 9 -77 38q2 4 8 14q63 103 177 104q8 0 17 -1q58 -5 135 -42q156 -76 241 -79
q0 -29 -1 -87q-58 -5 -212 -87q-215 -113 -391 -113h-24z" />
    <glyph glyph-name="unifea8" unicode="&#x62e;" horiz-adv-x="676" arabic-form="medial" 
d="M197 592q18 19 73 73l73 -73l-72 -72q-19 18 -74 72zM472 236q-12 4 -108 43q-99 39 -134 39q-57 0 -93 -47q-5 -6 -14 -18q-19 9 -77 38q2 4 8 14q63 103 177 104q8 0 17 -1q58 -5 135 -42q156 -76 241 -79q0 -29 -1 -87q-41 -4 -103 -35q1 -73 139 -73h21q11 0 11 -36
v-12q0 -44 -11 -44h-29q-183 0 -199 134q-20 -10 -41 -21q-215 -113 -391 -113h-24q-28 0 -28 44v9q0 39 28 39h31q165 0 408 125q12 7 37 19z" />
    <glyph glyph-name="unifea9" unicode="&#x62f;" horiz-adv-x="487" arabic-form="isolated" 
d="M51 105q62 -13 110 -13q185 0 185 91q0 94 -207 225q16 25 49 76q248 -148 248 -300q0 -183 -268 -183q-64 0 -117 12v92z" />
    <glyph glyph-name="unifeaa" unicode="&#x62f;" horiz-adv-x="531" arabic-form="final" 
d="M169 0q-69 0 -118 13v94q60 -15 110 -15q174 0 173 83q0 22 -46 129q-20 47 -60 142q21 10 83 38q24 -61 96 -243q58 -149 117 -149h11q9 0 9 -39v-9q0 -44 -9 -44h-11q-83 0 -131 80q-65 -80 -224 -80z" />
    <glyph glyph-name="unifeab" unicode="&#x630;" horiz-adv-x="487" arabic-form="isolated" 
d="M51 105q62 -13 110 -13q185 0 185 91q0 94 -207 225q16 25 49 76q248 -148 248 -300q0 -183 -268 -183q-64 0 -117 12v92zM105 643q19 18 74 73l73 -73l-73 -73q-18 18 -74 73z" />
    <glyph glyph-name="unifeac" unicode="&#x630;" horiz-adv-x="531" arabic-form="final" 
d="M169 0q-69 0 -118 13v94q60 -15 110 -15q174 0 173 83q0 22 -46 129q-20 47 -60 142q21 10 83 38q24 -61 96 -243q58 -149 117 -149h11q9 0 9 -39v-9q0 -44 -9 -44h-11q-83 0 -131 80q-65 -80 -224 -80zM177 640q19 18 74 72l73 -73q-19 -18 -73 -72q-18 18 -74 73z" />
    <glyph glyph-name="unifead" unicode="&#x631;" horiz-adv-x="388" arabic-form="isolated" 
d="M301 266q42 -101 42 -187q0 -273 -318 -333q-10 26 -31 79q262 49 263 251q0 68 -39 160q28 10 83 30z" />
    <glyph glyph-name="unifeae" unicode="&#x631;" horiz-adv-x="435" arabic-form="final" 
d="M340 27q-29 -227 -315 -281q-10 26 -31 79q262 49 263 251q0 68 -39 160q28 10 83 30q8 -24 31 -97q25 -77 94 -77h14q10 0 10 -36v-12q0 -44 -10 -44h-8q-73 0 -92 27z" />
    <glyph glyph-name="unifeaf" unicode="&#x632;" horiz-adv-x="388" arabic-form="isolated" 
d="M301 266q42 -101 42 -187q0 -273 -318 -333q-10 26 -31 79q262 49 263 251q0 68 -39 160q28 10 83 30zM153 448l75 75q19 -19 76 -75l-76 -76q-18 19 -75 76z" />
    <glyph glyph-name="unifeb0" unicode="&#x632;" horiz-adv-x="435" arabic-form="final" 
d="M153 448l75 75q19 -19 76 -75l-76 -76q-18 19 -75 76zM340 27q-29 -227 -315 -281q-10 26 -30 79q261 49 262 251q1 68 -38 160q27 10 82 30q8 -24 31 -97q25 -77 95 -77h13q11 0 11 -36v-12q0 -44 -11 -44h-8q-72 0 -92 27z" />
    <glyph glyph-name="unifeb1" unicode="&#x633;" horiz-adv-x="1235" arabic-form="isolated" 
d="M675 28q0 -80 -28 -136q-75 -152 -283 -152q-313 0 -313 291q0 104 45 214q27 -11 80 -33q-37 -95 -37 -180q0 -204 228 -204q222 0 224 223q0 92 -46 185l87 30q7 -23 29 -93q27 -81 111 -81q89 0 89 92q0 29 -1 51l-3 42q21 2 83 10q2 -29 8 -115q4 -79 76 -78
q72 0 71 106q0 51 -22 127q28 8 86 23q25 -78 24 -150q0 -113 -60 -167q-39 -33 -95 -33q-93 0 -123 71q-50 -71 -133 -71q-63 0 -97 28z" />
    <glyph glyph-name="unifeb2" unicode="&#x633;" horiz-adv-x="1280" arabic-form="final" 
d="M772 92q89 0 89 91q0 40 -1 53q-1 14 -3 41q21 2 83 10q2 -29 8 -115q5 -80 79 -80q69 0 70 101q0 33 -3 64q-1 10 -2 31q20 2 82 9q2 -23 8 -94q10 -111 93 -111h9q10 0 10 -39v-9q-1 -44 -10 -44h-8q-100 0 -125 72q-36 -72 -120 -72q-95 0 -125 71q-50 -71 -134 -71
q-63 0 -97 28q0 -80 -28 -136q-75 -152 -283 -152q-313 0 -313 291q0 104 45 214q27 -11 80 -33q-37 -95 -37 -180q0 -204 228 -204q222 0 224 223q0 92 -46 185l87 30q7 -23 29 -93q27 -81 111 -81z" />
    <glyph glyph-name="unifeb3" unicode="&#x633;" horiz-adv-x="784" arabic-form="initial" 
d="M409 165q3 15 3 35q0 23 -2 47l-3 30q21 2 82 10q2 -29 8 -115q6 -80 79 -80q69 0 69 108q0 51 -21 127q28 8 85 23q25 -79 24 -147v-3q0 -113 -61 -167q-37 -33 -94 -33q-93 0 -122 71q-51 -71 -137 -71q-103 0 -132 71q-40 -71 -162 -71h-28q-29 0 -29 44v9q0 39 29 39
h29q102 0 118 73q3 15 3 35q0 22 -2 47l-3 30q21 2 82 10q2 -29 8 -115q6 -80 88 -80q75 0 89 73z" />
    <glyph glyph-name="unifeb4" unicode="&#x633;" horiz-adv-x="829" arabic-form="medial" 
d="M497 172q6 -80 80 -80q70 0 70 100q0 40 -3 65q-1 10 -3 31q21 2 83 9q2 -23 8 -94q9 -111 92 -111h9q11 0 11 -39v-9q0 -44 -11 -44h-8q-100 0 -124 72q-36 -72 -124 -72q-87 0 -121 71q-51 -71 -137 -71q-103 0 -132 71q-40 -71 -162 -71h-28q-29 0 -29 44v9
q0 39 29 39h29q103 0 118 73q3 12 3 35q0 22 -2 47l-3 30q21 2 82 10q2 -29 8 -115q6 -80 88 -80q75 0 89 73q3 12 3 35t-2 47l-3 30q21 2 82 10q2 -29 8 -115z" />
    <glyph glyph-name="unifeb5" unicode="&#x634;" horiz-adv-x="1235" arabic-form="isolated" 
d="M811 606q17 18 70 71l72 -72q-18 -17 -71 -70q-18 17 -71 71zM892 472q18 18 72 71q18 -18 72 -71l-72 -72zM731 472q17 18 70 71q18 -18 72 -71l-72 -72q-17 18 -70 72zM675 28q0 -80 -28 -136q-75 -152 -283 -152q-313 0 -313 291q0 104 45 214q27 -11 80 -33
q-37 -95 -37 -180q0 -204 228 -204q222 0 224 223q0 92 -46 185l87 30q7 -23 29 -93q27 -81 111 -81q89 0 89 92q0 29 -1 51l-3 42q18 2 72 9q2 0 11 1q2 -29 8 -115q4 -79 76 -78q72 0 71 106q0 51 -22 127q28 8 86 23q25 -78 24 -150q0 -113 -60 -167q-39 -33 -95 -33
q-93 0 -123 71q-50 -71 -133 -71q-63 0 -97 28z" />
    <glyph glyph-name="unifeb6" unicode="&#x634;" horiz-adv-x="1280" arabic-form="final" 
d="M811 606q17 18 70 71l72 -72q-18 -17 -71 -70q-18 17 -71 71zM892 472q18 18 72 71q18 -18 72 -71l-72 -72zM731 472q17 18 70 71q18 -18 72 -71l-72 -72q-17 18 -70 72zM772 92q89 0 89 91q0 40 -1 53q-1 14 -3 41q18 2 72 9q3 0 11 1q2 -29 8 -115q5 -80 79 -80
q69 0 70 101q0 33 -3 64q-1 10 -2 31q20 2 82 9q2 -23 8 -94q10 -111 93 -111h9q10 0 10 -39v-9q-1 -44 -10 -44h-8q-100 0 -125 72q-36 -72 -120 -72q-95 0 -125 71q-50 -71 -134 -71q-63 0 -97 28q0 -80 -28 -136q-75 -152 -283 -152q-313 0 -313 291q0 104 45 214
q27 -11 80 -33q-37 -95 -37 -180q0 -204 228 -204q222 0 224 223q0 92 -46 185l87 30q7 -23 29 -93q27 -81 111 -81z" />
    <glyph glyph-name="unifeb7" unicode="&#x634;" horiz-adv-x="784" arabic-form="initial" 
d="M361 604q18 18 71 72l72 -72q-18 -18 -72 -71q-17 18 -71 71zM443 471q18 17 72 70l71 -71l-71 -71zM281 471q18 17 71 70q18 -17 72 -71q-18 -18 -72 -71q-18 18 -71 72zM408 165q4 15 4 35q0 23 -3 47q-1 10 -2 30q18 2 72 9q3 0 10 1q2 -29 8 -115q6 -80 79 -80
q69 0 69 108q0 51 -22 127q29 8 85 23q25 -79 25 -147v-3q-1 -113 -61 -167q-37 -33 -95 -33q-92 0 -121 71q-51 -71 -138 -71q-102 0 -132 71q-40 -71 -162 -71h-28q-28 0 -28 44v9q0 39 28 39h29q103 0 119 73q3 15 3 35q0 22 -3 47l-3 30q21 2 83 10q2 -29 8 -115
q5 -80 87 -80q75 0 89 73z" />
    <glyph glyph-name="unifeb8" unicode="&#x634;" horiz-adv-x="829" arabic-form="medial" 
d="M361 604q18 18 71 72l72 -72q-18 -18 -72 -71q-17 18 -71 71zM443 471q18 17 72 70l71 -71l-71 -71zM281 471q18 17 71 70q18 -17 72 -71q-18 -18 -72 -71q-18 18 -71 72zM497 172q6 -80 79 -80q71 0 70 100q0 40 -2 65q-1 10 -3 31q21 2 83 9q2 -23 8 -94
q9 -111 92 -111h9q10 0 10 -39v-9q0 -44 -10 -44h-8q-100 0 -125 72q-36 -72 -123 -72q-88 0 -121 71q-51 -71 -138 -71q-102 0 -132 71q-40 -71 -162 -71h-28q-28 0 -28 44v9q0 39 28 39h29q103 0 119 73q3 12 3 35q0 22 -3 47l-3 30q21 2 83 10q2 -29 8 -115q5 -80 87 -80
q76 0 90 73q3 12 3 35t-3 47q-1 10 -2 30q18 2 72 9q3 0 10 1q2 -29 8 -115z" />
    <glyph glyph-name="unifeb9" unicode="&#x635;" horiz-adv-x="1293" arabic-form="isolated" 
d="M661 173q21 -64 51 -66q170 289 343 289q73 0 122 -41q66 -55 66 -143q-2 -212 -362 -212h-25q-124 0 -181 28q0 -80 -28 -136q-75 -152 -283 -152q-313 0 -313 291q0 104 45 214q27 -11 80 -33q-37 -95 -37 -180q0 -204 228 -204q222 0 224 223q0 92 -46 185l87 30
q7 -23 29 -93zM880 92q271 0 272 116q0 51 -40 77q-24 17 -56 18q-114 0 -248 -211h72z" />
    <glyph glyph-name="unifeba" unicode="&#x635;" horiz-adv-x="1308" arabic-form="final" 
d="M712 107q171 288 339 289h4q73 -1 122 -41q66 -55 66 -143q0 -60 -35 -108q12 -12 95 -12h9q10 0 10 -39v-9q0 -44 -10 -44h-12q-119 0 -172 44q-79 -44 -247 -44h-25q-124 0 -181 28q0 -80 -28 -136q-75 -152 -283 -152q-313 0 -313 291q0 104 45 214q27 -11 80 -33
q-37 -95 -37 -180q0 -204 228 -204q222 0 224 223q0 92 -46 185l87 30q7 -23 29 -93q21 -64 51 -66zM1056 303q-115 0 -248 -211h72q271 0 272 116q0 51 -40 77q-24 17 -56 18z" />
    <glyph glyph-name="unifebb" unicode="&#x635;" horiz-adv-x="840" arabic-form="initial" 
d="M789 212q-1 -212 -361 -212h-25q-186 0 -229 72q-53 -72 -169 -72h-9q-28 0 -28 44v9q0 39 29 39h8q111 0 123 66q6 30 2 89q-1 14 -2 41q20 2 81 9q3 -29 10 -116q5 -65 40 -74q170 288 338 289h4q74 -1 123 -41q65 -55 65 -143zM603 303q-115 0 -249 -211h72
q271 0 272 116q0 51 -39 77q-24 17 -56 18z" />
    <glyph glyph-name="unifebc" unicode="&#x635;" horiz-adv-x="860" arabic-form="medial" 
d="M789 212q0 -60 -35 -108q13 -12 95 -12h10q9 0 9 -39v-9q0 -44 -9 -44h-12q-119 0 -173 44q-78 -44 -246 -44h-25q-183 0 -229 72q-53 -72 -169 -72h-9q-28 0 -28 44v9q0 39 28 39h8q112 0 124 66q6 30 2 89q-1 14 -2 41q20 2 81 9q3 -29 10 -116q5 -65 40 -74
q171 288 338 289h4q75 -1 123 -41q64 -55 65 -143zM603 303q-114 1 -249 -211h72q271 0 272 116q0 51 -39 77q-24 17 -56 18z" />
    <glyph glyph-name="unifebd" unicode="&#x636;" horiz-adv-x="1293" arabic-form="isolated" 
d="M963 592q18 18 73 72l73 -73q-18 -18 -73 -72zM661 173q21 -64 51 -66q166 282 334 288q4 1 9 1q73 0 122 -41q66 -55 66 -143q-2 -212 -362 -212h-25q-124 0 -181 28q0 -80 -28 -136q-75 -152 -283 -152q-313 0 -313 291q0 104 45 214q27 -11 80 -33q-37 -95 -37 -180
q0 -204 228 -204q222 0 224 223q0 92 -46 185l87 30q7 -23 29 -93zM880 92q271 0 272 116q0 51 -40 77q-24 17 -56 18q-114 0 -248 -211h72z" />
    <glyph glyph-name="unifebe" unicode="&#x636;" horiz-adv-x="1308" arabic-form="final" 
d="M963 592q18 18 73 72l73 -73q-18 -18 -73 -72zM712 107q167 283 332 288q5 1 11 1q73 -1 122 -41q66 -55 66 -143q0 -60 -35 -108q12 -12 95 -12h9q10 0 10 -39v-9q0 -44 -10 -44h-12q-119 0 -172 44q-79 -44 -247 -44h-25q-124 0 -181 28q0 -80 -28 -136
q-75 -152 -283 -152q-313 0 -313 291q0 104 45 214q27 -11 80 -33q-37 -95 -37 -180q0 -204 228 -204q222 0 224 223q0 92 -46 185l87 30q7 -23 29 -93q21 -64 51 -66zM1056 303q-115 0 -248 -211h72q271 0 272 116q0 51 -40 77q-24 17 -56 18z" />
    <glyph glyph-name="unifebf" unicode="&#x636;" horiz-adv-x="840" arabic-form="initial" 
d="M508 592q18 18 73 72l73 -73q-18 -18 -73 -72zM789 212q-1 -212 -361 -212h-25q-186 0 -229 72q-53 -72 -169 -72h-9q-28 0 -28 44v9q0 39 29 39h8q111 0 123 66q6 30 2 89q-1 14 -2 41q20 2 81 9q3 -29 10 -116q5 -65 40 -74q167 282 331 288q6 1 11 1q74 -1 123 -41
q65 -55 65 -143zM603 303q-115 0 -249 -211h72q271 0 272 116q0 51 -39 77q-24 17 -56 18z" />
    <glyph glyph-name="unifec0" unicode="&#x636;" horiz-adv-x="860" arabic-form="medial" 
d="M508 592q18 18 73 72l73 -73q-18 -18 -73 -72zM789 212q0 -60 -35 -108q13 -12 95 -12h10q9 0 9 -39v-9q0 -44 -9 -44h-12q-119 0 -173 44q-78 -44 -246 -44h-25q-183 0 -229 72q-53 -72 -169 -72h-9q-28 0 -28 44v9q0 39 28 39h8q112 0 124 66q6 30 2 89q-1 14 -2 41
q20 2 81 9q3 -29 10 -116q5 -65 40 -74q167 282 331 288q6 1 11 1q75 -1 123 -41q64 -55 65 -143zM603 303q-114 1 -249 -211h72q271 0 272 116q0 51 -39 77q-24 17 -56 18z" />
    <glyph glyph-name="unifec1" unicode="&#x637;" horiz-adv-x="740" arabic-form="isolated" 
d="M690 212q-2 -212 -361 -212h-278v92h110h1q9 14 36 57v555h86v-432q101 126 218 124q74 -1 122 -41q66 -55 66 -143zM504 303q-116 0 -249 -211h72q271 0 272 116q0 51 -39 77q-24 17 -56 18z" />
    <glyph glyph-name="unifec2" unicode="&#x637;" horiz-adv-x="757" arabic-form="final" 
d="M501 396q74 -1 123 -41q65 -55 65 -143q0 -57 -34 -108q5 -12 97 -12h9q11 0 11 -39v-9q0 -44 -11 -44h-12q-130 0 -181 41q-77 -41 -239 -41h-278v92h110h1q9 14 35 57v555h87v-432q100 125 217 124zM503 303q-119 -2 -248 -211h72q271 0 272 116q0 51 -39 77
q-25 18 -57 18z" />
    <glyph glyph-name="unifec3" unicode="&#x637;" horiz-adv-x="650" arabic-form="initial" 
d="M599 212q0 -212 -361 -212h-242q-28 0 -28 44v9q0 39 28 39h73q10 14 38 57v555h86v-432q100 124 218 124q73 -1 122 -41q66 -55 66 -143zM412 303q-116 -1 -248 -211h72q272 0 272 116q0 51 -40 77q-24 17 -56 18z" />
    <glyph glyph-name="unifec4" unicode="&#x637;" horiz-adv-x="666" arabic-form="medial" 
d="M599 212q0 -57 -36 -108q6 -12 98 -12h10q9 0 9 -39v-9q0 -44 -9 -44h-12q-132 0 -183 41q-76 -41 -238 -41h-242q-28 0 -28 44v9q0 39 28 39h75l36 57v555h86v-432q102 124 218 124q73 -1 122 -41q66 -55 66 -143zM412 303q-116 -1 -248 -211h72q272 0 272 116
q0 51 -40 77q-24 17 -56 18z" />
    <glyph glyph-name="unifec5" unicode="&#x638;" horiz-adv-x="740" arabic-form="isolated" 
d="M690 212q-2 -212 -361 -212h-278v92h110h1q9 14 36 57v555h86v-432q101 126 218 124q74 -1 122 -41q66 -55 66 -143zM504 303q-116 0 -249 -211h72q271 0 272 116q0 51 -39 77q-24 17 -56 18zM417 592q18 18 73 72l73 -73l-72 -72q-19 18 -74 73z" />
    <glyph glyph-name="unifec6" unicode="&#x638;" horiz-adv-x="757" arabic-form="final" 
d="M417 592q18 18 73 72l73 -73l-72 -72q-19 18 -74 73zM501 396q74 -1 123 -41q65 -55 65 -143q0 -57 -34 -108q5 -12 97 -12h9q11 0 11 -39v-9q0 -44 -11 -44h-12q-130 0 -181 41q-77 -41 -239 -41h-278v92h110h1q9 14 35 57v555h87v-432q100 125 217 124zM503 303
q-119 -2 -248 -211h72q271 0 272 116q0 51 -39 77q-25 18 -57 18z" />
    <glyph glyph-name="unifec7" unicode="&#x638;" horiz-adv-x="650" arabic-form="initial" 
d="M327 592q18 18 73 72l73 -73q-18 -18 -73 -72zM599 212q0 -212 -361 -212h-242q-28 0 -28 44v9q0 39 28 39h73q10 14 38 57v555h86v-432q100 124 218 124q73 -1 122 -41q66 -55 66 -143zM412 303q-116 -1 -248 -211h72q272 0 272 116q0 51 -40 77q-24 17 -56 18z" />
    <glyph glyph-name="unifec8" unicode="&#x638;" horiz-adv-x="666" arabic-form="medial" 
d="M327 592q18 18 73 72l73 -73q-18 -18 -73 -72zM599 212q0 -57 -36 -108q6 -12 98 -12h10q9 0 9 -39v-9q0 -44 -9 -44h-12q-132 0 -183 41q-76 -41 -238 -41h-242q-28 0 -28 44v9q0 39 28 39h75l36 57v555h86v-432q102 124 218 124q73 -1 122 -41q66 -55 66 -143zM412 303
q-116 -1 -248 -211h72q272 0 272 116q0 51 -40 77q-24 17 -56 18z" />
    <glyph glyph-name="unifec9" unicode="&#x639;" horiz-adv-x="673" arabic-form="isolated" 
d="M317 232q90 15 154 16q46 0 91 -5q-4 -30 -11 -88q-43 1 -59 1q-355 -10 -355 -228q0 -177 260 -177q104 0 204 48q6 -29 19 -87q-100 -49 -228 -49q-188 0 -275 92q-65 66 -65 169q0 196 180 275q-61 70 -61 149q0 34 13 69q14 33 41 62q51 53 142 53q77 0 166 -61
q-11 -25 -34 -75q-75 44 -127 44q-64 0 -94 -48q-15 -25 -15 -51q0 -22 12 -46q11 -23 42 -63z" />
    <glyph glyph-name="unifeca" unicode="&#x639;" horiz-adv-x="593" arabic-form="final" 
d="M293 103q-156 -86 -156 -201q0 -146 212 -146q84 0 172 36q6 -29 19 -87q-84 -37 -196 -37q-130 1 -201 49q-91 60 -91 185q0 158 158 258q-144 84 -144 160q0 53 81 88q54 24 150 24q99 0 152 -23q75 -32 75 -86q0 -71 -159 -170q71 -61 219 -61h13q11 0 11 -39v-9
q0 -44 -11 -44h-13q-153 0 -291 103zM294 212q139 76 138 104q0 25 -136 25t-136 -32q0 -24 134 -97z" />
    <glyph glyph-name="unifecb" unicode="&#x639;" horiz-adv-x="529" arabic-form="initial" 
d="M432 292q-62 51 -123 52q-32 0 -58 -9q-25 -10 -43 -27q-18 -18 -27 -40q-9 -21 -9 -47q0 -68 78 -105q11 -6 13 -5q73 18 218 55v-92q-238 -74 -438 -74h-46q-29 0 -29 44v9q0 39 29 39h136h4q-1 1 -2 3q-12 13 -23 29q-28 42 -27 102q0 82 44 138q24 29 59 48
q47 25 108 24q103 0 169 -69z" />
    <glyph glyph-name="unifecc" unicode="&#x639;" horiz-adv-x="576" arabic-form="medial" 
d="M381 124q55 -32 187 -32h12q9 0 9 -39v-9q0 -15 -1 -25t-3 -15q-2 -4 -5 -4h-12q-167 0 -258 71l-1 1q0 -1 -1 -1q-83 -71 -299 -71h-12q-29 0 -29 44v9q0 39 29 39h14q171 0 220 32l2 2q-1 0 -2 2q-151 85 -151 168q0 52 79 87q54 25 151 25q94 0 153 -24q74 -32 74 -86
q0 -73 -156 -171l-2 -1q1 0 2 -2zM440 285q0 31 -132 31q-133 0 -134 -32q0 -12 15 -28q36 -37 118 -79h1v0q75 40 116 83q16 16 16 25z" />
    <glyph glyph-name="unifecd" unicode="&#x63a;" horiz-adv-x="673" arabic-form="isolated" 
d="M317 232q90 15 154 16q46 0 91 -5q-4 -30 -11 -88q-43 1 -59 1q-355 -10 -355 -228q0 -177 260 -177q104 0 204 48q6 -29 19 -87q-100 -49 -228 -49q-188 0 -275 92q-65 66 -65 169q0 196 180 275q-61 70 -61 149q0 34 13 69q14 33 41 62q48 50 133 53h9q77 0 166 -61
q-11 -25 -34 -75q-75 44 -127 44q-64 0 -94 -48q-15 -25 -15 -51q0 -22 12 -46q11 -23 42 -63zM280 684l72 72q19 -18 73 -73l-72 -72z" />
    <glyph glyph-name="unifece" unicode="&#x63a;" horiz-adv-x="593" arabic-form="final" 
d="M293 103q-156 -86 -156 -201q0 -146 212 -146q84 0 172 36q6 -29 19 -87q-84 -37 -196 -37q-130 1 -201 49q-91 60 -91 185q0 158 158 258q-144 84 -144 160q0 53 81 88q53 23 144 24h6q99 0 152 -23q75 -32 75 -86q0 -71 -159 -170q71 -61 219 -61h13q11 0 11 -39v-9
q0 -44 -11 -44h-13q-153 0 -291 103zM294 212q139 76 138 104q0 25 -136 25t-136 -32q0 -24 134 -97zM216 593q18 19 73 74q18 -19 73 -74l-73 -73q-18 19 -73 73z" />
    <glyph glyph-name="unifecf" unicode="&#x63a;" horiz-adv-x="532" arabic-form="initial" 
d="M432 292q-62 51 -123 52q-32 0 -58 -9q-25 -10 -43 -27q-18 -18 -27 -40q-9 -21 -9 -47q0 -68 78 -105q11 -6 13 -5q73 18 218 55v-92q-238 -74 -438 -74h-46q-29 0 -29 44v9q0 39 29 39h136h4q-1 1 -2 3q-12 13 -23 29q-28 42 -27 102q0 82 44 138q24 29 59 48
q44 24 102 24q3 1 6 0q103 0 169 -69zM212 611l73 73l73 -73q-18 -19 -73 -73z" />
    <glyph glyph-name="unifed0" unicode="&#x63a;" horiz-adv-x="576" arabic-form="medial" 
d="M381 124q55 -32 187 -32h11q10 0 10 -39v-9q0 -15 -1 -25t-4 -15q-2 -4 -5 -4h-11q-167 0 -259 71l-1 1v-1q-83 -71 -300 -71h-12q-28 0 -28 44v9q0 39 28 39h14q171 0 221 32q0 1 1 2l-1 2q-152 85 -152 168q0 52 79 87q54 24 150 25h1q95 0 154 -24q74 -32 74 -86
q0 -73 -156 -171q-1 0 -2 -1zM440 285q0 31 -133 31t-134 -32q0 -12 16 -28q36 -37 117 -79h1h1q74 40 116 83q16 16 16 25zM233 583l73 73q18 -19 73 -74q-18 -18 -72 -73z" />
    <glyph glyph-name="unifed1" unicode="&#x641;" horiz-adv-x="911" arabic-form="isolated" 
d="M599 680q18 18 73 72q18 -18 72 -73l-72 -72zM859 236q-1 -141 -68 -191q-60 -45 -211 -45h-165q-366 0 -366 243q0 68 28 129q26 -12 79 -35q-17 -42 -17 -81q0 -164 269 -164h183q189 0 189 99v9q-46 -15 -100 -15q-161 0 -164 136q0 22 4 42q15 78 57 121
q40 42 100 43q2 1 3 1q43 0 74 -21q85 -55 101 -209q4 -33 4 -62zM599 335q0 -63 88 -63q42 0 85 13q-7 59 -25 99q-25 53 -70 53q-52 0 -73 -66q-5 -19 -5 -36z" />
    <glyph glyph-name="unifed2" unicode="&#x641;" horiz-adv-x="997" arabic-form="final" 
d="M677 616l73 73l73 -73q-18 -19 -72 -73q-19 18 -74 73zM697 320q-30 -29 -30 -58q0 -30 32 -67q37 -43 56 -43t56 43q32 37 32 66q0 37 -46 74q-25 21 -45 21t-55 -36zM753 64q-93 -64 -321 -64h-17q-366 0 -366 243q0 68 28 129q26 -12 79 -35q-17 -42 -17 -81
q0 -164 281 -164q184 0 239 16q-79 67 -79 160q0 87 99 156q34 23 74 24h2q41 0 70 -18q106 -64 106 -169q0 -86 -80 -153q46 -16 134 -16h16q11 0 11 -39v-9q0 -44 -11 -44h-14q-148 0 -234 64z" />
    <glyph glyph-name="unifed3" unicode="&#x641;" horiz-adv-x="452" arabic-form="initial" 
d="M223 186q-163 0 -164 135q0 22 4 42q14 79 56 122q40 41 98 43h6q42 0 73 -20q84 -55 101 -209q4 -33 4 -62q0 -141 -68 -192q-60 -45 -210 -45h-127q-28 0 -28 44v9q0 39 28 39h132q191 0 195 99v9q-47 -14 -100 -14zM141 335q0 -63 88 -62q43 0 86 13q-7 58 -26 98
q-25 54 -69 54q-52 0 -73 -67q-6 -19 -6 -36zM136 680q19 18 73 72q19 -18 74 -73q-19 -18 -73 -72q-18 18 -74 73z" />
    <glyph glyph-name="unifed4" unicode="&#x641;" horiz-adv-x="511" arabic-form="medial" 
d="M211 320q-30 -29 -30 -58q0 -30 32 -67q36 -43 56 -43q19 0 56 43q32 37 32 66q0 37 -45 74q-26 21 -46 21t-55 -36zM267 64q-87 -64 -250 -64h-20q-29 0 -29 44v9q0 39 29 39h20q116 0 156 16q-80 67 -80 160q0 87 99 156q35 24 76 24h1q40 0 71 -18q105 -64 105 -169
q0 -86 -81 -153q47 -16 136 -16h16q9 0 9 -39v-9q0 -44 -9 -44h-16q-147 0 -233 64zM193 615q19 18 74 73l73 -73l-73 -73q-18 18 -74 73z" />
    <glyph glyph-name="unifed5" unicode="&#x642;" horiz-adv-x="756" arabic-form="isolated" 
d="M373 -230q-322 0 -322 290q0 105 45 215q27 -11 80 -32q-37 -95 -37 -182q0 -203 238 -202q228 0 244 193v2q-45 -14 -99 -14q-162 -1 -165 136q0 21 4 41q17 80 57 122q42 42 104 42q15 1 29 -2q24 -4 45 -18q85 -56 104 -213q4 -36 4 -68q-1 -37 -5 -70
q-38 -240 -326 -240zM440 189q0 -63 88 -62q43 0 85 13q-6 58 -25 97q-24 55 -69 55q-52 0 -73 -68q-6 -18 -6 -35zM521 536l73 73l73 -73q-18 -19 -72 -73q-19 18 -74 73zM359 536q18 18 72 73l73 -73q-18 -19 -72 -73q-19 18 -73 73z" />
    <glyph glyph-name="unifed6" unicode="&#x642;" horiz-adv-x="763" arabic-form="final" 
d="M373 -260q-322 0 -322 291q0 104 45 214q27 -11 80 -33q-37 -95 -37 -180q0 -204 238 -204q231 0 247 172h-75q-182 0 -182 149q0 61 25 115q47 99 143 99q13 0 25 -3q128 -22 149 -268h58q10 0 10 -39v-9q0 -44 -10 -44h-59q-28 -260 -335 -260zM625 92q-11 176 -97 176
q-47 0 -68 -60q-9 -27 -9 -51q0 -65 93 -65h81zM525 512q19 19 74 73l73 -73q-19 -18 -73 -72q-18 18 -74 72zM363 512q18 19 73 73l73 -73q-18 -18 -73 -72q-18 18 -73 72z" />
    <glyph glyph-name="unifed7" unicode="&#x642;" horiz-adv-x="453" arabic-form="initial" 
d="M223 186q-163 0 -164 135q0 22 4 42q14 79 56 122t104 43q14 0 27 -2q26 -5 46 -18q84 -55 101 -209q4 -33 4 -62q0 -141 -68 -192q-60 -45 -210 -45h-127q-28 0 -28 44v9q0 39 28 39h132q191 0 195 99v9q-47 -14 -100 -14zM141 335q0 -63 88 -62q43 0 86 13
q-7 58 -26 98q-25 54 -69 54q-52 0 -73 -67q-6 -19 -6 -36zM219 678l73 73q18 -18 73 -74q-18 -18 -73 -72zM56 678q19 18 73 73l74 -74q-19 -18 -74 -72z" />
    <glyph glyph-name="unifed8" unicode="&#x642;" horiz-adv-x="511" arabic-form="medial" 
d="M211 320q-30 -29 -30 -58q0 -30 32 -67q36 -43 56 -43q19 0 56 43q32 37 32 66q0 37 -45 74q-26 21 -46 21t-55 -36zM267 64q-87 -64 -250 -64h-20q-29 0 -29 44v9q0 39 29 39h20q116 0 156 16q-80 67 -80 160q0 87 99 156q36 24 77 24q15 0 29 -3q23 -4 42 -15
q105 -64 105 -169q0 -86 -81 -153q47 -16 136 -16h16q9 0 9 -39v-9q0 -44 -9 -44h-16q-147 0 -233 64zM271 611l73 73q18 -19 72 -74q-18 -18 -72 -73q-18 19 -73 74zM108 611q18 18 72 73l74 -74l-73 -73q-18 19 -73 74z" />
    <glyph glyph-name="unifed9" unicode="&#x643;" horiz-adv-x="999" arabic-form="isolated" 
d="M421 92q355 0 355 144v467h89v-466q0 -237 -434 -237v0q-381 0 -381 243q0 68 27 129q27 -12 79 -35q-16 -41 -16 -80q0 -165 281 -165zM343 331q47 -5 81 -6q53 0 80 11q27 12 28 35q0 21 -16 34q-15 14 -45 18q-107 16 -106 106q3 103 197 118v-64q-130 -12 -130 -58
q0 -37 69 -48q97 -14 96 -104q0 -61 -59 -93q-38 -20 -105 -20q-40 0 -90 7v64z" />
    <glyph glyph-name="unifeda" unicode="&#x643;" horiz-adv-x="1000" arabic-form="final" 
d="M343 331q47 -5 81 -6q53 0 80 11q27 12 28 35q0 21 -16 34q-15 14 -45 18q-107 16 -106 106q3 103 197 118v-64q-130 -12 -130 -58q0 -37 69 -48q97 -14 96 -104q0 -61 -59 -93q-38 -20 -105 -20q-40 0 -90 7v64zM817 106q-96 -106 -386 -106v0q-381 0 -381 243
q0 68 27 129q27 -12 79 -35q-16 -41 -16 -80q0 -165 281 -165q355 0 355 144v467h89v-466q0 -145 128 -145h11q11 0 11 -36v-12q0 -44 -11 -44h-15q-138 0 -172 106z" />
    <glyph glyph-name="unifedb" unicode="&#x643;" horiz-adv-x="475" arabic-form="initial" 
d="M110 504q130 -109 191 -174q65 -70 63 -155q-3 -175 -296 -175h-71q-29 0 -29 44v9q0 39 29 39h71q207 0 207 96q0 48 -52 97q-76 71 -136 119q-58 44 -58 93q0 65 71 91q115 44 346 132v-91q-84 -31 -336 -125v0z" />
    <glyph glyph-name="unifedc" unicode="&#x643;" horiz-adv-x="513" arabic-form="medial" 
d="M110 504q130 -109 191 -174q40 -44 64 -113q44 -125 144 -125h8q11 0 11 -39v-9q0 -44 -11 -44h-8q-108 0 -174 88q-57 -88 -267 -88h-71q-29 0 -29 44v9q0 39 29 39h71q207 0 207 96q0 48 -52 97q-76 71 -136 119q-58 44 -58 93q0 65 71 91q115 44 346 132v-91
q-84 -31 -336 -125z" />
    <glyph glyph-name="unifedd" unicode="&#x644;" horiz-adv-x="720" arabic-form="isolated" 
d="M556 50q1 163 2 654h86v-555q0 -69 -5 -135q-21 -274 -288 -274q-300 0 -299 280q0 101 41 203q26 -11 79 -32q-33 -86 -33 -172q0 -191 212 -191q205 0 205 222z" />
    <glyph glyph-name="unifede" unicode="&#x644;" horiz-adv-x="763" arabic-form="final" 
d="M557 50q0 163 1 654h86v-507q0 -105 113 -105h11q9 0 9 -36v-12q0 -44 -9 -44h-13q-78 0 -115 37q-12 -297 -289 -297q-300 0 -299 279q0 102 41 204q26 -11 79 -32q-33 -86 -33 -172q0 -191 212 -191q205 0 206 222z" />
    <glyph glyph-name="unifedf" unicode="&#x644;" horiz-adv-x="317" arabic-form="initial" 
d="M-3 0q-29 0 -29 44v9q0 39 29 39h24q134 0 134 125v487h86v-489q0 -215 -222 -215h-22z" />
    <glyph glyph-name="unifee0" unicode="&#x644;" horiz-adv-x="359" arabic-form="medial" 
d="M22 0h-25q-29 0 -29 44v9q0 39 29 39h26q133 0 133 104q1 169 3 508h86v-508q0 -104 108 -104h9q12 0 12 -39v-9q0 -44 -12 -44h-7q-108 0 -159 71q-48 -71 -174 -71z" />
    <glyph glyph-name="unifee1" unicode="&#x645;" horiz-adv-x="621" arabic-form="isolated" 
d="M421 79q65 0 65 69q-1 29 -11 56q-22 53 -79 54q-68 1 -105 -103q86 -76 130 -76zM572 155q0 -71 -35 -118q-35 -49 -111 -49q-51 0 -122 44q-24 15 -52 29q-16 8 -38 8q-77 -1 -76 -238q0 -98 7 -179h-90q-6 88 -6 167v14q2 171 40 247q39 76 107 87q74 185 199 185
q81 1 129 -58q48 -58 48 -139z" />
    <glyph glyph-name="unifee2" unicode="&#x645;" horiz-adv-x="653" arabic-form="final" 
d="M424 80q64 -1 62 69q-1 29 -12 55q-23 53 -78 54q-68 1 -105 -103q85 -75 133 -75zM657 92q10 0 10 -39v-9q0 -44 -10 -44h-8q-61 0 -97 56q-39 -68 -123 -68q-37 0 -92 26q-20 9 -68 38q-29 18 -55 17q-77 -2 -76 -238q0 -98 7 -179h-90q-6 85 -6 181q0 168 40 247
q39 76 107 87q73 185 200 185q80 0 128 -59q30 -38 44 -107q20 -94 81 -94h8z" />
    <glyph glyph-name="unifee3" unicode="&#x645;" horiz-adv-x="520" arabic-form="initial" 
d="M316 79q70 0 70 68q0 33 -10 56q-24 54 -80 54q-69 0 -105 -103q65 -75 125 -75zM147 72q-62 -72 -140 -72h-11q-28 0 -28 44v9q0 39 28 39h8q41 0 80 47q17 21 39 68q65 145 171 145q82 0 130 -59t48 -138q0 -78 -34 -118q-42 -48 -115 -48q-97 0 -176 83z" />
    <glyph glyph-name="unifee4" unicode="&#x645;" horiz-adv-x="551" arabic-form="medial" 
d="M316 79q73 -1 72 69q-1 29 -12 55q-24 54 -81 54q-67 2 -104 -103q64 -75 125 -75zM322 -11q-92 0 -175 83q-62 -72 -140 -72h-11q-28 0 -28 44v9q0 39 28 39h8q47 0 81 47q18 25 38 69q65 144 171 144q81 0 128 -59q34 -43 47 -107q20 -94 79 -94h8q9 0 9 -39v-9
q0 -44 -9 -44h-8q-59 0 -95 56q-42 -67 -131 -67z" />
    <glyph glyph-name="unifee5" unicode="&#x646;" horiz-adv-x="728" arabic-form="isolated" 
d="M647 -73q-75 -152 -283 -152q-313 0 -313 290q0 105 45 215q27 -11 80 -32q-37 -96 -37 -181q0 -203 228 -203q222 0 224 222q0 92 -46 185l87 30q44 -120 44 -235q0 -81 -29 -139zM285 344q18 18 73 72l73 -73l-72 -72q-19 18 -74 73z" />
    <glyph glyph-name="unifee6" unicode="&#x646;" horiz-adv-x="769" arabic-form="final" 
d="M284 308q19 18 73 72q19 -18 74 -73q-19 -18 -73 -72q-18 18 -74 73zM675 28q0 -80 -28 -136q-75 -152 -283 -152q-313 0 -313 291q0 104 45 214q27 -11 80 -33q-37 -95 -37 -180q0 -204 228 -204q222 0 224 223q0 92 -46 185l87 30q9 -29 36 -114q20 -60 96 -60h10
q10 0 10 -36v-12q0 -44 -10 -44h-7q-63 0 -92 28z" />
    <glyph glyph-name="unifee7" unicode="&#x646;" horiz-adv-x="298" arabic-form="initial" 
d="M35 0h-39q-28 0 -28 44v9q0 39 28 39h39q54 0 83 16q42 25 42 104q0 60 -18 133q18 5 55 14q7 2 27 6q24 -77 24 -151q0 -122 -70 -175q-51 -39 -143 -39zM64 523q19 18 73 73q19 -18 74 -73l-73 -73q-18 18 -74 73z" />
    <glyph glyph-name="unifee8" unicode="&#x646;" horiz-adv-x="333" arabic-form="medial" 
d="M348 44q0 -44 -11 -44h-5q-99 0 -136 71q-49 -71 -148 -71h-52q-28 0 -28 44v9q0 39 28 39h49q91 0 103 66q4 18 4 42t-2 47q-1 14 -2 41q11 1 44 5q9 1 37 4q2 -28 8 -115q7 -90 96 -90h4q11 0 11 -43v-5zM87 480l73 73l73 -73q-18 -19 -73 -73z" />
    <glyph glyph-name="unifee9" unicode="&#x647;" horiz-adv-x="471" arabic-form="isolated" 
d="M231 322q-95 -83 -95 -146q0 -84 101 -84q103 0 103 84q0 59 -109 146zM192 473q233 -170 233 -300q0 -94 -82 -145q-39 -25 -105 -26q-61 0 -103 22q-84 41 -84 149q0 103 113 215q-7 6 -22 19q13 17 50 66z" />
    <glyph glyph-name="unifeea" unicode="&#x647;" horiz-adv-x="527" arabic-form="final" 
d="M51 203q0 147 259 226q-1 8 -5 23q21 5 82 17q10 -74 41 -296q12 -81 93 -81h10q10 0 10 -36v-12q0 -44 -10 -44h-12q-137 0 -162 113q-60 -52 -134 -52q-111 0 -155 73q-17 29 -17 69zM320 346q-180 -65 -180 -137q0 -61 80 -61q39 0 77 24q48 29 38 95q-3 22 -11 66
q0 3 -2 14z" />
    <glyph glyph-name="unifeeb" unicode="&#x647;" horiz-adv-x="697" arabic-form="initial" 
d="M48 0h-51q-29 0 -29 44v9q0 39 29 39h132h26q-22 15 -35 29q-38 45 -37 99q0 61 42 111q52 60 133 60q74 0 124 -47q42 -40 43 -101q0 -91 -79 -139q81 -12 104 -12q34 0 53 7q54 21 54 79q2 121 -285 258q15 26 44 77q331 -161 331 -333v-3q-1 -73 -45 -122
q-49 -55 -152 -55q-78 0 -191 36q-122 -36 -211 -36zM311 166q34 33 36 73q0 25 -15 41q-27 30 -69 30q-51 0 -78 -43q-12 -20 -12 -48q0 -32 31 -59q13 -13 30 -20q12 -7 25 -9q8 2 15 7q21 13 37 28z" />
    <glyph glyph-name="unifeec" unicode="&#x647;" horiz-adv-x="496" arabic-form="medial" 
d="M287 -157q1 249 202 249h11q11 0 11 -39v-9q0 -44 -11 -44h-12q-142 0 -123 -211q-21 -19 -61 -59q-171 81 -201 270h-106q-29 0 -29 44v9q0 39 29 39h99q10 200 77 272q41 44 102 44t96 -44q36 -43 36 -120q-2 -85 -67 -161q-67 -79 -156 -83q17 -103 103 -157zM180 92
q59 1 104 50q41 43 41 105q0 65 -49 66q-85 3 -96 -221z" />
    <glyph glyph-name="unifeed" unicode="&#x648;" horiz-adv-x="430" arabic-form="isolated" 
d="M51 -175q217 40 254 182q-60 -8 -76 -8q-182 -1 -182 150q0 60 25 115q48 98 143 98q102 0 146 -114q30 -75 30 -164q0 -280 -309 -338q-10 26 -31 79zM305 101q-10 167 -97 167q-48 0 -68 -60q-9 -28 -9 -52q0 -68 98 -68q37 0 76 13z" />
    <glyph glyph-name="unifeee" unicode="&#x648;" horiz-adv-x="436" arabic-form="final" 
d="M303 0h-74q-182 0 -182 149q0 60 25 115q48 98 143 98q156 0 174 -270h51q11 0 11 -43v-5q0 -44 -11 -44h-57q-38 -204 -301 -254q-10 26 -31 79q216 40 252 175zM305 92q-11 175 -97 176q-47 0 -68 -60q-9 -27 -9 -52q0 -64 93 -64h81z" />
    <glyph glyph-name="unifeef" unicode="&#x649;" horiz-adv-x="752" arabic-form="isolated" 
d="M139 42q0 -203 232 -204q89 0 158 33q37 17 64 45q28 28 28 64q0 28 -39 28q-19 1 -57 1q-125 0 -125 99q0 95 60 160q78 85 219 85h10v-97h-11q-80 0 -133 -36q-53 -37 -54 -92q0 -15 8 -21q9 -7 27 -7h59q119 0 119 -100q0 -145 -144 -211q-84 -38 -192 -38
q-316 0 -316 289q0 108 54 236q26 -10 79 -32q-46 -112 -46 -202z" />
    <glyph glyph-name="unifef0" unicode="&#x649;" horiz-adv-x="752" arabic-form="final" 
d="M755 92q10 0 10 -39v-9q0 -44 -10 -44h-71h-8q24 -18 24 -56q0 -77 -91 -136q-105 -68 -246 -68q-312 0 -312 292q0 96 36 184q27 -10 80 -32q-28 -75 -28 -153q0 -202 224 -203q85 0 157 33q58 26 83 63q11 17 11 33q0 43 -66 43h-76q-29 4 -40 48q-5 20 -5 31t5 13h323
z" />
    <glyph glyph-name="unifef1" unicode="&#x64a;" horiz-adv-x="752" arabic-form="isolated" 
d="M139 42q0 -203 232 -204q89 0 158 33q37 17 64 45q28 28 28 64q0 28 -39 28q-19 1 -57 1q-125 0 -125 99q0 95 60 160q78 85 219 85h10v-97h-11q-80 0 -133 -36q-53 -37 -54 -92q0 -15 8 -21q9 -7 27 -7h59q119 0 119 -100q0 -145 -144 -211q-61 -28 -134 -36
q-28 -2 -58 -2q-316 0 -316 289q0 108 54 236q26 -10 79 -32q-46 -112 -46 -202zM376 -397q19 18 73 73l74 -74q-19 -18 -73 -73q-18 19 -74 74zM214 -397l73 73q18 -19 73 -74l-73 -73q-18 19 -73 74z" />
    <glyph glyph-name="unifef2" unicode="&#x64a;" horiz-adv-x="752" arabic-form="final" 
d="M371 -404q18 18 73 72l73 -73q-18 -18 -73 -72zM208 -404q19 18 73 72q18 -18 74 -73q-19 -18 -74 -72zM755 92q10 0 10 -39v-9q0 -44 -10 -44h-71h-8q24 -18 24 -56q0 -77 -91 -136q-83 -53 -189 -65q-28 -3 -57 -3q-312 0 -312 292q0 96 36 184q27 -10 80 -32
q-28 -75 -28 -153q0 -202 224 -203q85 0 157 33q58 26 83 63q11 17 11 33q0 43 -66 43h-76q-29 4 -40 48q-5 20 -5 31t5 13h323z" />
    <glyph glyph-name="unifef3" unicode="&#x64a;" horiz-adv-x="341" arabic-form="initial" 
d="M35 0h-39q-28 0 -28 44v9q0 39 28 39h39q80 0 108 16q42 25 42 104q0 60 -18 133q27 7 81 20q25 -77 25 -151q0 -122 -70 -175q-20 -16 -51 -25q-47 -14 -117 -14zM152 -159q18 19 72 74q19 -19 73 -74q-18 -18 -72 -73q-18 19 -73 73zM-11 -159q18 19 72 74l74 -74
l-73 -73q-18 19 -73 73z" />
    <glyph glyph-name="unifef4" unicode="&#x64a;" horiz-adv-x="359" arabic-form="medial" 
d="M152 -159q18 19 72 74q19 -19 73 -74q-18 -18 -72 -73q-18 19 -73 73zM-11 -159q18 19 72 74l74 -74l-73 -73q-18 19 -73 73zM372 44q0 -44 -9 -44h-6q-33 0 -60 8q-51 16 -76 63q-49 -71 -173 -71h-52q-28 0 -28 44v9q0 39 28 39h49q116 0 128 66q3 18 3 42t-1 47
q-1 14 -3 41q21 2 83 9q2 -28 8 -115q6 -90 96 -90h4q9 0 9 -43v-5z" />
    <glyph glyph-name="unifef5" unicode="&#xfef5;" horiz-adv-x="609" arabic-form="isolated" 
d="M107 746q-55 7 -102 -47q-16 18 -50 53q59 85 144 72q25 -4 74 -12t110 23l33 -69q-64 -40 -139 -30q-23 3 -70 10zM131 674q144 -348 201 -562q115 36 115 208v384h86v-384q0 -319 -334 -319q-70 0 -112 8v91q85 -11 164 -6q-58 200 -203 533q28 16 83 47z" />
    <glyph glyph-name="unifef6" unicode="&#xfef6;" horiz-adv-x="647" arabic-form="final" 
d="M332 112q115 36 115 208v384h86v-429q0 -183 106 -183h13t9 -39v-9q0 -44 -9 -44h-20q-121 0 -154 113q-81 -112 -279 -112q-70 0 -112 8v91q84 -11 164 -6q-59 199 -203 533q28 16 83 47q144 -348 201 -562zM107 746q-55 7 -102 -47q-16 18 -50 53q59 85 144 72
q25 -4 74 -12t110 23l33 -69q-11 -7 -23 -12q-54 -26 -116 -18q-23 3 -70 10z" />
    <glyph glyph-name="unifef7" unicode="&#xfef7;" horiz-adv-x="609" arabic-form="isolated" 
d="M39 749q-37 29 -37 81q0 44 30 75q34 36 88 36q37 0 71 -21v-65q-31 20 -64 20q-31 0 -48 -17q-15 -14 -15 -34q1 -31 48 -48q7 -2 12 -1l70 14v-63q-40 -10 -161 -39q-10 -2 -42 -10v62q12 2 48 10zM131 674q144 -348 201 -562q115 36 115 208v384h86v-384
q0 -319 -334 -319q-70 0 -112 8v91q85 -11 164 -6q-58 200 -203 533q28 16 83 47z" />
    <glyph glyph-name="unifef8" unicode="&#xfef8;" horiz-adv-x="647" arabic-form="final" 
d="M332 112q115 36 115 208v384h86v-429q0 -183 106 -183h13t9 -39v-9q0 -44 -9 -44h-20q-121 0 -154 113q-81 -112 -279 -112q-70 0 -112 8v91q84 -11 164 -6q-59 199 -203 533q28 16 83 47q144 -348 201 -562zM39 749q-37 29 -37 81q0 44 30 75q34 36 88 36q37 0 71 -21
v-65q-31 20 -64 20q-31 0 -48 -17q-15 -14 -15 -34q1 -31 48 -48q7 -2 12 -1l70 14v-63q-51 -12 -203 -49v62q12 2 48 10z" />
    <glyph glyph-name="unifef9" unicode="&#xfef9;" horiz-adv-x="609" arabic-form="isolated" 
d="M84 -252q-36 29 -36 81q0 44 29 75q35 36 88 36q20 0 38 -5q17 -6 33 -16v-66q-31 21 -64 21q-31 0 -48 -17q-14 -14 -14 -34q1 -31 47 -47q7 -3 12 -2q35 7 71 14v-63q-51 -12 -204 -49v61q12 3 48 11zM130 674q145 -348 202 -562q115 36 115 208v384h86v-384
q0 -319 -335 -319q-65 0 -106 8h-5v91q85 -11 163 -6q-58 200 -202 533q27 16 82 47z" />
    <glyph glyph-name="unifefa" unicode="&#xfefa;" horiz-adv-x="647" arabic-form="final" 
d="M84 -252q-36 29 -36 81q0 44 29 75q35 36 88 36q20 0 38 -5q17 -6 33 -16v-66q-31 21 -64 21q-31 0 -48 -17q-14 -14 -14 -34q1 -31 47 -47q7 -3 12 -2q35 7 71 14v-63q-51 -12 -204 -49v61q12 3 48 11zM332 112q115 36 115 208v384h86v-429q0 -183 106 -183h12
q10 0 10 -39v-9q0 -44 -10 -44h-19q-122 0 -155 113q-81 -112 -279 -112q-65 0 -106 8h-5v91q84 -11 163 -6q-58 199 -202 533q27 16 82 47q145 -348 202 -562z" />
    <glyph glyph-name="unifefb" unicode="&#xfefb;" horiz-adv-x="609" arabic-form="isolated" 
d="M130 674q145 -348 202 -562q115 36 115 208v384h86v-384q0 -319 -335 -319q-69 0 -111 8v91q85 -11 163 -6q-58 200 -202 533q27 16 82 47z" />
    <glyph glyph-name="unifefc" unicode="&#xfefc;" horiz-adv-x="647" arabic-form="final" 
d="M332 112q115 36 115 208v384h86v-429q0 -183 106 -183h12q10 0 10 -39v-9q0 -44 -10 -44h-19q-122 0 -155 113q-81 -112 -279 -112q-69 0 -111 8v91q84 -11 163 -6q-58 199 -202 533q27 16 82 47q145 -348 202 -562z" />
    <glyph glyph-name=".notdef" horiz-adv-x="543" 
d="M51 102h307v524h-307v-524zM0 677h410v-626h-410v626z" />
    <glyph glyph-name=".null" 
 />
    <glyph glyph-name="nonmarkingreturn" unicode="&#xd;" 
 />
    <glyph glyph-name="space" unicode=" " horiz-adv-x="280" 
 />
    <glyph glyph-name="exclam" unicode="!" horiz-adv-x="320" 
d="M92 70q0 28 20 48q18 18 41 20h7q28 0 48 -20t20 -48q0 -27 -20 -47t-48 -20q-24 0 -43 15q-13 11 -20 26q-5 12 -5 26zM107 704h109q-4 -120 -13 -480h-43h-40q-4 120 -13 480z" />
    <glyph glyph-name="quotedbl" unicode="&#x22;" horiz-adv-x="328" 
d="M139 700q-4 -45 -15 -179h-56v174v73h71v-68zM273 700q-3 -45 -14 -179h-56q0 44 1 178v69h69v-68z" />
    <glyph glyph-name="numbersign" unicode="#" horiz-adv-x="637" 
d="M358 205h-132q-10 -51 -40 -205h-71q10 51 40 205h-120v68h133q8 45 34 178h-129v69h143l40 208h72q-10 -52 -41 -208h132q10 52 41 208h72q-10 -52 -41 -208h102v-69h-116q-8 -45 -34 -178h113v-68h-126q-10 -51 -40 -205h-72q10 51 40 205zM239 273h132q9 45 34 178
h-132q-8 -45 -34 -178z" />
    <glyph glyph-name="dollar" unicode="$" horiz-adv-x="575" 
d="M428 188q0 22 -8 41q-7 19 -24 35q-16 17 -43 31t-66 27q-47 14 -85 34q-38 19 -65 45q-26 26 -40 60t-14 79q0 41 13 75q12 34 35 60q24 25 57 41q32 16 74 20v110h74v-110q84 -12 131 -70q47 -59 47 -162h-92q0 33 -8 61t-24 49q-15 21 -39 32q-23 11 -53 11
q-31 0 -54 -8q-24 -9 -39 -24q-14 -15 -22 -37q-7 -21 -7 -47q0 -24 6 -43q7 -19 24 -35t44 -31q27 -14 69 -28q48 -15 85 -34q38 -19 64 -45q25 -25 39 -59q13 -34 13 -78q0 -43 -13 -78q-14 -34 -39 -59t-61 -40q-35 -15 -79 -19v-96h-75v96q-38 3 -74 17q-35 14 -63 40
q-28 27 -44 68q-17 40 -17 98h93q0 -43 12 -71t32 -44q21 -17 46 -23q25 -7 50 -7q33 0 59 8q26 9 44 23q18 16 27 38q10 21 10 49z" />
    <glyph glyph-name="percent" unicode="%" horiz-adv-x="750" 
d="M52 588q0 31 11 58q10 27 29 48q20 21 47 33q28 12 62 12q35 0 63 -12t47 -33t29 -48q11 -27 11 -58v-39q0 -30 -10 -57q-10 -28 -30 -48q-11 -12 -26 -21q-10 -6 -21 -11q-27 -12 -61 -12q-35 0 -63 12t-48 32q-19 20 -29 48q-11 27 -11 57v39zM121 549q0 -17 5 -33
q6 -16 15 -28q11 -13 26 -20q15 -8 36 -8q20 0 35 8q14 7 24 19q10 13 15 29q4 16 4 33v39q0 17 -5 34q-4 16 -15 29q-9 12 -24 20q-16 7 -36 7t-35 -7q-15 -8 -25 -20q-9 -13 -15 -29q-5 -17 -5 -34v-39zM407 179q0 30 10 57q11 28 30 48q11 12 26 22q10 6 21 10
q27 12 62 12t63 -12t46 -32q20 -20 30 -48q10 -27 10 -57v-39q0 -32 -10 -59t-30 -48q-18 -20 -46 -32q-27 -12 -62 -12t-63 12q-27 12 -47 32q-19 21 -30 48q-10 27 -10 59v39zM476 140q0 -18 5 -34q5 -17 15 -29q10 -13 25 -20q15 -8 36 -8q20 0 35 8q15 7 24 20
q11 12 15 29q5 16 5 34v39q0 17 -5 33t-15 28q-9 13 -25 20q-15 8 -35 8t-35 -8q-15 -7 -25 -20q-10 -12 -15 -28t-5 -33v-39zM224 55q-14 8 -53 33q89 142 356 569q13 -8 52 -33q-89 -142 -355 -569z" />
    <glyph glyph-name="ampersand" unicode="&#x26;" horiz-adv-x="636" 
d="M51 196q0 32 10 59t28 50q19 24 45 46q26 21 58 44q-19 22 -34 42q-15 21 -26 41q-11 21 -16 41q-6 21 -6 42q0 43 13 75q13 33 37 56t58 34q33 12 74 12q40 0 72 -13q32 -12 55 -33q22 -21 34 -49t12 -59q0 -27 -7 -48q-7 -22 -21 -41q-13 -19 -31 -36t-39 -34
q-19 -13 -55 -40q40 -48 161 -193q16 30 25 66q10 37 10 78h83q0 -63 -15 -116q-15 -52 -47 -96q35 -41 104 -124h-110q-13 14 -49 57q-19 -17 -42 -29q-22 -13 -47 -21q-24 -8 -49 -13q-25 -4 -50 -4q-54 0 -98 15t-75 43q-30 27 -46 65t-16 83zM286 65q36 0 70 15
q35 15 64 41l-177 213q-5 -4 -21 -15q-27 -20 -43 -39q-15 -19 -23 -35t-11 -29q-2 -12 -2 -20q0 -27 9 -51q8 -24 26 -41q18 -18 45 -28q27 -11 63 -11zM203 564q0 -28 16 -57q16 -30 42 -63q18 12 53 37q15 11 28 21q12 10 21 22q8 12 12 27q5 14 5 33q0 15 -6 29t-18 24
q-11 11 -27 18q-17 7 -37 7q-23 0 -39 -8q-17 -7 -28 -21q-11 -13 -17 -31q-5 -18 -5 -38z" />
    <glyph glyph-name="quotesingle" unicode="'" horiz-adv-x="179" 
d="M127 712q-3 -46 -11 -184h-64v176v64h75v-56z" />
    <glyph glyph-name="parenleft" unicode="(" horiz-adv-x="350" 
d="M67 296q0 72 11 136t30 117q20 55 45 99q26 44 52 79q28 33 55 57q28 24 52 37q6 -20 19 -61q-30 -22 -60 -62q-31 -39 -55 -97q-25 -57 -41 -133t-16 -172v-7q0 -94 16 -170t41 -135q24 -57 55 -98q30 -41 60 -65q-7 -18 -19 -56q-24 13 -52 37q-27 24 -55 58
q-26 35 -52 79q-25 44 -45 97q-19 55 -30 118t-11 137v5z" />
    <glyph glyph-name="parenright" unicode=")" horiz-adv-x="356" 
d="M284 291q0 -74 -12 -137t-31 -118q-19 -53 -44 -97t-53 -79q-27 -34 -54 -58q-28 -24 -51 -37q-7 19 -20 56q29 23 60 63q30 40 55 99q25 58 41 135t16 171v7q0 96 -17 172q-17 77 -42 136q-26 59 -56 99t-57 62q7 19 20 56q23 -13 51 -37q27 -24 54 -57q28 -35 53 -79
t44 -99q19 -53 31 -117t12 -136v-5z" />
    <glyph glyph-name="asterisk" unicode="*" horiz-adv-x="441" 
d="M165 492q-38 11 -151 44q6 19 23 76q38 -14 151 -56l-4 172h76q-1 -44 -5 -175q37 14 149 55q5 -19 23 -76q-39 -11 -154 -45q25 -34 99 -135q-15 -12 -62 -48q-23 36 -93 144q-23 -35 -90 -140q-16 11 -63 45q26 35 101 139z" />
    <glyph glyph-name="plus" unicode="+" horiz-adv-x="580" 
d="M335 391h203v-88h-203v-230h-93v230h-203v88h203v212h93v-212z" />
    <glyph glyph-name="comma" unicode="," horiz-adv-x="201" 
d="M154 36q0 -23 -6 -48q-5 -24 -17 -48q-11 -24 -27 -46t-37 -39q-17 12 -52 36q23 33 36 68q13 34 13 75v75h90v-73z" />
    <glyph glyph-name="hyphen" unicode="-" horiz-adv-x="283" 
d="M263 272h-244v75h244v-75z" />
    <glyph glyph-name="period" unicode="." horiz-adv-x="320" 
d="M92 70q0 28 20 48t48 20t48 -20t20 -48q0 -27 -20 -47t-48 -20q-24 0 -43 15q-13 11 -20 26q-5 12 -5 26z" />
    <glyph glyph-name="slash" unicode="/" horiz-adv-x="422" 
d="M88 -63h-79q76 198 304 791h79q-76 -198 -304 -791z" />
    <glyph glyph-name="zero" unicode="0" horiz-adv-x="575" 
d="M219 300q0 -30 21 -50q10 -11 23 -16t28 -5q30 0 51 21q10 10 15 23q5 12 5 27t-5 27q-5 13 -15 23q-21 21 -51 21q-15 0 -28 -5q-13 -6 -23 -16q-21 -20 -21 -50zM179 417q12 12 25 21q12 9 26 14q28 12 61 12q21 0 41 -5q19 -5 37 -16q18 -10 33 -26q23 -23 35 -51
t12 -60q0 -65 -47 -112q-12 -11 -24 -20q-13 -9 -27 -15q-14 -5 -29 -8t-31 -3q-33 0 -61 12q-9 3 -18 9q-9 5 -17 11l-16 14q-23 24 -35 52q-11 27 -11 60q0 32 11 60q12 28 35 51z" />
    <glyph glyph-name="one" unicode="1" horiz-adv-x="358" 
d="M155 688q102 -224 102 -544v-138h-89v140q0 321 -96 513q28 10 83 29z" />
    <glyph glyph-name="two" unicode="2" horiz-adv-x="575" 
d="M175 549q31 -86 137 -86q54 0 78 47q28 53 28 174h90q-1 -38 -3 -70q-9 -128 -54 -184q-49 -61 -137 -61q-67 0 -104 24v-4q17 -125 17 -243v-138h-90v140q0 320 -95 513q28 9 82 29q13 -36 51 -141z" />
    <glyph glyph-name="three" unicode="3" horiz-adv-x="635" 
d="M170 393q16 -125 16 -244v-138h-89v140q0 320 -95 513q27 9 82 29q13 -39 55 -157q21 -62 96 -62q79 -1 76 128q0 20 -1 59q20 0 79 2q1 -18 2 -72q3 -120 79 -121q34 0 48 30q10 22 12 48q4 55 4 81v66h89q-1 -16 -1 -65q0 -28 -3 -73q-15 -179 -146 -178q-75 0 -124 56
q0 1 -1 2q-1 -1 -1 -2q-47 -57 -106 -57q-49 0 -69 16l-3 3q0 -1 1 -4z" />
    <glyph glyph-name="four" unicode="4" horiz-adv-x="575" 
d="M79 176v5q0 118 196 205q-155 31 -155 154q0 45 24 79q56 82 198 84h6q31 0 66 -5q-2 -30 -6 -91q-25 3 -47 3q-141 1 -141 -79q-1 -71 178 -85q1 -31 1 -92q-232 -93 -227 -174q4 -63 194 -62h97q0 -23 1 -92h-101q-279 1 -284 150z" />
    <glyph glyph-name="five" unicode="5" horiz-adv-x="575" 
d="M276 528q-136 -145 -136 -269q0 -77 52 -117q42 -32 110 -32q65 0 106 48q31 36 30 104q0 142 -162 266zM174 608q13 19 55 79q297 -189 297 -436q0 -138 -90 -194q-62 -38 -136 -38q-83 0 -148 36q-100 54 -100 191v4q2 173 149 337z" />
    <glyph glyph-name="six" unicode="6" horiz-adv-x="575" 
d="M451 10q-60 248 -66 557q-85 -23 -169 -23q-99 0 -191 41v106q99 -46 214 -46q111 0 228 47q6 -439 79 -682h-95z" />
    <glyph glyph-name="seven" unicode="7" horiz-adv-x="575" 
d="M565 651q-159 -319 -229 -639h-84q-70 320 -229 639q28 14 84 43q134 -287 187 -524q53 238 187 524q28 -14 84 -43z" />
    <glyph glyph-name="eight" unicode="8" horiz-adv-x="575" 
d="M561 53l-84 -42q-134 286 -187 524q-53 -238 -187 -524l-84 42q159 319 229 640h84q70 -320 229 -640z" />
    <glyph glyph-name="nine" unicode="9" horiz-adv-x="575" 
d="M257 302q-194 0 -194 176q0 72 35 129q61 98 166 98q184 0 197 -250q11 -221 17 -434h-86q-2 79 -7 315q-68 -34 -128 -34v0zM253 395q53 0 117 32q0 3 -1 11q-14 169 -106 169q-56 0 -89 -45q-29 -40 -29 -82q0 -85 108 -85z" />
    <glyph glyph-name="colon" unicode=":" horiz-adv-x="320" 
d="M92 505q0 28 20 48t48 20t48 -20t20 -48t-20 -48t-48 -20q-24 0 -43 16q-13 11 -20 27q-5 11 -5 25zM92 70q0 28 20 48t48 20t48 -20t20 -48q0 -27 -20 -47t-48 -20q-24 0 -43 15q-13 11 -20 26q-5 12 -5 26z" />
    <glyph glyph-name="semicolon" unicode=";" horiz-adv-x="216" 
d="M76 512q0 28 20 48t48 20t47 -20q20 -20 20 -48t-20 -48q-19 -20 -47 -20h-8q-20 2 -35 16q-13 11 -20 26q-5 11 -5 26zM160 36q0 -23 -6 -48q-6 -24 -17 -48t-27 -46t-37 -39q-18 12 -53 36q24 33 37 68q12 34 12 75v75h75h16v-73z" />
    <glyph glyph-name="less" unicode="&#x3c;" horiz-adv-x="520" 
d="M132 322q78 -32 313 -126v-99q-102 48 -409 190v73q102 47 409 189v-98q-78 -32 -313 -129z" />
    <glyph glyph-name="equal" unicode="=" horiz-adv-x="562" 
d="M493 407h-417v81h417v-81zM493 200h-417v80h417v-80z" />
    <glyph glyph-name="greater" unicode="&#x3e;" horiz-adv-x="535" 
d="M397 325q-82 32 -330 130v94q107 -47 427 -189v-72q-107 -48 -427 -190v96q83 33 330 131z" />
    <glyph glyph-name="question" unicode="?" horiz-adv-x="484" 
d="M179 205q0 36 5 61q4 26 14 47t26 41q16 19 40 44q17 18 33 33q16 16 27 33q12 16 20 36q7 20 7 45q0 52 -28 82q-27 30 -80 30q-22 0 -42 -6q-21 -6 -37 -18q-15 -12 -25 -31q-9 -18 -9 -45h-93q1 43 17 77q16 33 43 56q28 23 65 36q38 12 81 12q48 0 85 -13t63 -38
q25 -25 39 -60q13 -35 13 -79q0 -34 -10 -64q-11 -29 -29 -56q-17 -27 -40 -50q-23 -24 -47 -46q-27 -26 -37 -58q-9 -32 -9 -69h-42h-50zM175 47q0 22 13 37q14 16 41 16q1 0 1 -1q26 0 40 -15t14 -37q0 -23 -14 -38q-14 -14 -41 -14t-41 14q-13 15 -13 38z" />
    <glyph glyph-name="at" unicode="@" horiz-adv-x="920" 
d="M868 251q-2 -31 -8 -62q-5 -32 -16 -61q-10 -28 -26 -54q-17 -25 -39 -44q-22 -18 -51 -29t-65 -11q-47 0 -77 22t-43 62q-27 -42 -62 -63q-34 -21 -72 -21q-37 0 -64 16q-27 15 -45 44q-16 29 -23 69q-6 40 -2 89q6 67 26 120q20 52 50 89q29 38 65 58t75 20q27 0 48 -5
q21 -4 37 -11q17 -7 31 -17t29 -21q-9 -92 -27 -277q-2 -36 3 -59q4 -22 14 -35t23 -17q12 -4 24 -4q31 0 54 16q24 15 40 43q16 27 25 64t11 79q5 93 -13 167q-17 74 -56 126q-39 51 -102 78t-150 27q-78 0 -142 -29q-64 -30 -109 -84q-45 -55 -71 -130t-30 -167
q-5 -94 15 -168q19 -75 59 -127q41 -52 103 -80q61 -28 141 -28q22 0 45 3q23 2 44 8q22 5 42 12q19 8 34 17q7 -20 19 -58q-17 -11 -40 -19t-48 -14q-24 -6 -50 -9q-25 -3 -48 -3q-95 0 -169 33q-74 32 -125 93q-50 60 -74 146q-21 73 -21 161v33q5 102 37 190
q32 87 87 151t132 100t171 36q96 0 170 -33t122 -94q49 -60 72 -146q20 -72 20 -159v-33zM355 208q-7 -71 13 -109t64 -38q13 0 27 6q14 5 28 17q13 12 26 31q12 18 23 45v4q8 84 23 252q-12 7 -27 11q-16 4 -33 4q-27 0 -51 -14t-44 -42q-19 -28 -32 -70q-12 -41 -17 -97z
" />
    <glyph glyph-name="A" unicode="A" horiz-adv-x="668" 
d="M487 190h-306q-17 -47 -68 -190h-99q70 182 278 728h84q70 -182 279 -728h-99q-17 48 -69 190zM211 269h247l-124 340q-31 -85 -123 -340z" />
    <glyph glyph-name="B" unicode="B" horiz-adv-x="637" 
d="M84 0v728h239q56 0 100 -11q44 -12 74 -36q31 -23 47 -60q16 -36 16 -87t-28 -90q-29 -40 -80 -61q31 -8 55 -25t40 -39q16 -23 25 -51q8 -28 8 -58q0 -51 -17 -90q-18 -40 -49 -67q-31 -26 -76 -39q-45 -14 -99 -14h-255zM180 340v-261h159q34 0 61 9t45 25q19 18 29 42
t10 54t-8 55q-8 24 -26 41q-17 17 -44 26q-26 9 -62 9h-164zM180 417h145q31 0 57 8t43 23q19 16 29 37q10 22 10 50q0 60 -35 87t-106 27h-143v-232z" />
    <glyph glyph-name="C" unicode="C" horiz-adv-x="667" 
d="M620 231q-6 -51 -25 -96q-19 -44 -54 -76q-33 -32 -83 -51q-49 -18 -114 -18q-64 0 -117 24q-52 24 -90 68q-37 45 -57 107t-20 138v73q0 76 20 139q20 62 59 106q37 44 92 69q54 24 121 24q62 0 110 -18q47 -18 80 -51q34 -32 53 -76q20 -45 25 -99h-96q-6 38 -17 68
q-12 31 -32 53q-20 21 -50 33q-30 11 -73 11q-48 0 -85 -19q-36 -19 -62 -52q-24 -34 -37 -82q-12 -47 -12 -105v-74q0 -54 11 -101q12 -46 34 -82q23 -35 59 -55q36 -21 84 -21q46 0 78 12q31 11 51 31q22 21 33 51t18 69h96z" />
    <glyph glyph-name="D" unicode="D" horiz-adv-x="672" 
d="M84 0v728h206q72 0 131 -24t101 -68q42 -45 66 -108q23 -64 23 -143v-43q0 -79 -23 -142q-24 -64 -67 -108q-42 -44 -103 -68t-137 -24h-197zM180 649v-570h101q59 0 103 18q44 19 73 54q30 34 44 82q15 49 15 109v45q0 62 -15 111t-44 82q-29 34 -71 52q-42 17 -96 17
h-110z" />
    <glyph glyph-name="E" unicode="E" horiz-adv-x="582" 
d="M496 336h-316v-257h367v-79h-463v728h458v-79h-362v-234h316v-79z" />
    <glyph glyph-name="F" unicode="F" horiz-adv-x="566" 
d="M486 321h-306v-321h-96v728h452v-79h-356v-249h306v-79z" />
    <glyph glyph-name="G" unicode="G" horiz-adv-x="697" 
d="M622 96q-10 -16 -29 -34q-18 -18 -49 -34q-30 -16 -74 -27t-106 -11q-66 0 -122 24q-55 23 -96 67q-40 44 -63 109q-22 64 -22 146v56q0 82 19 146q20 64 56 109q38 44 93 67q54 24 124 24q63 0 110 -17t80 -46q33 -30 53 -71q19 -41 26 -89h-96q-6 29 -17 55
q-12 26 -33 46q-20 20 -50 32q-30 11 -72 11q-51 0 -88 -18q-37 -19 -61 -53q-24 -35 -36 -84t-12 -111v-57q0 -64 15 -113q16 -50 43 -84q27 -35 65 -53q39 -18 85 -18q39 0 66 6q28 5 46 13q19 8 31 17q11 9 19 17v163h-169v79h264v-267z" />
    <glyph glyph-name="H" unicode="H" horiz-adv-x="730" 
d="M644 0h-96v336h-368v-336h-96v728h96v-313h368v313h96v-728z" />
    <glyph glyph-name="I" unicode="I" horiz-adv-x="279" 
d="M188 0h-96v728h96v-728z" />
    <glyph glyph-name="J" unicode="J" horiz-adv-x="565" 
d="M389 728h97v-516q0 -53 -17 -95t-48 -70q-30 -28 -73 -42q-42 -15 -92 -15q-51 0 -93 13t-72 38q-31 27 -47 67q-17 40 -17 93h96q0 -34 10 -59q10 -26 27 -42t42 -24t54 -8q28 0 53 10q24 9 43 27q17 18 27 45t10 62v516z" />
    <glyph glyph-name="K" unicode="K" horiz-adv-x="642" 
d="M269 339q-22 -24 -89 -93v-246h-96v728h96v-360l80 88l244 272h116q-72 -80 -287 -321q78 -102 310 -407h-115q-65 85 -259 339z" />
    <glyph glyph-name="L" unicode="L" horiz-adv-x="551" 
d="M181 79h345v-79h-442v728h97v-649z" />
    <glyph glyph-name="M" unicode="M" horiz-adv-x="894" 
d="M208 728q60 -148 239 -594q59 149 237 594h125v-728h-96v284q2 76 9 305q-60 -147 -239 -589h-74q-59 147 -238 588q2 -76 9 -304v-284h-96v728h124z" />
    <glyph glyph-name="N" unicode="N" horiz-adv-x="730" 
d="M644 0h-96q-92 140 -367 561v-561h-97v728h97q92 -141 367 -564v564h96v-728z" />
    <glyph glyph-name="O" unicode="O" horiz-adv-x="704" 
d="M644 340q0 -81 -20 -146q-21 -65 -59 -110q-38 -46 -92 -70t-121 -24q-64 0 -118 24t-93 70q-39 45 -60 110q-22 65 -22 146v47q0 81 22 146q21 66 59 111q39 45 93 70q54 24 119 24q66 0 120 -24q55 -25 92 -70q39 -45 60 -111q20 -65 20 -146v-47zM549 388
q0 64 -13 114t-39 85q-25 33 -62 51t-83 18q-45 0 -82 -18q-36 -18 -62 -51q-25 -35 -39 -85t-14 -114v-48q0 -65 14 -115t40 -85q26 -33 63 -51q36 -17 80 -17q48 0 84 17q36 18 61 51q26 35 39 85t13 115v48z" />
    <glyph glyph-name="P" unicode="P" horiz-adv-x="646" 
d="M180 285v-285h-96v728h269q62 0 110 -16q47 -17 79 -47q33 -29 49 -70q17 -41 17 -90q0 -52 -17 -93q-16 -41 -49 -69q-32 -28 -79 -43q-48 -15 -110 -15h-173zM180 364h173q42 0 72 10q31 10 50 29t28 45q9 25 9 56q0 28 -9 55q-9 26 -28 46t-50 32q-30 12 -72 12h-173
v-285z" />
    <glyph glyph-name="Q" unicode="Q" horiz-adv-x="704" 
d="M640 340q0 -105 -33 -181q-34 -76 -94 -119q43 -35 130 -103q-16 -15 -66 -60q-38 30 -153 122q-36 -9 -76 -9q-64 0 -118 24t-94 70q-39 45 -60 110t-21 146v47q0 81 21 146q21 66 60 111t93 70q54 24 118 24q66 0 121 -24q54 -25 92 -70q39 -45 60 -111q20 -65 20 -146
v-47zM544 388q0 64 -13 114t-39 85q-24 33 -61 51t-84 18q-44 0 -81 -18q-36 -18 -62 -51q-25 -35 -39 -85t-14 -114v-48q0 -65 14 -115t39 -85q27 -33 63 -51q37 -17 81 -17q47 0 84 17q36 18 61 51q26 35 39 85q12 50 12 115v48z" />
    <glyph glyph-name="R" unicode="R" horiz-adv-x="631" 
d="M352 295h-172v-295h-96v728h241q123 0 189 -56t66 -163q0 -68 -36 -119q-37 -50 -103 -75l171 -309v-6h-103q-39 74 -157 295zM180 373h148q39 0 68 11t49 28q19 19 29 44q10 24 10 53q0 31 -9 57q-10 26 -29 45q-19 18 -49 28t-72 10h-145v-276z" />
    <glyph glyph-name="S" unicode="S" horiz-adv-x="608" 
d="M472 184q0 25 -7 45q-8 19 -28 35q-20 17 -53 31t-85 29q-54 16 -98 36t-74 45q-31 26 -47 59q-17 33 -17 76q0 42 18 78q18 37 50 63q33 27 78 42q46 15 102 15q61 0 109 -19q48 -18 80 -48q33 -31 50 -71q18 -40 18 -83h-97q0 31 -10 57q-9 26 -29 45t-50 30
q-30 10 -71 10q-39 0 -67 -9q-29 -9 -48 -25q-18 -16 -27 -37t-9 -47q0 -23 10 -42t30 -35t53 -30q32 -13 77 -26q62 -17 107 -38q45 -22 74 -49q29 -26 44 -60q14 -33 14 -76q0 -45 -18 -81t-51 -61q-33 -26 -80 -39q-47 -14 -104 -14q-34 0 -68 6q-33 7 -64 19
q-31 13 -57 31t-46 43q-19 24 -30 55t-11 67h96q0 -38 15 -64q15 -27 40 -44q25 -18 57 -26q32 -9 68 -9q76 0 116 32q40 31 40 84z" />
    <glyph glyph-name="T" unicode="T" horiz-adv-x="611" 
d="M588 649h-235v-649h-95v649h-234v79h564v-79z" />
    <glyph glyph-name="U" unicode="U" horiz-adv-x="664" 
d="M597 728v-493q0 -62 -22 -108q-21 -46 -58 -76q-36 -31 -84 -46t-101 -15q-55 0 -103 15t-84 46q-34 30 -55 76q-20 46 -20 108v493h95v-493q0 -43 12 -74t35 -52q21 -21 52 -31t68 -10q39 0 70 10q30 10 53 31q21 21 33 52t12 74v493h97z" />
    <glyph glyph-name="V" unicode="V" horiz-adv-x="652" 
d="M325 128l208 600h106q-68 -182 -271 -728h-84q-68 182 -270 728h105q51 -150 206 -600z" />
    <glyph glyph-name="W" unicode="W" horiz-adv-x="908" 
d="M241 229q4 -24 15 -96q5 22 20 87l144 508h81l140 -508l20 -88q4 25 16 98q28 125 113 498h97q-45 -182 -177 -728h-87q-38 133 -151 531q-2 13 -11 55q-3 -14 -12 -55q-38 -133 -155 -531h-87l-176 728h96q28 -125 114 -499z" />
    <glyph glyph-name="X" unicode="X" horiz-adv-x="642" 
d="M322 449q44 70 174 279h113q-57 -90 -229 -361q58 -92 235 -367h-114q-45 71 -179 284l-180 -284h-114q59 92 236 367q-57 90 -230 361h113q43 -70 175 -279z" />
    <glyph glyph-name="Y" unicode="Y" horiz-adv-x="615" 
d="M307 363q47 91 189 365h109q-62 -114 -250 -456v-272h-96v272q-63 114 -251 456h109q48 -91 190 -365z" />
    <glyph glyph-name="Z" unicode="Z" horiz-adv-x="613" 
d="M156 79h417v-79h-530v72q100 144 399 577h-393v79h508v-71q-100 -144 -401 -578z" />
    <glyph glyph-name="bracketleft" unicode="[" horiz-adv-x="272" 
d="M261 756h-95v-836h95v-76h-188v988h188v-76z" />
    <glyph glyph-name="backslash" unicode="\" horiz-adv-x="420" 
d="M20 728h88q76 -198 304 -791h-88q-76 198 -304 791z" />
    <glyph glyph-name="bracketright" unicode="]" horiz-adv-x="272" 
d="M4 832h189v-988h-189v76h97v836h-97v76z" />
    <glyph glyph-name="asciicircum" unicode="^" horiz-adv-x="428" 
d="M213 605q-24 -60 -95 -241h-86q37 91 149 364h64q37 -91 149 -364h-86q-23 61 -95 241z" />
    <glyph glyph-name="underscore" unicode="_" horiz-adv-x="462" 
d="M460 -76h-458v76h458v-76z" />
    <glyph glyph-name="grave" unicode="`" horiz-adv-x="316" 
d="M237 620h-80q-32 37 -129 147h112q24 -37 97 -147z" />
    <glyph glyph-name="a" unicode="a" horiz-adv-x="557" 
d="M404 0q-5 10 -8 25t-5 32q-13 -13 -29 -26q-17 -12 -36 -22q-19 -9 -41 -14q-23 -5 -48 -5q-41 0 -75 13q-34 12 -58 33q-24 22 -36 51q-13 29 -13 63q0 43 17 77q16 33 48 56q32 22 77 33q45 12 100 12h92v43q0 48 -29 77q-28 28 -85 28q-26 0 -47 -6q-22 -7 -37 -19
t-24 -27q-8 -16 -8 -33h-94q0 29 16 57q15 29 43 52t68 37t88 14q44 0 82 -11q37 -12 63 -35q27 -22 42 -56t15 -80v-251q0 -27 5 -58q5 -30 14 -52v-8h-97zM251 71q25 0 47 7q22 6 39 18q19 11 32 26q13 14 20 30v111h-77q-79 0 -122 -25t-43 -75q0 -19 7 -37q6 -17 19 -29
q14 -12 33 -19t45 -7z" />
    <glyph glyph-name="b" unicode="b" horiz-adv-x="575" 
d="M528 264q0 -59 -14 -109q-14 -51 -41 -87q-27 -37 -66 -57q-39 -21 -89 -21q-54 0 -92 19q-39 19 -66 54q-2 -21 -5 -63h-85v768h93v-287q26 34 64 52t90 18q51 0 90 -20q40 -20 66 -56q27 -36 41 -87t14 -113v-11zM436 275q0 41 -8 76q-8 36 -24 63q-17 27 -44 43
q-27 15 -66 15q-26 0 -46 -6t-37 -18q-16 -12 -28 -27q-12 -16 -20 -33v-235q9 -17 21 -33t28 -27q16 -12 37 -18q20 -7 46 -7q37 0 64 16q26 16 44 42q17 26 25 62t8 76v11z" />
    <glyph glyph-name="c" unicode="c" horiz-adv-x="536" 
d="M287 65q25 0 47 8t39 23q18 13 29 33q10 19 13 42h87q-2 -36 -20 -69t-46 -58q-29 -24 -68 -39q-38 -15 -81 -15q-61 0 -106 22q-45 21 -76 59q-29 37 -44 85q-15 49 -15 104v21q0 55 15 103q15 49 44 87q31 37 75 58q45 22 107 22q47 0 86 -15t67 -41q28 -27 44 -63
t18 -77h-87q-3 25 -12 47q-10 22 -27 38q-16 16 -39 26q-22 9 -50 9q-43 0 -72 -17q-28 -17 -46 -45q-17 -28 -23 -62q-7 -35 -7 -70v-21q0 -36 7 -71q6 -34 23 -62q18 -27 46 -45q29 -17 72 -17z" />
    <glyph glyph-name="d" unicode="d" horiz-adv-x="577" 
d="M48 275q0 62 15 113t43 87t67 56t88 20q50 0 87 -17q36 -17 64 -48v282h92v-768h-85q-1 14 -4 58q-27 -33 -65 -50q-38 -18 -90 -18q-48 0 -87 21q-39 20 -67 57q-28 36 -43 87q-15 50 -15 109v11zM140 264q0 -40 8 -76t26 -62t44 -42q27 -16 65 -16q25 0 44 6
q20 6 35 17q16 10 28 24q13 15 22 33v248q-9 16 -21 30t-28 25q-16 10 -35 16q-20 5 -44 5q-38 0 -65 -15q-27 -16 -45 -43t-26 -63q-8 -35 -8 -76v-11z" />
    <glyph glyph-name="e" unicode="e" horiz-adv-x="543" 
d="M295 -10q-57 0 -103 20q-45 19 -78 54t-50 83t-17 105v20q0 67 19 119q20 52 53 87t75 54q43 19 89 19q58 0 100 -20t69 -56q28 -35 40 -84q13 -48 13 -106v-41h-366q1 -37 12 -70q12 -33 32 -57q21 -24 50 -38q30 -14 67 -14q48 0 82 20t60 54q19 -15 57 -44
q-14 -20 -32 -39q-19 -19 -43 -34q-25 -14 -57 -23t-72 -9zM283 475q-28 0 -51 -10q-24 -10 -43 -30q-18 -19 -30 -49q-12 -29 -17 -66h271v7q-1 27 -9 53q-7 27 -23 48q-14 21 -38 34t-60 13z" />
    <glyph glyph-name="f" unicode="f" horiz-adv-x="356" 
d="M116 0v469h-86v72h86v57t12 77t35 57t56 35t74 12q32 0 64 -9q-2 -25 -5 -75q-11 2 -24 3q-13 2 -26 2q-45 0 -70 -27q-24 -26 -24 -75v-57h116v-72h-116v-469h-92z" />
    <glyph glyph-name="g" unicode="g" horiz-adv-x="575" 
d="M48 275q0 62 15 113q14 51 42 87t67 56q40 20 89 20q52 0 90 -18t65 -52q1 20 4 60h85v-529q0 -54 -17 -96q-16 -41 -47 -70q-30 -29 -72 -44t-93 -15q-21 0 -49 5q-27 4 -55 16q-28 10 -53 28q-26 18 -43 44q16 19 48 56q16 -21 34 -35t37 -22q18 -9 37 -13q19 -3 37 -3
q32 0 59 9t45 28q19 18 29 45t10 62v47q-27 -31 -64 -47q-37 -17 -88 -17q-48 0 -87 21q-40 20 -68 57q-27 36 -42 87q-15 50 -15 109v11zM141 264q0 -40 8 -76t26 -62q17 -26 44 -42t65 -16q24 0 44 6t35 17q16 10 28 25t21 32v247q-9 17 -21 31t-28 25q-15 10 -35 16
q-20 5 -44 5q-37 0 -64 -15q-28 -16 -45 -43q-18 -27 -26 -63q-8 -35 -8 -76v-11z" />
    <glyph glyph-name="h" unicode="h" horiz-adv-x="564" 
d="M163 476q29 35 69 55t91 20q39 0 71 -11t54 -35q23 -23 35 -60q13 -37 13 -90v-355h-93v356q0 31 -7 53q-7 23 -21 36q-14 15 -34 21t-46 6q-46 0 -80 -24t-52 -63v-385h-93v768h93v-292z" />
    <glyph glyph-name="i" unicode="i" horiz-adv-x="248" 
d="M171 0h-93v541h47h46v-541zM71 684q0 23 13 38q14 16 41 16t41 -16q14 -15 14 -38q0 -22 -14 -37q-12 -13 -35 -15h-6q-27 0 -41 15q-13 15 -13 37z" />
    <glyph glyph-name="j" unicode="j" horiz-adv-x="244" 
d="M165 541v-605q0 -76 -35 -115q-34 -40 -106 -40q-13 0 -29 3t-27 7v73q9 -2 21 -3t20 -1q31 0 48 17q16 17 16 59v605h45h47zM64 684q0 23 13 38q14 16 40 16q27 0 41 -16q14 -15 14 -38q0 -22 -14 -37t-41 -15h-8q-21 3 -32 15q-13 15 -13 37z" />
    <glyph glyph-name="k" unicode="k" horiz-adv-x="519" 
d="M221 251q-15 -16 -58 -61v-190h-92v768h92v-464q12 14 49 59q43 45 169 178h112q-52 -57 -210 -226q59 -79 235 -315h-109q-47 63 -188 251z" />
    <glyph glyph-name="l" unicode="l" horiz-adv-x="248" 
d="M171 0h-93v768h93v-768z" />
    <glyph glyph-name="m" unicode="m" horiz-adv-x="897" 
d="M157 541q1 -15 3 -60q28 33 67 51q40 19 93 19q52 0 93 -21q40 -21 62 -66q26 39 70 63q43 24 102 24q44 0 77 -11q33 -12 56 -36q24 -24 36 -60q12 -37 12 -88v-356h-92v356q0 34 -9 57q-8 22 -23 35q-15 14 -36 19q-22 5 -48 5q-28 0 -50 -8q-22 -9 -38 -25
q-16 -15 -25 -36q-10 -20 -12 -44v-359h-93v356q0 31 -8 53q-9 23 -23 36q-15 15 -37 21q-21 6 -47 6q-50 0 -80 -21q-30 -22 -45 -56v-395h-93v541h88z" />
    <glyph glyph-name="n" unicode="n" horiz-adv-x="565" 
d="M157 541q1 -17 3 -68q29 36 70 57q42 21 93 21q39 0 71 -11t54 -35q23 -23 35 -60q13 -37 13 -90v-355h-93v356q0 31 -7 53q-7 23 -21 36q-14 15 -34 21t-46 6q-46 0 -80 -24t-52 -63v-385h-93v541h87z" />
    <glyph glyph-name="o" unicode="o" horiz-adv-x="584" 
d="M45 276q0 59 18 109q17 50 49 87t77 58q46 21 102 21q57 0 103 -21t78 -58t49 -87t17 -109v-12q0 -59 -17 -109t-49 -87q-32 -36 -78 -57q-45 -21 -102 -21t-102 21q-46 21 -78 57q-32 37 -49 87q-18 50 -18 109v12zM139 264q0 -40 9 -76t28 -64q20 -27 49 -43
q28 -16 67 -16q38 0 67 16t48 43q19 28 29 64q9 36 9 76v12q0 40 -9 76q-10 36 -29 63q-19 28 -49 44q-29 16 -67 16t-67 -16q-28 -16 -48 -44q-19 -27 -28 -63t-9 -76v-12z" />
    <glyph glyph-name="p" unicode="p" horiz-adv-x="575" 
d="M527 264q0 -59 -14 -109q-14 -51 -41 -87q-27 -37 -66 -57q-38 -21 -89 -21q-50 0 -89 16q-38 16 -65 46v-260h-93v749h85l4 -60q28 34 67 52q38 18 90 18q51 0 90 -20t66 -56q28 -36 41 -87q14 -51 14 -113v-11zM435 275q0 41 -9 76q-9 36 -26 63q-19 27 -46 43
q-27 15 -66 15q-23 0 -42 -5q-19 -6 -35 -15q-15 -11 -27 -24q-12 -14 -21 -30v-258q9 -16 21 -30t27 -24q16 -10 35 -15q19 -6 43 -6q38 0 65 16t46 43q17 28 26 64t9 76v11z" />
    <glyph glyph-name="q" unicode="q" horiz-adv-x="582" 
d="M48 275q0 62 14 113t42 87t68 56t91 20q49 0 87 -16q38 -17 65 -48q1 18 4 54h85v-749h-93v258q-27 -29 -64 -44q-37 -16 -85 -16q-50 0 -90 21q-40 20 -68 57q-27 36 -42 87q-14 50 -14 109v11zM140 264q0 -40 8 -76q9 -36 27 -64q18 -27 45 -43q28 -16 65 -16
q46 0 77 21q30 21 49 53v265q-10 15 -22 28t-28 23q-15 9 -34 15q-19 5 -41 5q-38 0 -66 -16q-27 -16 -45 -44q-18 -27 -27 -63q-8 -36 -8 -77v-11z" />
    <glyph glyph-name="r" unicode="r" horiz-adv-x="347" 
d="M332 458q-12 2 -23 3h-23q-48 0 -78 -21q-31 -20 -45 -56v-384h-93v541h90q0 -16 1 -62q22 33 53 53q31 19 77 19q9 0 23 -2q13 -2 18 -5v-86z" />
    <glyph glyph-name="s" unicode="s" horiz-adv-x="528" 
d="M385 144q0 15 -5 28q-4 13 -17 24q-14 12 -38 22q-25 10 -65 19q-44 10 -80 23q-36 12 -62 31q-25 18 -39 43q-13 25 -13 58q0 32 14 61q15 29 40 51q27 21 64 34q36 13 82 13q49 0 87 -13q38 -14 64 -37q27 -22 41 -53t14 -66h-92q0 17 -8 33q-8 17 -22 30
q-14 14 -36 22q-21 8 -48 8q-29 0 -49 -7q-21 -7 -33 -18q-13 -11 -19 -25t-6 -29q0 -16 5 -28q4 -12 19 -21q13 -10 38 -18q24 -9 63 -17q49 -12 86 -26q36 -14 60 -34q24 -19 36 -44q11 -25 11 -58q0 -35 -14 -65q-15 -29 -43 -50q-27 -22 -66 -33q-38 -12 -85 -12
q-54 0 -95 15q-42 15 -70 39q-28 25 -42 57t-14 66h92q1 -29 14 -48q12 -19 30 -31q19 -12 41 -18q22 -5 44 -5q28 0 50 6q21 6 36 17t22 25q8 14 8 31z" />
    <glyph glyph-name="t" unicode="t" horiz-adv-x="335" 
d="M196 672v-131h100v-72h-100v-335q0 -21 4 -34q5 -12 13 -20q9 -7 20 -9t22 -2q12 0 24 2q13 2 20 4v-75q-11 -3 -29 -6q-17 -4 -42 -4t-48 7t-40 24q-17 18 -27 45q-10 28 -10 69v334h-99v72h99v131h93z" />
    <glyph glyph-name="u" unicode="u" horiz-adv-x="564" 
d="M404 53q-25 -29 -64 -46q-40 -17 -95 -17q-40 0 -72 11q-33 11 -56 35q-24 25 -36 63q-13 38 -13 93v349h92v-350q0 -37 9 -61q8 -23 23 -38q13 -13 31 -18q18 -6 37 -6q57 0 91 22t50 58v393h93v-541h-88q0 13 -2 53z" />
    <glyph glyph-name="v" unicode="v" horiz-adv-x="496" 
d="M248 125q34 104 135 416h94q-49 -135 -194 -541h-71q-49 135 -196 541h95q34 -104 137 -416z" />
    <glyph glyph-name="w" unicode="w" horiz-adv-x="769" 
d="M549 128q26 103 104 413h92q-39 -135 -157 -541h-75q-33 102 -132 410q-32 -103 -128 -410h-74q-40 135 -158 541h92q27 -101 107 -405q31 101 126 405h74q33 -103 129 -413z" />
    <glyph glyph-name="x" unicode="x" horiz-adv-x="508" 
d="M252 344q30 49 120 197h108q-45 -67 -177 -268q45 -68 182 -273h-107q-31 51 -125 203q-31 -51 -125 -203h-108q46 68 183 273q-44 67 -177 268h107q30 -49 119 -197z" />
    <glyph glyph-name="y" unicode="y" horiz-adv-x="484" 
d="M247 136q32 101 126 405h99q-54 -156 -217 -625q-8 -20 -20 -43q-12 -24 -31 -44q-20 -20 -46 -34q-27 -14 -64 -14q-6 0 -13 1q-8 2 -15 3l-14 2t-10 2v75h6h7q4 -1 7 -1h5q24 0 42 4q18 5 31 15q15 10 25 27t19 42q6 18 20 55q-48 134 -193 535h101q34 -101 135 -405z
" />
    <glyph glyph-name="z" unicode="z" horiz-adv-x="508" 
d="M157 76h316v-76h-429v68q75 99 299 396h-295v77h411v-65q-76 -100 -302 -400z" />
    <glyph glyph-name="braceleft" unicode="{" horiz-adv-x="347" 
d="M316 -183q-51 15 -85 38q-35 24 -55 53q-20 31 -29 67t-9 74v103q0 28 -6 50t-19 37q-13 16 -33 24q-20 9 -48 9v72q56 0 81 32t25 87v103q0 39 9 75t29 66t55 54q34 23 85 38q6 -20 19 -58q-30 -9 -50 -27q-20 -17 -32 -39q-12 -23 -17 -51t-5 -58v-103q0 -51 -20 -91
q-20 -41 -64 -64q44 -24 64 -65q20 -40 20 -91v-103q0 -30 5 -58q5 -27 17 -50t32 -40t50 -26q-6 -20 -19 -58z" />
    <glyph glyph-name="bar" unicode="|" horiz-adv-x="249" 
d="M162 -135h-74v863h74v-863z" />
    <glyph glyph-name="braceright" unicode="}" horiz-adv-x="347" 
d="M9 -125q30 9 50 26q21 17 33 40t17 50q6 28 6 58v103q0 52 21 93q21 40 69 63q-48 21 -69 61q-21 41 -21 94v103q0 30 -6 58q-5 28 -17 51q-12 22 -32 39q-20 18 -50 27q6 19 19 58q51 -15 85 -38q34 -24 55 -54t30 -66q8 -36 8 -75v-103q0 -27 6 -49t19 -38
q12 -16 33 -24q20 -8 48 -8v-72q-28 0 -48 -9q-21 -8 -33 -24q-13 -15 -19 -37t-6 -50v-103q0 -38 -8 -74q-9 -36 -30 -67q-21 -29 -55 -53q-34 -23 -85 -38q-7 19 -20 58z" />
    <glyph glyph-name="asciitilde" unicode="~" horiz-adv-x="696" 
d="M632 388q0 -38 -12 -72t-34 -60q-22 -25 -51 -40q-30 -15 -66 -15q-21 0 -40 4q-19 5 -37 14q-17 8 -35 21q-17 13 -37 31q-25 23 -47 36q-21 13 -46 13q-39 0 -60 -27t-21 -74q-27 0 -81 -1q0 39 12 72q12 34 34 58q21 25 51 39q29 14 65 14q21 0 41 -5q19 -4 36 -13
q19 -9 36 -22t36 -29q13 -13 25 -22q12 -10 23 -15q11 -7 22 -9q11 -3 23 -3q20 0 36 7q15 8 27 22q11 14 17 33t6 43h77z" />
    <glyph glyph-name="nonbreakingspace" unicode="&#xa0;" horiz-adv-x="280" 
 />
    <glyph glyph-name="exclamdown" unicode="&#xa1;" horiz-adv-x="249" 
d="M85 342h39h45q2 -130 7 -522h-97q1 131 6 522zM179 498q0 -22 -14 -38q-12 -14 -34 -15q-3 -1 -7 -1q-27 0 -41 16t-14 38t14 38q14 15 41 15q28 0 41 -15q14 -16 14 -38z" />
    <glyph glyph-name="cent" unicode="&#xa2;" horiz-adv-x="560" 
d="M293 65q25 0 48 8q22 8 39 23q17 13 28 33q11 19 13 42h87q-1 -32 -15 -61q-14 -30 -37 -53q-24 -24 -54 -40q-31 -17 -67 -23v-117h-93v118q-48 9 -84 33q-35 24 -59 60q-23 35 -35 79q-12 45 -12 93v21q0 48 12 92t36 80q23 35 58 60q36 24 84 33v113h93v-111
q38 -7 70 -24q31 -17 54 -43q22 -25 35 -57t14 -69h-87q-2 25 -12 47q-9 22 -26 38q-16 16 -39 26q-23 9 -51 9q-43 0 -71 -17q-29 -17 -46 -45t-24 -62q-7 -35 -7 -70v-21q0 -36 7 -71q7 -34 24 -62q17 -27 45 -45q29 -17 72 -17z" />
    <glyph glyph-name="sterling" unicode="&#xa3;" horiz-adv-x="595" 
d="M224 311q1 -27 4 -110q0 -35 -7 -67q-8 -32 -24 -55h367v-79h-516v79h38q13 2 22 16q8 13 14 31t8 38t2 36q-1 37 -4 111h-83v78h80q-1 33 -4 131q0 51 17 92q17 40 46 68q30 28 71 43t89 15t86 -14q39 -15 65 -40t40 -61t14 -79h-95q0 31 -10 53t-27 35q-16 15 -37 21
q-22 6 -45 6q-24 0 -46 -9q-21 -10 -37 -27q-16 -18 -25 -44q-10 -26 -10 -59q2 -44 5 -131h159v-78h-157z" />
    <glyph glyph-name="currency" unicode="&#xa4;" horiz-adv-x="730" 
d="M552 56q-39 -32 -85 -49q-47 -17 -99 -17t-99 17q-46 17 -85 48q-22 -23 -67 -68q-16 17 -65 68q18 17 70 70q-25 38 -38 83q-14 45 -14 96q0 53 15 99q15 47 41 85q-24 26 -74 76q17 17 65 68q19 -19 74 -75q37 28 82 44q44 16 95 16q49 0 94 -16q46 -16 83 -45
q25 26 75 76q16 -17 65 -68q-18 -19 -75 -77q26 -39 40 -85q15 -46 15 -98q0 -50 -13 -95q-14 -45 -38 -82q24 -24 71 -72q-16 -17 -65 -68q-17 17 -68 69zM156 304q0 -48 16 -89q17 -42 45 -72q30 -31 68 -49q39 -18 83 -18q43 0 82 18q38 18 66 49q29 30 46 72
q17 41 17 89q0 47 -17 88q-17 42 -46 72q-28 32 -66 49q-39 18 -82 18q-44 0 -83 -18q-38 -17 -68 -49q-28 -30 -45 -72q-16 -41 -16 -88z" />
    <glyph glyph-name="yen" unicode="&#xa5;" horiz-adv-x="620" 
d="M307 391q46 84 182 337h110q-53 -90 -210 -360h156v-63h-192v-82h192v-62h-192v-161h-96v161h-189v62h189v82h-189v63h156l-208 360h109q46 -84 182 -337z" />
    <glyph glyph-name="brokenbar" unicode="&#xa6;" horiz-adv-x="245" 
d="M73 -135v395h94v-395h-94zM167 349h-94v379h94v-379z" />
    <glyph glyph-name="section" unicode="&#xa7;" horiz-adv-x="628" 
d="M572 216q0 -48 -24 -83q-24 -34 -68 -54q34 -25 52 -59t18 -84q0 -44 -17 -78q-18 -34 -50 -57q-31 -24 -77 -36q-45 -13 -100 -13q-48 0 -95 12q-47 11 -84 36q-36 24 -59 66q-23 41 -23 102q31 0 93 1q0 -40 15 -67q15 -26 39 -43q24 -16 54 -23q30 -8 60 -8q36 0 64 9
q29 8 47 23q20 13 30 33q10 19 10 42t-9 40q-8 17 -28 32q-20 14 -54 28q-34 13 -85 28q-54 14 -98 32q-43 17 -73 42q-30 24 -46 58q-16 33 -16 81q0 46 24 81t67 55q-33 25 -51 59q-17 34 -17 84q0 41 17 75t49 58t77 37q46 13 101 13q57 0 103 -14q46 -15 77 -42
q32 -27 49 -67t17 -92h-93q0 29 -10 54q-10 26 -29 44q-20 19 -48 31q-29 11 -66 11q-39 0 -68 -9q-28 -9 -47 -23q-19 -15 -28 -34q-8 -20 -8 -41q0 -25 7 -43q8 -17 27 -32q19 -14 53 -27t87 -27q56 -15 99 -33q44 -18 74 -42t46 -57q15 -33 15 -79zM301 345
q-45 12 -82 26q-40 -10 -59 -35t-19 -60q0 -25 7 -43q8 -18 28 -33t54 -28q34 -12 88 -28q22 -6 42 -12t39 -13q38 10 59 35q22 26 22 60q0 23 -9 41q-9 17 -30 33q-20 15 -55 28q-34 14 -85 29z" />
    <glyph glyph-name="dieresis" unicode="&#xa8;" horiz-adv-x="428" 
d="M51 685q0 23 14 38q14 16 40 16q27 0 41 -16q14 -15 14 -38q0 -7 -1 -14q-3 -13 -13 -23q-14 -15 -41 -15q-26 0 -40 15t-14 37zM266 684q0 9 2 16q3 13 12 22q13 16 40 16q28 0 42 -16q14 -15 14 -38q0 -22 -14 -37t-42 -15q-27 0 -40 15q-14 15 -14 37z" />
    <glyph glyph-name="copyright" unicode="&#xa9;" horiz-adv-x="804" 
d="M560 299q0 -40 -12 -69q-12 -30 -33 -50q-22 -19 -52 -29q-31 -10 -69 -10q-40 0 -72 14t-54 40q-23 25 -35 61t-12 79v58q0 43 12 79q12 35 35 60q22 26 54 40q32 15 72 15q38 0 69 -10q30 -10 52 -29q21 -20 33 -50q12 -29 12 -68h-73q0 50 -24 71q-23 21 -69 21
q-25 0 -44 -10q-18 -9 -31 -26t-20 -41q-6 -24 -6 -52v-58q0 -28 6 -52q7 -24 20 -41t31 -26q19 -10 44 -10q46 0 69 21q24 21 24 72h73zM103 364q0 -67 24 -124q23 -57 63 -100q41 -43 95 -67t115 -24q62 0 116 24t94 67q41 43 64 100t23 124t-23 124t-64 100
q-40 42 -94 66t-116 24q-61 0 -115 -24t-95 -66q-40 -43 -63 -100q-24 -57 -24 -124zM45 364q0 53 13 102q13 48 36 90q23 41 56 75q32 33 71 57q40 24 85 37q46 13 94 13q49 0 95 -13q45 -13 84 -37q40 -24 72 -57q33 -34 56 -75q22 -42 35 -90q13 -49 13 -102
q0 -52 -13 -101q-13 -48 -35 -90q-23 -41 -56 -75q-32 -34 -72 -58q-39 -24 -84 -38q-46 -13 -95 -13q-48 0 -94 13q-45 14 -85 38q-39 24 -71 58q-33 34 -56 75q-23 42 -36 90q-13 49 -13 101z" />
    <glyph glyph-name="ordfeminine" unicode="&#xaa;" horiz-adv-x="457" 
d="M309 352q-6 17 -9 36q-16 -17 -41 -30t-61 -13q-30 0 -53 8q-24 8 -40 23q-15 16 -23 36q-9 21 -9 47q0 56 42 86t128 30h54v25q0 33 -15 51q-15 17 -47 17q-35 0 -54 -14q-20 -13 -20 -38q-27 1 -81 5q0 26 12 47q11 21 31 37q20 15 49 24q28 9 63 9q32 0 59 -9
q26 -9 45 -26t29 -43q11 -25 11 -60v-157q0 -24 3 -46q2 -22 10 -45h-83zM217 414q22 0 44 10t36 24v71h-53q-24 0 -40 -5q-17 -5 -28 -13t-16 -18t-5 -22q0 -22 15 -34q15 -13 47 -13z" />
    <glyph glyph-name="guillemotleft" unicode="&#xab;" horiz-adv-x="592" 
d="M224 0q-156 232 -156 262q0 35 156 232h100q-156 -198 -156 -233q0 -29 155 -261h-99zM438 0q-157 232 -157 262q0 35 158 232h100q-156 -198 -156 -230q0 -33 154 -264h-99z" />
    <glyph glyph-name="logicalnot" unicode="&#xac;" horiz-adv-x="567" 
d="M479 188h-93v132h-322v80h415v-212z" />
    <glyph glyph-name="uni00ad" unicode="&#xad;" horiz-adv-x="283" 
d="M263 272h-244v75h244v-75z" />
    <glyph glyph-name="registered" unicode="&#xae;" horiz-adv-x="805" 
d="M45 364q0 53 13 102q13 48 35 90q23 41 56 75q32 33 72 57q39 24 85 37q45 13 94 13t94 -13q46 -13 85 -37t71 -57q33 -34 56 -75q23 -42 36 -90q13 -49 13 -102q0 -52 -13 -101q-13 -48 -36 -90q-23 -41 -56 -75q-32 -34 -71 -58t-85 -38q-45 -13 -94 -13t-94 13
q-46 14 -85 38q-40 24 -72 58q-33 34 -56 75q-22 42 -35 90q-13 49 -13 101zM103 364q0 -67 23 -124t63 -100q41 -43 95 -67q55 -24 116 -24t115 24t95 67t64 100t23 124t-23 124t-64 100q-41 42 -95 66t-115 24t-116 -24q-54 -24 -95 -66q-40 -43 -63 -100t-23 -124z
M327 327v-169h-71v425h138q37 0 67 -8t51 -24q20 -16 32 -40q11 -24 11 -56t-16 -55q-16 -24 -48 -40q17 -7 29 -17q12 -11 19 -24t10 -29q3 -15 3 -33v-28q0 -18 2 -35t7 -28v-8h-73q-2 6 -3 16q-2 10 -3 21q-1 10 -1 20v15v26q0 36 -16 54q-17 17 -57 17h-81zM327 391h77
q16 1 31 5q14 4 25 11q12 8 18 19t6 26q0 19 -4 31q-5 13 -16 21q-10 8 -27 12q-17 3 -43 3h-67v-128z" />
    <glyph glyph-name="macron" unicode="&#xaf;" horiz-adv-x="469" 
d="M417 656h-357v72h357v-72z" />
    <glyph glyph-name="degree" unicode="&#xb0;" horiz-adv-x="383" 
d="M65 608q0 27 10 50q10 24 28 42q17 17 40 28q24 10 49 10q27 0 49 -10q23 -11 40 -28q17 -18 27 -42q10 -23 10 -50t-10 -50t-27 -41q-17 -17 -40 -27q-22 -10 -49 -10q-25 0 -49 10q-23 10 -40 27q-18 18 -28 41t-10 50zM128 608q0 -14 5 -26q5 -11 14 -20t20 -13
q12 -5 25 -5q14 0 26 5q11 4 20 13t14 20q4 12 4 26t-4 26q-5 13 -14 22q-9 8 -20 14q-12 5 -26 5q-13 0 -25 -5q-11 -6 -20 -14q-9 -9 -14 -22q-5 -12 -5 -26z" />
    <glyph glyph-name="plusminus" unicode="&#xb1;" horiz-adv-x="548" 
d="M325 428h182v-76h-182v-208h-84v208h-193v76h193v205h84v-205zM485 0h-417v76h173h244v-76z" />
    <glyph glyph-name="twosuperior" unicode="&#xb2;" horiz-adv-x="376" 
d="M341 333h-299v55q36 33 144 135q34 30 47 52q14 22 14 39q0 25 -16 40t-47 15q-37 0 -55 -19q-17 -19 -17 -47h-79q0 26 10 50t29 42q20 17 48 28q28 10 63 10q33 0 59 -8q27 -8 46 -24q18 -15 28 -37q9 -22 9 -49q0 -20 -6 -38q-7 -17 -19 -35q-12 -17 -30 -35
q-18 -17 -40 -37q-29 -24 -88 -73h199v-64z" />
    <glyph glyph-name="threesuperior" unicode="&#xb3;" horiz-adv-x="376" 
d="M132 563h43q37 0 55 15t18 39q0 23 -16 37t-51 14q-14 0 -26 -3t-21 -9t-14 -15q-5 -8 -5 -18h-79q0 25 12 45q11 20 30 35q19 14 46 22q26 8 56 8q32 0 60 -7q27 -7 45 -22q20 -14 31 -35t11 -49q0 -27 -18 -50q-17 -22 -50 -35q38 -11 56 -34q18 -24 18 -58
q0 -28 -12 -49q-12 -22 -32 -37q-21 -14 -49 -22q-28 -7 -60 -7q-28 0 -55 6q-26 7 -48 21q-21 14 -33 36q-13 22 -13 53h79q0 -23 20 -38q19 -14 53 -14q35 0 53 14q19 15 19 41q0 31 -22 44t-58 13h-43v59z" />
    <glyph glyph-name="acute" unicode="&#xb4;" horiz-adv-x="321" 
d="M158 767h112q-33 -37 -134 -147h-75q25 37 97 147z" />
    <glyph glyph-name="mu" unicode="&#xb5;" horiz-adv-x="580" 
d="M169 541v-311q0 -51 9 -84q9 -32 23 -50q15 -18 35 -24q20 -7 44 -7q53 0 84 20q32 20 46 56v400h93v-541h-83q-1 14 -5 58q-22 -33 -54 -50q-33 -18 -77 -18q-37 0 -65 9t-50 28v-235h-92v749h92z" />
    <glyph glyph-name="paragraph" unicode="&#xb6;" horiz-adv-x="500" 
d="M323 0v260h-43q-60 0 -106 18q-46 17 -78 48q-31 31 -47 74q-16 44 -16 94t16 93t47 74q32 31 78 49t106 18h136v-728h-93z" />
    <glyph glyph-name="periodcentered" unicode="&#xb7;" horiz-adv-x="267" 
d="M73 364q0 24 15 40q14 16 43 16q28 0 43 -16q14 -16 14 -40q0 -23 -14 -39q-15 -16 -43 -16q-29 0 -43 16q-15 16 -15 39z" />
    <glyph glyph-name="cedilla" unicode="&#xb8;" horiz-adv-x="253" 
d="M143 0q-2 -6 -7 -26q15 -2 28 -8q14 -6 25 -16t17 -26q7 -15 7 -36q0 -24 -10 -43q-10 -20 -29 -33q-19 -15 -47 -22t-66 -7q-1 17 -3 53q17 0 32 3q15 2 26 9q12 5 18 15q7 9 7 22t-5 21q-4 9 -15 14q-9 5 -25 8q-15 3 -36 5q5 22 16 67h67z" />
    <glyph glyph-name="onesuperior" unicode="&#xb9;" horiz-adv-x="348" 
d="M248 337h-79v300l-108 -28v64q44 15 178 59h9v-395z" />
    <glyph glyph-name="ordmasculine" unicode="&#xba;" horiz-adv-x="465" 
d="M61 561q0 39 12 71q12 33 34 56q22 24 54 37t71 13q40 0 72 -13t53 -37q23 -23 35 -56q12 -32 12 -71v-40q0 -38 -12 -71q-12 -32 -35 -55q-21 -24 -53 -37t-71 -13q-40 0 -71 13q-32 13 -54 37q-23 23 -35 55q-12 33 -12 71v40zM143 521q0 -22 5 -42q5 -19 16 -34
q12 -14 29 -22t40 -8t39 8q17 8 28 22q11 15 16 34q6 20 6 42v40q0 23 -6 43q-5 19 -16 33q-12 15 -28 23q-17 8 -40 8t-39 -8q-17 -8 -29 -23q-11 -14 -16 -33q-5 -20 -5 -43v-40z" />
    <glyph glyph-name="guillemotright" unicode="&#xbb;" horiz-adv-x="592" 
d="M368 0h-99q155 232 155 261q0 35 -156 233h100q156 -197 156 -232q0 -30 -156 -262zM154 0h-99q154 231 154 264q0 32 -156 230h100q158 -197 158 -232q0 -30 -157 -262z" />
    <glyph glyph-name="onequarter" unicode="&#xbc;" horiz-adv-x="750" 
d="M659 149h53v-65h-53v-84h-79v84h-187q-1 13 -3 52q47 64 189 259h80v-246zM469 149h111v145q-2 -3 -8 -14q-26 -33 -103 -131zM229 332h-78v300l-108 -28v64q44 15 177 59h9v-395zM221 59q-13 8 -52 33q89 142 356 569q13 -8 52 -33q-89 -142 -356 -569z" />
    <glyph glyph-name="onehalf" unicode="&#xbd;" horiz-adv-x="795" 
d="M740 0h-299v54q36 34 144 135q34 31 47 53t13 38q0 25 -16 40q-16 16 -45 16q-38 0 -56 -20q-17 -19 -17 -47h-79q0 27 10 51t30 41q5 5 10 9q16 12 37 20q28 10 62 10t61 -8q26 -8 45 -24q18 -16 28 -38q9 -22 9 -49q0 -20 -6 -37q-7 -18 -19 -36q-12 -16 -30 -34
t-40 -38q-29 -24 -88 -72h199v-64zM227 332h-79v300l-108 -28v64q44 15 177 59h10v-395zM200 59q-13 8 -52 33q88 142 355 569q13 -8 52 -33q-89 -142 -355 -569z" />
    <glyph glyph-name="threequarters" unicode="&#xbe;" horiz-adv-x="796" 
d="M705 149h54v-65h-54v-84h-78v84h-188q-1 13 -3 52q47 64 188 259h81v-246zM515 149h112v145q-3 -3 -9 -14q-26 -33 -103 -131zM157 563h42q37 0 55 15t18 39q0 23 -16 37q-16 15 -51 15q-13 0 -25 -3t-21 -10q-10 -5 -15 -14q-4 -9 -4 -19h-79q0 25 11 46q11 20 31 35
q19 14 45 22q27 7 56 7q33 0 60 -7t46 -22q19 -13 30 -34q11 -22 11 -49q0 -28 -17 -50q-18 -23 -51 -35q38 -11 56 -34q18 -24 18 -58q0 -28 -11 -50q-7 -13 -17 -23q-7 -7 -16 -13q-20 -14 -48 -22t-61 -8q-28 0 -54 7q-27 6 -48 21q-21 14 -34 36q-12 22 -12 52h79
q0 -22 19 -37q20 -15 54 -15q35 0 53 15t18 41q0 31 -22 44q-21 13 -58 13h-42v58zM285 59q-13 8 -52 33q89 142 355 569q13 -8 52 -33q-88 -142 -355 -569z" />
    <glyph glyph-name="questiondown" unicode="&#xbf;" horiz-adv-x="484" 
d="M294 340q-1 -36 -5 -61q-5 -25 -14 -46q-11 -20 -27 -39q-16 -20 -39 -45q-16 -17 -31 -33q-14 -16 -26 -33q-12 -18 -18 -38q-7 -20 -7 -45q0 -55 29 -83q28 -29 83 -29q21 0 42 6q20 6 36 19q15 13 25 32t10 45h92q0 -42 -16 -76t-44 -58q-27 -24 -64 -36t-81 -12
q-49 0 -87 12q-38 13 -64 37q-27 25 -40 60q-14 35 -14 80q0 35 11 65t27 56q18 27 40 51t44 47q28 25 36 56q9 31 9 68h42h51zM298 499q0 -23 -14 -39q-13 -15 -40 -15q-28 0 -42 15q-14 16 -14 39q0 21 14 37q14 15 42 15q27 0 40 -15q14 -16 14 -37z" />
    <glyph glyph-name="uni02bc" unicode="&#x2bc;" horiz-adv-x="204" 
d="M164 704q0 -23 -6 -48q-6 -24 -18 -48q-11 -24 -27 -46t-37 -39q-17 12 -52 36q24 33 36 68q12 34 12 76v65h92v-64z" />
    <glyph glyph-name="circumflex" unicode="&#x2c6;" horiz-adv-x="482" 
d="M387 631v-5h-76q-19 21 -75 85q-19 -21 -75 -85h-77v6l124 136h56q30 -34 123 -137z" />
    <glyph glyph-name="caron" unicode="&#x2c7;" horiz-adv-x="455" 
d="M224 683q19 21 75 85h80v-5q-32 -35 -127 -138h-56q-32 35 -126 138v5h78q19 -22 76 -85z" />
    <glyph glyph-name="breve" unicode="&#x2d8;" horiz-adv-x="437" 
d="M364 748q0 -30 -10 -54q-10 -25 -30 -43t-47 -28q-28 -10 -62 -10q-35 0 -63 10t-47 28q-20 18 -30 43q-11 24 -11 54h76q0 -16 4 -29q4 -14 12 -24q9 -10 24 -16q14 -6 35 -6q20 0 34 6t23 16t13 24q4 13 4 29h75z" />
    <glyph glyph-name="dotaccent" unicode="&#x2d9;" horiz-adv-x="248" 
d="M71 684q0 22 13 37q14 16 41 16t41 -16q14 -15 14 -37q0 -23 -14 -38t-41 -15t-41 15q-13 15 -13 38z" />
    <glyph glyph-name="ring" unicode="&#x2da;" horiz-adv-x="343" 
d="M60 704q0 21 9 40q8 20 23 33q14 15 33 23q20 8 43 8t42 -8q20 -8 34 -23q15 -13 23 -33q9 -19 9 -40q0 -22 -9 -41q-8 -18 -23 -32q-14 -14 -34 -21q-19 -8 -42 -8t-43 8q-19 7 -33 21q-15 14 -23 32q-9 19 -9 41zM110 704q0 -11 4 -22q5 -10 12 -18q8 -8 19 -13
q10 -4 23 -4q12 0 23 4q11 5 18 13q8 8 13 18q4 10 4 22t-4 22q-5 11 -13 19q-7 8 -18 13t-23 5q-13 0 -23 -5q-11 -5 -19 -13q-7 -8 -12 -19q-4 -10 -4 -22z" />
    <glyph glyph-name="ogonek" unicode="&#x2db;" horiz-adv-x="277" 
d="M191 0q-16 -12 -31 -24q-16 -13 -28 -27t-19 -29q-8 -15 -8 -31q0 -17 9 -26q9 -10 30 -10q17 0 30 5q13 4 21 8q2 -20 6 -61q-12 -7 -31 -14t-49 -7q-21 0 -38 6q-18 6 -31 18q-12 12 -20 29q-7 18 -7 42q0 20 7 40q8 20 23 39q16 19 40 37q25 17 58 33q13 -9 38 -28z
" />
    <glyph glyph-name="tilde" unicode="&#x2dc;" horiz-adv-x="483" 
d="M415 750q0 -27 -8 -50t-23 -39q-15 -15 -35 -23q-19 -9 -41 -9q-26 0 -43 7q-16 8 -29 16q-14 9 -28 17q-14 7 -35 7q-10 0 -19 -4q-10 -4 -17 -12q-6 -7 -10 -17q-3 -11 -3 -23q-21 2 -63 4q0 28 9 50q8 23 22 39q15 16 34 25q20 10 42 10t38 -8q17 -8 31 -16
q15 -9 31 -17q15 -7 35 -7q10 0 19 4q10 4 16 12q7 8 11 18t4 22q21 -2 62 -6z" />
    <glyph glyph-name="hungarumlaut" unicode="&#x2dd;" horiz-adv-x="382" 
d="M303 768h103q-34 -38 -134 -152h-85zM132 768h99q-27 -38 -109 -152h-75q21 38 85 152z" />
    <glyph glyph-name="uni02f3" unicode="&#x2f3;" horiz-adv-x="301" 
d="M63 -121q0 18 7 33q7 16 18 27q12 11 28 17q16 7 34 7t33 -7q15 -6 26 -17q12 -11 19 -27q7 -15 7 -33q0 -19 -7 -33q-7 -15 -19 -26q-11 -11 -26 -17t-33 -6t-34 6t-28 17q-11 11 -18 26q-7 14 -7 33zM107 -121q0 -8 3 -16t10 -14q5 -5 13 -8q8 -4 17 -4q18 0 30 12
t12 30t-12 30q-12 13 -30 13q-9 0 -17 -3t-13 -10q-7 -5 -10 -13t-3 -17z" />
    <glyph glyph-name="uni0300" unicode="&#x300;" 
d="M-229 620h-63q-16 37 -65 148h88z" />
    <glyph glyph-name="uni0301" unicode="&#x301;" 
d="M-261 768h85q-20 -37 -83 -147h-58q14 37 56 147z" />
    <glyph glyph-name="uni0303" unicode="&#x303;" 
d="M-89 750q0 -27 -8 -50t-23 -39q-15 -15 -35 -23q-19 -9 -41 -9q-26 0 -43 7q-16 8 -29 16q-14 9 -28 17q-14 7 -35 7q-10 0 -19 -4q-10 -4 -16 -12q-7 -7 -11 -17q-3 -11 -3 -23q-21 2 -63 4q0 28 9 50q8 23 22 39q15 16 34 25q20 10 42 10t38 -8q17 -8 31 -16
q15 -9 31 -17q15 -7 35 -7q10 0 19 4q10 4 17 12q6 8 10 18t4 22q21 -2 62 -6z" />
    <glyph glyph-name="uni0309" unicode="&#x309;" 
d="M-326 620q0 20 -1 77q38 3 55 10q18 8 18 27q0 10 -7 18q-6 8 -17 12t-27 7q-15 2 -32 2q1 18 4 53q74 0 112 -26q39 -25 39 -68q0 -19 -7 -32q-7 -14 -17 -23q-11 -9 -25 -14t-29 -7v-36h-66z" />
    <glyph glyph-name="uni030f" unicode="&#x30f;" 
d="M-255 626h-85q-38 33 -152 133h112q31 -33 125 -133zM-124 626h-76q-30 33 -123 133h103q24 -33 96 -133z" />
    <glyph glyph-name="uni0323" unicode="&#x323;" horiz-adv-x="248" 
d="M-356 -123q0 23 14 39q14 15 41 15q26 0 40 -15q14 -16 14 -39q0 -22 -14 -37t-40 -15q-27 0 -41 15t-14 37z" />
    <glyph glyph-name="uni0384" unicode="&#x384;" horiz-adv-x="263" 
d="M119 800h86q-14 -43 -57 -169h-56q6 42 27 169z" />
    <glyph glyph-name="uni0385" unicode="&#x385;" horiz-adv-x="517" 
d="M240 836h95q-13 -33 -51 -132h-68zM56 685q0 23 14 38q14 16 41 16t41 -16q14 -15 14 -38q0 -22 -14 -37t-41 -15t-41 15t-14 37zM340 684q0 23 14 38q0 1 1 2q14 14 40 14t40 -16q14 -15 14 -38q0 -22 -14 -37t-40 -15q-27 0 -41 15t-14 37z" />
    <glyph glyph-name="uni0394" unicode="&#x394;" horiz-adv-x="722" 
d="M323 728h85q72 -182 289 -728h-681q76 182 307 728zM147 79h421l-204 532q-54 -133 -217 -532z" />
    <glyph glyph-name="uni03a9" unicode="&#x3a9;" horiz-adv-x="681" 
d="M368 81q34 7 61 27q27 21 47 56q19 36 30 86q10 49 10 113v57q0 59 -12 104q-13 44 -37 74q-23 30 -57 46q-34 15 -75 15q-42 0 -75 -15q-33 -16 -57 -46q-23 -30 -36 -74q-13 -45 -13 -104v-57q0 -64 11 -114q11 -49 31 -85q20 -35 47 -56q28 -20 62 -27v-81h-246v79
h110q-25 25 -47 57q-21 32 -35 68q-15 37 -23 78q-8 40 -8 81v57q0 71 21 129q20 59 56 100q37 43 88 66t114 23q61 0 113 -23t88 -66q37 -41 57 -100q20 -58 20 -129v-57q0 -41 -8 -81q-8 -41 -22 -78q-15 -36 -35 -68q-21 -32 -48 -57h111v-79h-243v81z" />
    <glyph glyph-name="uni060c" unicode="&#x60c;" horiz-adv-x="369" 
d="M118 145q25 123 123 197l24 -15q-79 -71 -87 -183q66 1 83 -32q10 -18 10 -36v-2q-2 -70 -73 -70q-86 0 -86 88q0 24 6 53z" />
    <glyph glyph-name="uni060d" unicode="&#x60d;" horiz-adv-x="414" 
d="M305 731q18 -6 74 -23q-70 -203 -279 -813q-19 5 -74 21q70 204 279 815z" />
    <glyph glyph-name="uni0615" unicode="&#x615;" 
d="M456 960q0 37 -37 37q-54 0 -148 -102h68q52 0 84 17q33 18 33 48zM496 964q0 -107 -162 -107h-157v38h55v266q9 0 38 -1q0 -53 -1 -213q83 93 151 93q76 0 76 -76z" />
    <glyph glyph-name="uni061b" unicode="&#x61b;" horiz-adv-x="369" 
d="M131 70q0 28 20 48t48 20h6q24 -2 41 -20q20 -20 20 -48q0 -27 -20 -47q-19 -20 -47 -20q-25 0 -43 15q-13 11 -20 26q-5 12 -5 26zM118 365q25 123 123 197l24 -15q-79 -71 -87 -183q66 1 83 -32q10 -18 10 -36v-2q-2 -70 -73 -70q-86 0 -86 88q0 24 6 53z" />
    <glyph glyph-name="uni061f" unicode="&#x61f;" horiz-adv-x="487" 
d="M209 70q0 28 20 48q19 19 45 20h2q28 0 48 -20t20 -48q0 -27 -20 -47t-48 -20q-24 0 -42 15q-14 11 -20 26q-5 12 -5 26zM226 223v4q0 44 -86 112q-88 68 -88 174v4q2 75 44 123q60 68 159 68q183 -1 183 -195v-5h-80v4q0 99 -99 99q-59 0 -87 -34q-22 -26 -22 -68
q-1 -64 70 -128q108 -97 108 -153v-5h-52h-50z" />
    <glyph glyph-name="uni0621" unicode="&#x621;" horiz-adv-x="434" 
d="M59 6v89q56 36 100 49q-90 47 -90 127q0 67 36 108q51 59 132 59q84 0 130 -45q-10 -23 -29 -69q-39 28 -94 28q-44 0 -69 -24q-23 -23 -23 -57q0 -46 86 -86q42 10 126 29q4 -21 15 -86q-127 -15 -320 -122z" />
    <glyph glyph-name="uni0622" unicode="&#x622;" horiz-adv-x="316" 
d="M120 633h87v-633h-87v633zM127 729q-56 8 -102 -46q-17 17 -50 53q58 84 144 71q24 -4 74 -12q48 -8 110 23l33 -69q-65 -40 -139 -29q-24 3 -70 9z" />
    <glyph glyph-name="uni0623" unicode="&#x623;" horiz-adv-x="239" 
d="M78 603h65h21v-602h-86v602zM62 712q-37 28 -37 80q0 44 30 75q34 37 88 37q37 0 70 -22q1 -22 1 -66q-31 21 -64 21q-31 0 -49 -17q-13 -15 -13 -35q0 -29 47 -46q6 -3 12 -2l70 14v-63q-51 -12 -204 -49v61q13 3 49 12z" />
    <glyph glyph-name="uni0624" unicode="&#x624;" horiz-adv-x="430" 
d="M166 490q-37 29 -37 81q0 44 30 74q34 37 88 37q37 0 70 -22q1 -21 1 -65q-31 21 -64 21q-31 0 -49 -17q-13 -15 -13 -35q0 -30 47 -47q6 -2 12 -1q35 7 70 13v-62q-51 -13 -204 -50v62q13 3 49 11zM51 -175q217 40 254 182q-60 -8 -76 -8q-182 -1 -182 150q0 60 25 115
q48 98 143 98h11q94 -6 135 -114q30 -75 30 -164q0 -280 -309 -338q-10 26 -31 79zM305 101q-10 167 -97 167q-48 0 -68 -60q-9 -28 -9 -52q0 -68 98 -68q37 0 76 13z" />
    <glyph glyph-name="uni0625" unicode="&#x625;" horiz-adv-x="239" 
d="M64 -256q-36 29 -36 81q0 44 29 75q31 33 77 36h11q38 0 71 -21v-66q-31 21 -64 21q-31 0 -48 -17q-14 -14 -14 -34q1 -31 47 -47q7 -3 12 -2q35 7 71 14v-63q-51 -12 -204 -49v61q12 3 48 11zM76 704h86v-704h-86v704z" />
    <glyph glyph-name="uni0626" unicode="&#x626;" horiz-adv-x="752" 
d="M192 388q-37 28 -37 80q0 44 29 76q35 36 89 36q38 0 71 -21v-66q-32 20 -64 20t-48 -17q-15 -14 -15 -34q2 -30 48 -47q7 -3 12 -2q35 7 70 15v-64l-120 -28q-21 -5 -83 -20v61q12 3 48 11zM139 42q0 -203 232 -204q89 0 158 33q37 17 64 45q28 28 28 64q0 28 -39 28
q-19 1 -57 1q-125 0 -125 99q0 95 60 160q78 85 219 85h10v-97h-11q-80 0 -133 -36q-53 -37 -54 -92q0 -15 8 -21q9 -7 27 -7h59q119 0 119 -100q0 -145 -144 -211q-84 -38 -192 -38q-316 0 -316 289q0 108 54 236q12 -5 37 -15q11 -4 42 -17q-46 -112 -46 -202z" />
    <glyph glyph-name="uni0627" unicode="&#x627;" horiz-adv-x="239" 
d="M76 704h86v-704h-86v704z" />
    <glyph glyph-name="uni0628" unicode="&#x628;" horiz-adv-x="904" 
d="M431 0q-381 0 -381 243q0 68 27 129q27 -12 79 -35q-16 -41 -16 -80q0 -165 281 -165q251 0 316 48q32 24 32 83q0 45 -18 122l81 21q25 -75 25 -136q0 -118 -69 -167q-84 -59 -322 -63h-34h-1zM396 -159q18 19 73 74q18 -19 73 -74l-73 -73q-18 19 -73 73z" />
    <glyph glyph-name="uni0629" unicode="&#x629;" horiz-adv-x="471" 
d="M231 322q-95 -83 -95 -146q0 -84 101 -84q103 0 103 84q0 59 -109 146zM192 473q233 -170 233 -300q0 -94 -82 -145q-39 -25 -105 -26q-61 0 -103 22q-84 41 -84 149q0 103 113 215q-7 6 -22 19q13 17 50 66zM241 630l73 73q18 -18 73 -74l-72 -72q-19 18 -74 73zM79 630
q18 18 72 73q18 -18 73 -74l-72 -72q-19 18 -73 73z" />
    <glyph glyph-name="uni062a" unicode="&#x62a;" horiz-adv-x="904" 
d="M431 0q-381 0 -381 243q0 68 27 129q27 -12 79 -35q-16 -41 -16 -80q0 -165 281 -165q251 0 316 48q32 24 32 83q0 45 -18 122l81 21q25 -75 25 -136q0 -118 -69 -167q-90 -63 -356 -63h-1zM464 471q18 18 72 73q19 -18 73 -73q-18 -19 -72 -73zM301 471q18 18 72 73
q19 -18 74 -73q-18 -19 -73 -73z" />
    <glyph glyph-name="uni062b" unicode="&#x62b;" horiz-adv-x="904" 
d="M431 0q-381 0 -381 243q0 68 27 129q27 -12 79 -35q-16 -41 -16 -80q0 -165 281 -165q251 0 316 48q32 24 32 83q0 45 -18 122l81 21q25 -75 25 -136q0 -118 -69 -167q-90 -63 -356 -63h-1zM383 574l71 71q18 -18 71 -72l-70 -70q-18 17 -72 71zM465 440l71 71
q18 -18 72 -71q-18 -18 -71 -72zM303 440q18 18 70 71q18 -18 72 -71q-17 -18 -71 -72q-18 18 -71 72z" />
    <glyph glyph-name="uni062c" unicode="&#x62c;" horiz-adv-x="683" 
d="M63 -72q0 292 357 371q2 0 5 1q-13 5 -57 23q-97 39 -133 39q-56 0 -93 -47q-5 -6 -14 -18q-19 9 -77 38q2 4 8 14q63 103 177 104v0q63 0 152 -43q156 -76 241 -79l-6 -87q-88 -6 -147 -19q-328 -77 -328 -289q0 -185 265 -185q108 0 208 48q6 -29 19 -87
q-100 -48 -234 -48q-195 0 -279 90q-64 70 -64 174zM329 -32q19 18 74 72l73 -73q-19 -18 -73 -72q-18 18 -74 73z" />
    <glyph glyph-name="uni062d" unicode="&#x62d;" horiz-adv-x="693" 
d="M63 -72q0 292 357 371q2 0 5 1q-13 5 -57 23q-97 39 -133 39q-56 0 -93 -47q-5 -6 -14 -18q-19 9 -77 38q2 4 8 14q63 103 177 104v0q63 0 152 -43q156 -76 241 -79l-6 -87q-88 -6 -147 -19q-328 -77 -328 -289q0 -185 265 -185q108 0 208 48q6 -29 19 -87
q-100 -48 -234 -48q-195 0 -279 90q-64 70 -64 174z" />
    <glyph glyph-name="uni062e" unicode="&#x62e;" horiz-adv-x="693" 
d="M217 619l73 73l73 -73q-18 -19 -72 -73q-19 18 -74 73zM63 -72q0 292 357 371q2 0 5 1q-13 5 -57 23q-97 39 -133 39q-56 0 -93 -47q-5 -6 -14 -18q-19 9 -77 38q2 4 8 14q63 103 177 104v0q12 0 25 -2q55 -6 127 -41q156 -76 241 -79l-6 -87q-88 -6 -147 -19
q-328 -77 -328 -289q0 -185 265 -185q108 0 208 48q6 -29 19 -87q-100 -48 -234 -48q-195 0 -279 90q-64 70 -64 174z" />
    <glyph glyph-name="uni062f" unicode="&#x62f;" horiz-adv-x="487" 
d="M51 105q62 -13 110 -13q185 0 185 91q0 94 -207 225q16 25 49 76q248 -148 248 -300q0 -183 -268 -183q-64 0 -117 12v92z" />
    <glyph glyph-name="uni0630" unicode="&#x630;" horiz-adv-x="487" 
d="M51 105q62 -13 110 -13q185 0 185 91q0 94 -207 225q16 25 49 76q248 -148 248 -300q0 -183 -268 -183q-64 0 -117 12v92zM105 643q19 18 74 73l73 -73l-73 -73q-18 18 -74 73z" />
    <glyph glyph-name="uni0631" unicode="&#x631;" horiz-adv-x="388" 
d="M301 266q42 -101 42 -187q0 -273 -318 -333q-10 26 -31 79q262 49 263 251q0 68 -39 160q28 10 83 30z" />
    <glyph glyph-name="uni0632" unicode="&#x632;" horiz-adv-x="388" 
d="M301 266q42 -101 42 -187q0 -273 -318 -333q-10 26 -31 79q262 49 263 251q0 68 -39 160q28 10 83 30zM153 448l75 75q19 -19 76 -75l-76 -76q-18 19 -75 76z" />
    <glyph glyph-name="uni0633" unicode="&#x633;" horiz-adv-x="1235" 
d="M675 28q0 -80 -28 -136q-75 -152 -283 -152q-313 0 -313 291q0 104 45 214q27 -11 80 -33q-37 -95 -37 -180q0 -204 228 -204q222 0 224 223q0 92 -46 185l87 30q7 -23 29 -93q27 -81 111 -81q89 0 89 92q0 29 -1 51l-3 42q21 2 83 10q2 -29 8 -115q4 -79 76 -78
q72 0 71 106q0 51 -22 127q28 8 86 23q25 -78 24 -150q0 -113 -60 -167q-39 -33 -95 -33q-93 0 -123 71q-50 -71 -133 -71q-63 0 -97 28z" />
    <glyph glyph-name="uni0634" unicode="&#x634;" horiz-adv-x="1235" 
d="M811 606q17 18 70 71l72 -72q-18 -17 -71 -70q-18 17 -71 71zM892 472q18 18 72 71q18 -18 72 -71l-72 -72zM731 472q17 18 70 71q18 -18 72 -71l-72 -72q-17 18 -70 72zM675 28q0 -80 -28 -136q-75 -152 -283 -152q-313 0 -313 291q0 104 45 214q27 -11 80 -33
q-37 -95 -37 -180q0 -204 228 -204q222 0 224 223q0 92 -46 185l87 30q7 -23 29 -93q27 -81 111 -81q89 0 89 92q0 29 -1 51l-3 42q18 2 72 9q2 0 11 1q2 -29 8 -115q4 -79 76 -78q72 0 71 106q0 51 -22 127q28 8 86 23q25 -78 24 -150q0 -113 -60 -167q-39 -33 -95 -33
q-93 0 -123 71q-50 -71 -133 -71q-63 0 -97 28z" />
    <glyph glyph-name="uni0635" unicode="&#x635;" horiz-adv-x="1293" 
d="M661 173q21 -64 51 -66q170 289 343 289q73 0 122 -41q66 -55 66 -143q-2 -212 -362 -212h-25q-124 0 -181 28q0 -80 -28 -136q-75 -152 -283 -152q-313 0 -313 291q0 104 45 214q27 -11 80 -33q-37 -95 -37 -180q0 -204 228 -204q222 0 224 223q0 92 -46 185l87 30
q7 -23 29 -93zM880 92q271 0 272 116q0 51 -40 77q-24 17 -56 18q-114 0 -248 -211h72z" />
    <glyph glyph-name="uni0636" unicode="&#x636;" horiz-adv-x="1293" 
d="M963 592q18 18 73 72l73 -73q-18 -18 -73 -72zM661 173q21 -64 51 -66q166 282 334 288q4 1 9 1q73 0 122 -41q66 -55 66 -143q-2 -212 -362 -212h-25q-124 0 -181 28q0 -80 -28 -136q-75 -152 -283 -152q-313 0 -313 291q0 104 45 214q27 -11 80 -33q-37 -95 -37 -180
q0 -204 228 -204q222 0 224 223q0 92 -46 185l87 30q7 -23 29 -93zM880 92q271 0 272 116q0 51 -40 77q-24 17 -56 18q-114 0 -248 -211h72z" />
    <glyph glyph-name="uni0637" unicode="&#x637;" horiz-adv-x="740" 
d="M690 212q-2 -212 -361 -212h-278v92h110h1q9 14 36 57v555h86v-432q101 126 218 124q74 -1 122 -41q66 -55 66 -143zM504 303q-116 0 -249 -211h72q271 0 272 116q0 51 -39 77q-24 17 -56 18z" />
    <glyph glyph-name="uni0638" unicode="&#x638;" horiz-adv-x="740" 
d="M690 212q-2 -212 -361 -212h-278v92h110h1q9 14 36 57v555h86v-432q101 126 218 124q74 -1 122 -41q66 -55 66 -143zM504 303q-116 0 -249 -211h72q271 0 272 116q0 51 -39 77q-24 17 -56 18zM417 592q18 18 73 72l73 -73l-72 -72q-19 18 -74 73z" />
    <glyph glyph-name="uni0639" unicode="&#x639;" horiz-adv-x="673" 
d="M317 232q90 15 154 16q46 0 91 -5q-4 -30 -11 -88q-43 1 -59 1q-355 -10 -355 -228q0 -177 260 -177q104 0 204 48q6 -29 19 -87q-100 -49 -228 -49q-188 0 -275 92q-65 66 -65 169q0 196 180 275q-61 70 -61 149q0 34 13 69q14 33 41 62q51 53 142 53q77 0 166 -61
q-11 -25 -34 -75q-75 44 -127 44q-64 0 -94 -48q-15 -25 -15 -51q0 -22 12 -46q11 -23 42 -63z" />
    <glyph glyph-name="uni063a" unicode="&#x63a;" horiz-adv-x="673" 
d="M317 232q90 15 154 16q46 0 91 -5q-4 -30 -11 -88q-43 1 -59 1q-355 -10 -355 -228q0 -177 260 -177q104 0 204 48q6 -29 19 -87q-100 -49 -228 -49q-188 0 -275 92q-65 66 -65 169q0 196 180 275q-61 70 -61 149q0 34 13 69q14 33 41 62q48 50 133 53h9q77 0 166 -61
q-11 -25 -34 -75q-75 44 -127 44q-64 0 -94 -48q-15 -25 -15 -51q0 -22 12 -46q11 -23 42 -63zM280 684l72 72q19 -18 73 -73l-72 -72z" />
    <glyph glyph-name="uni0640" unicode="&#x640;" horiz-adv-x="143" 
d="M-3 0q-29 0 -29 44v9q0 39 29 39h151q10 0 10 -39v-9q0 -44 -10 -44h-151z" />
    <glyph glyph-name="uni0641" unicode="&#x641;" horiz-adv-x="911" 
d="M599 680q18 18 73 72q18 -18 72 -73l-72 -72zM859 236q-1 -141 -68 -191q-60 -45 -211 -45h-165q-366 0 -366 243q0 68 28 129q26 -12 79 -35q-17 -42 -17 -81q0 -164 269 -164h183q189 0 189 99v9q-46 -15 -100 -15q-161 0 -164 136q0 22 4 42q15 78 57 121
q40 42 100 43q2 1 3 1q43 0 74 -21q85 -55 101 -209q4 -33 4 -62zM599 335q0 -63 88 -63q42 0 85 13q-7 59 -25 99q-25 53 -70 53q-52 0 -73 -66q-5 -19 -5 -36z" />
    <glyph glyph-name="uni0642" unicode="&#x642;" horiz-adv-x="756" 
d="M373 -230q-322 0 -322 290q0 105 45 215q27 -11 80 -32q-37 -95 -37 -182q0 -203 238 -202q228 0 244 193v2q-45 -14 -99 -14q-162 -1 -165 136q0 21 4 41q17 80 57 122q42 42 104 42q15 1 29 -2q24 -4 45 -18q85 -56 104 -213q4 -36 4 -68q-1 -37 -5 -70
q-38 -240 -326 -240zM440 189q0 -63 88 -62q43 0 85 13q-6 58 -25 97q-24 55 -69 55q-52 0 -73 -68q-6 -18 -6 -35zM521 536l73 73l73 -73q-18 -19 -72 -73q-19 18 -74 73zM359 536q18 18 72 73l73 -73q-18 -19 -72 -73q-19 18 -73 73z" />
    <glyph glyph-name="uni0643" unicode="&#x643;" horiz-adv-x="945" 
d="M421 92q355 0 355 144v467h89v-466q0 -237 -434 -237v0q-381 0 -381 243q0 68 27 129q27 -12 79 -35q-16 -41 -16 -80q0 -165 281 -165zM343 331q47 -5 81 -6q53 0 80 11q27 12 28 35q0 21 -16 34q-15 14 -45 18q-107 16 -106 106q3 103 197 118v-64q-130 -12 -130 -58
q0 -37 69 -48q97 -14 96 -104q0 -61 -59 -93q-38 -20 -105 -20q-40 0 -90 7v64z" />
    <glyph glyph-name="uni0644" unicode="&#x644;" horiz-adv-x="720" 
d="M556 50q1 163 2 654h86v-555q0 -69 -5 -135q-21 -274 -288 -274q-300 0 -299 280q0 101 41 203q26 -11 79 -32q-33 -86 -33 -172q0 -191 212 -191q205 0 205 222z" />
    <glyph glyph-name="uni0645" unicode="&#x645;" horiz-adv-x="621" 
d="M421 79q65 0 65 69q-1 29 -11 56q-22 53 -79 54q-68 1 -105 -103q86 -76 130 -76zM572 155q0 -71 -35 -118q-35 -49 -111 -49q-51 0 -122 44q-24 15 -52 29q-16 8 -38 8q-77 -1 -76 -238q0 -98 7 -179h-90q-6 88 -6 167v14q2 171 40 247q39 76 107 87q74 185 199 185
q81 1 129 -58q48 -58 48 -139z" />
    <glyph glyph-name="uni0646" unicode="&#x646;" horiz-adv-x="728" 
d="M647 -73q-75 -152 -283 -152q-313 0 -313 290q0 105 45 215q27 -11 80 -32q-37 -96 -37 -181q0 -203 228 -203q222 0 224 222q0 92 -46 185l87 30q44 -120 44 -235q0 -81 -29 -139zM285 344q18 18 73 72l73 -73l-72 -72q-19 18 -74 73z" />
    <glyph glyph-name="uni0647" unicode="&#x647;" horiz-adv-x="471" 
d="M231 322q-95 -83 -95 -146q0 -84 101 -84q103 0 103 84q0 59 -109 146zM192 473q233 -170 233 -300q0 -94 -82 -145q-39 -25 -105 -26q-61 0 -103 22q-84 41 -84 149q0 103 113 215q-7 6 -22 19q13 17 50 66z" />
    <glyph glyph-name="uni0648" unicode="&#x648;" horiz-adv-x="430" 
d="M51 -175q217 40 254 182q-60 -8 -76 -8q-182 -1 -182 150q0 60 25 115q48 98 143 98q102 0 146 -114q30 -75 30 -164q0 -280 -309 -338q-10 26 -31 79zM305 101q-10 167 -97 167q-48 0 -68 -60q-9 -28 -9 -52q0 -68 98 -68q37 0 76 13z" />
    <glyph glyph-name="uni0649" unicode="&#x649;" horiz-adv-x="752" 
d="M139 42q0 -203 232 -204q89 0 158 33q37 17 64 45q28 28 28 64q0 28 -39 28q-19 1 -57 1q-125 0 -125 99q0 95 60 160q78 85 219 85h10v-97h-11q-80 0 -133 -36q-53 -37 -54 -92q0 -15 8 -21q9 -7 27 -7h59q119 0 119 -100q0 -145 -144 -211q-84 -38 -192 -38
q-316 0 -316 289q0 108 54 236q26 -10 79 -32q-46 -112 -46 -202z" />
    <glyph glyph-name="uni064a" unicode="&#x64a;" horiz-adv-x="752" 
d="M139 42q0 -203 232 -204q89 0 158 33q37 17 64 45q28 28 28 64q0 28 -39 28q-19 1 -57 1q-125 0 -125 99q0 95 60 160q78 85 219 85h10v-97h-11q-80 0 -133 -36q-53 -37 -54 -92q0 -15 8 -21q9 -7 27 -7h59q119 0 119 -100q0 -145 -144 -211q-61 -28 -134 -36
q-28 -2 -58 -2q-316 0 -316 289q0 108 54 236q26 -10 79 -32q-46 -112 -46 -202zM376 -397q19 18 73 73l74 -74q-19 -18 -73 -73q-18 19 -74 74zM214 -397l73 73q18 -19 73 -74l-73 -73q-18 19 -73 74z" />
    <glyph glyph-name="uni064b" unicode="&#x64b;" 
d="M164 538v52q56 23 227 93v-51q-57 -24 -227 -94zM164 644v52q56 23 227 93v-52q-57 -23 -227 -93z" />
    <glyph glyph-name="uni064c" unicode="&#x64c;" 
d="M294 859q-10 -12 -10 -27q0 -28 33 -42q11 -5 37 -13q14 23 14 47q0 49 -41 49q-21 0 -33 -14zM160 757q1 -113 67 -113q35 1 73 38q23 22 43 61l-15 3q-51 11 -69 35q-16 22 -16 47t9 42q21 42 73 42l1 1q35 0 57 -21q24 -23 24 -67q0 -20 -11 -54q5 -1 15 -1
q14 -1 29 -1v-40q-20 1 -25 2q-13 1 -38 3q-23 -55 -67 -94q-40 -35 -83 -35q-93 0 -95 152h28z" />
    <glyph glyph-name="uni064d" unicode="&#x64d;" 
d="M166 -223v52q57 23 228 93v-52q-57 -23 -228 -93zM166 -117v52q57 23 228 93v-52q-57 -23 -228 -93z" />
    <glyph glyph-name="uni064e" unicode="&#x64e;" 
d="M148 675v52q57 23 228 93v-52q-57 -24 -228 -93z" />
    <glyph glyph-name="uni064f" unicode="&#x64f;" 
d="M407 732q-31 0 -50 3l-16 1q-62 -88 -181 -95v39q92 4 138 69q-22 4 -45 16q-43 25 -43 68q1 32 18 54q23 27 64 27q30 0 52 -18q16 -13 24 -32q5 -15 5 -32q-1 -28 -13 -59q3 0 10 -1q19 -1 37 -1v-39zM320 780q1 2 3 7q10 24 10 45q0 20 -12 31q-13 10 -28 10
q-22 1 -34 -15q-9 -11 -9 -27q0 -23 33 -39q12 -5 37 -12z" />
    <glyph glyph-name="uni0650" unicode="&#x650;" 
d="M172 -173v52q56 23 227 93v-52q-57 -23 -227 -93z" />
    <glyph glyph-name="uni0651" unicode="&#x651;" 
d="M304 884q1 -20 1 -41q0 -46 34 -46t35 51q0 19 -9 59q15 2 44 6q10 -30 10 -61q0 -100 -74 -101q-32 0 -53 26q-15 -58 -76 -58q-68 0 -69 84v4q0 28 6 51l39 -6q-4 -24 -4 -42q0 -42 34 -42q41 0 43 56q1 26 0 60h39z" />
    <glyph glyph-name="uni0652" unicode="&#x652;" 
d="M199 731q0 41 29 69q28 28 68 28q41 0 70 -28t29 -69t-29 -70q-29 -28 -70 -28q-40 0 -68 28q-29 29 -29 70zM243 731q-1 -24 16 -40q16 -16 39 -16t39 16t17 40q-1 23 -17 39t-39 16t-39 -16q-17 -16 -16 -39z" />
    <glyph glyph-name="uni0653" unicode="&#x653;" 
d="M200 819q-56 7 -101 -47q-17 17 -51 52q59 85 144 72l75 -12q48 -8 109 23q11 -23 33 -68q-65 -40 -138 -31q-24 4 -71 11z" />
    <glyph glyph-name="uni0654" unicode="&#x654;" 
d="M221 913q-37 28 -37 80q0 44 29 75q35 37 89 37q38 0 70 -21q1 -22 1 -66q-32 21 -64 21t-49 -18q-13 -14 -13 -34q1 -30 47 -47q6 -3 12 -1q35 6 70 13v-63q-51 -12 -204 -49v62q13 3 49 11z" />
    <glyph glyph-name="uni0655" unicode="&#x655;" 
d="M221 -163q-37 28 -37 80q0 44 29 75q35 37 89 37q38 0 70 -21q1 -22 1 -66q-32 21 -64 21t-49 -18q-13 -14 -13 -34q1 -30 47 -47q6 -3 12 -1q35 6 70 13v-63q-51 -12 -204 -49v62q13 3 49 11z" />
    <glyph glyph-name="uni0657" unicode="&#x657;" 
d="M132 903q30 -2 65 -5q1 0 1 1q74 106 194 117v-39q-92 -14 -149 -88q31 -9 53 -25q33 -25 33 -64q0 -36 -22 -59q-22 -22 -56 -22q-38 0 -64 26q-21 21 -21 56q0 23 11 60q-20 2 -45 2v40zM251 758q20 1 30 14q7 11 7 27q0 29 -39 45q-15 7 -30 11q-14 -32 -14 -52
q0 -11 3 -19q5 -12 18 -19t25 -7z" />
    <glyph glyph-name="uni065a" unicode="&#x65a;" horiz-adv-x="568" 
d="M251 722q-24 40 -96 162h52l80 -120l80 120h52q-24 -41 -97 -162h-71z" />
    <glyph glyph-name="uni0660" unicode="&#x660;" horiz-adv-x="447" 
d="M155 272q0 -30 20 -51q10 -10 23 -15q13 -6 29 -6q29 0 50 21q10 11 15 23q5 13 5 28t-5 27q-5 13 -15 23q-21 21 -51 21q-15 0 -28 -6q-13 -5 -23 -15q-20 -21 -20 -50zM112 384q12 12 24 20q13 9 27 15q28 12 61 12q21 0 40 -6q20 -5 37 -16q19 -9 34 -25
q23 -24 35 -52q11 -28 11 -60q0 -65 -46 -112q-12 -11 -25 -20q-13 -8 -26 -15q-14 -5 -29 -8q-15 -2 -31 -2q-33 0 -61 11q-10 3 -18 9q-9 5 -17 12q-8 6 -16 13q-24 24 -35 52q-12 28 -12 60t12 60q11 28 35 52z" />
    <glyph glyph-name="uni0661" unicode="&#x661;" horiz-adv-x="358" 
d="M155 688q102 -224 102 -544v-138h-89v140q0 321 -96 513q28 10 83 29z" />
    <glyph glyph-name="uni0662" unicode="&#x662;" horiz-adv-x="599" 
d="M205 547q31 -86 138 -86q53 0 77 47q28 53 28 175q30 -1 90 -1q-1 -38 -2 -70q-10 -128 -55 -184q-49 -61 -137 -60q-67 0 -104 23v-3q17 -126 17 -244v-138h-89v140q0 321 -96 513q28 10 83 29q12 -35 50 -141z" />
    <glyph glyph-name="uni0663" unicode="&#x663;" horiz-adv-x="746" 
d="M240 388q17 -124 17 -244v-138h-89v140q0 321 -96 513q28 10 83 29q13 -39 54 -157q22 -62 96 -62q80 -1 77 128q0 20 -1 59q20 1 79 3q1 -19 2 -73q3 -120 78 -121q35 0 49 31q10 21 11 48q4 55 5 80v67h88v-66q0 -28 -4 -73q-14 -179 -145 -178q-76 1 -124 57l-1 1
q-1 0 -2 -1q-46 -58 -105 -58q-49 0 -69 16l-3 3v-4z" />
    <glyph glyph-name="uni0664" unicode="&#x664;" horiz-adv-x="523" 
d="M69 149v6q1 118 197 205q-155 31 -155 153q0 46 24 80q56 82 198 83q3 1 6 1q31 0 66 -5q-2 -30 -6 -91q-26 3 -47 3q-141 0 -141 -80q-1 -70 178 -84q0 -31 1 -92q-233 -93 -227 -175q4 -62 194 -61h97q0 -23 1 -92h-102q-278 1 -284 149z" />
    <glyph glyph-name="uni0665" unicode="&#x665;" horiz-adv-x="583" 
d="M278 513q-135 -145 -135 -269q0 -76 52 -116q41 -33 109 -33q65 0 106 48q31 37 30 105q0 141 -162 265zM176 593q14 20 55 79q297 -189 297 -436q0 -138 -90 -194q-62 -38 -135 -38q-83 0 -149 36q-100 54 -100 192q0 2 1 4q1 172 149 336q-10 7 -28 21z" />
    <glyph glyph-name="uni0666" unicode="&#x666;" horiz-adv-x="632" 
d="M467 6q-60 248 -67 558q-84 -24 -168 -24q-99 0 -192 41v106q100 -46 215 -46q111 0 228 47q5 -439 78 -682h-94z" />
    <glyph glyph-name="uni0667" unicode="&#x667;" horiz-adv-x="640" 
d="M592 645q-160 -320 -230 -639h-83q-71 320 -230 639q28 14 84 43q134 -287 187 -524q53 237 187 524q28 -14 85 -43z" />
    <glyph glyph-name="uni0668" unicode="&#x668;" horiz-adv-x="640" 
d="M592 39l-85 -43q-134 286 -187 524q-53 -237 -187 -524l-84 43q159 318 230 639h83q70 -320 230 -639z" />
    <glyph glyph-name="uni0669" unicode="&#x669;" horiz-adv-x="569" 
d="M250 288q-194 0 -194 175q0 73 35 129q61 98 166 98q184 0 198 -250q10 -220 16 -434h-86q-2 79 -7 315q-68 -33 -128 -33v0zM252 383q52 0 117 32q0 3 -1 11q-14 169 -106 169q-57 0 -89 -45q-29 -40 -29 -82q0 -85 108 -85z" />
    <glyph glyph-name="uni066a" unicode="&#x66a;" horiz-adv-x="644" 
d="M375 172q0 36 25 60q24 24 59 25q18 0 33 -6q15 -7 27 -19t18 -27q7 -15 7 -33q0 -35 -25 -59q-25 -25 -60 -25t-59 25q-25 24 -25 59zM100 600q0 35 25 59q25 25 60 25t59 -25q25 -24 25 -59q0 -36 -25 -60q-12 -12 -27 -18q-14 -6 -32 -6q-35 0 -60 24t-25 60zM436 704
q20 -10 77 -40q-84 -162 -336 -647q-19 10 -76 42q84 161 335 645z" />
    <glyph glyph-name="uni066b" unicode="&#x66b;" horiz-adv-x="411" 
d="M267 409q16 -7 65 -28l-232 -536q-17 8 -67 30q58 133 234 534z" />
    <glyph glyph-name="uni066c" unicode="&#x66c;" horiz-adv-x="294" 
d="M73 71q1 24 10 40q18 32 62 32q74 1 87 -64q2 -12 2 -26q0 -25 -8 -57q-30 -112 -131 -196q-12 5 -36 16q97 88 103 184h-2h-3q-14 0 -24 1q-61 13 -60 70z" />
    <glyph glyph-name="uni066d" unicode="&#x66d;" horiz-adv-x="792" 
d="M116 520h216v0h1q17 52 67 205q17 -51 67 -205h1v0h216q-44 -32 -174 -128h-1v-1q17 -51 67 -204q-44 31 -175 126h-1h-1q-44 -32 -175 -126q17 51 67 204v1h-1q-43 32 -174 128z" />
    <glyph glyph-name="uni066e" unicode="&#x66e;" horiz-adv-x="904" 
d="M431 0q-381 0 -381 243q0 68 27 129q27 -12 79 -35q-16 -41 -16 -80q0 -165 281 -165q251 0 316 48q32 24 32 83q0 45 -18 122l81 21q25 -75 25 -136q0 -118 -69 -167q-90 -63 -356 -63h-1z" />
    <glyph glyph-name="uni066f" unicode="&#x66f;" horiz-adv-x="756" 
d="M373 -230q-322 0 -322 290q0 105 45 215q27 -11 80 -32q-37 -95 -37 -182q0 -203 238 -202q228 0 244 193v2q-45 -14 -99 -14q-162 -1 -165 136q0 21 4 41q17 80 57 122q42 42 104 42q1 1 2 1q41 -1 72 -21q85 -56 104 -213q4 -36 4 -68q-1 -37 -5 -70
q-38 -240 -326 -240zM440 189q0 -63 88 -62q43 0 85 13q-6 58 -25 97q-24 55 -69 55q-52 0 -73 -68q-6 -18 -6 -35z" />
    <glyph glyph-name="uni0670" unicode="&#x670;" 
d="M296 784v201h44v-201h-44z" />
    <glyph glyph-name="uni0674" unicode="&#x674;" horiz-adv-x="276" 
d="M88 985q-37 28 -37 80q0 44 29 75q35 37 88 37q38 0 71 -21q0 -22 1 -66q-32 21 -64 21t-49 -18q-14 -14 -14 -34q1 -30 47 -47q7 -3 12 -1q36 6 71 13v-63q-51 -12 -204 -49v62q12 3 49 11z" />
    <glyph glyph-name="uni067e" unicode="&#x67e;" horiz-adv-x="904" 
d="M431 0q-381 0 -381 243q0 68 27 129q27 -12 79 -35q-16 -41 -16 -80q0 -165 281 -165q251 0 316 48q32 24 32 83q0 45 -18 122l81 21q25 -75 25 -136q0 -118 -69 -167q-85 -60 -328 -63h-28h-1zM393 -284q18 17 71 71q18 -18 72 -71l-72 -72q-18 18 -71 72zM475 -151
q18 18 72 71q18 -17 71 -70l-71 -71q-18 17 -72 70zM313 -151l71 71q18 -17 72 -70q-18 -18 -72 -71q-18 17 -71 70z" />
    <glyph glyph-name="uni0686" unicode="&#x686;" horiz-adv-x="683" 
d="M63 -72q0 292 357 371q2 0 5 1q-13 5 -57 23q-97 39 -133 39q-56 0 -93 -47q-5 -6 -14 -18q-19 9 -77 38q2 4 8 14q63 103 177 104v0q63 0 152 -43q156 -76 241 -79l-6 -87q-88 -6 -147 -19q-328 -77 -328 -289q0 -185 265 -185q108 0 208 48q6 -29 19 -87
q-100 -48 -234 -48q-195 0 -279 90q-64 70 -64 174zM340 -108l72 72q18 -18 71 -72q-18 -17 -71 -71q-18 18 -72 71zM423 27q18 17 72 70l70 -70q-17 -18 -71 -71q-18 17 -71 71zM260 27q18 17 72 70q17 -17 71 -70q-18 -18 -72 -71q-18 17 -71 71z" />
    <glyph glyph-name="uni0698" unicode="&#x698;" horiz-adv-x="420" 
d="M301 266q42 -101 42 -187q0 -273 -318 -333q-10 26 -31 79q262 49 263 251q0 68 -39 160q28 10 83 30zM156 563q18 17 71 71l72 -72l-71 -71zM238 428q18 18 71 72l72 -72l-71 -71q-18 18 -72 71zM76 428q18 18 71 72l72 -72q-18 -18 -72 -71z" />
    <glyph glyph-name="uni06a1" unicode="&#x6a1;" horiz-adv-x="911" 
d="M859 236q-1 -141 -68 -191q-60 -45 -211 -45h-165q-366 0 -366 243q0 68 28 129q26 -12 79 -35q-17 -42 -17 -81q0 -164 269 -164h183q189 0 189 99v9q-46 -15 -100 -15q-161 0 -164 136q0 22 4 42q15 78 57 121q42 44 103 44q43 0 74 -21q85 -55 101 -209q4 -33 4 -62z
M599 335q0 -63 88 -63q42 0 85 13q-7 59 -25 99q-25 53 -70 53q-52 0 -73 -66q-5 -19 -5 -36z" />
    <glyph glyph-name="uni06a9" unicode="&#x6a9;" horiz-adv-x="924" 
d="M749 330q66 -70 64 -155q-3 -175 -306 -175h-91q-367 0 -367 243q0 68 28 129q26 -12 79 -35q-17 -42 -17 -81q1 -164 277 -164h91q217 0 217 96q0 48 -52 97q-77 71 -137 119q-57 44 -57 93q0 64 70 91q116 44 347 132v-91q-84 -31 -336 -125q132 -111 190 -174z" />
    <glyph glyph-name="uni06af" unicode="&#x6af;" horiz-adv-x="924" 
d="M749 330q66 -70 64 -155q-3 -175 -306 -175h-91q-367 0 -367 243q0 68 28 129q26 -12 79 -35q-17 -42 -17 -81q1 -164 277 -164h91q217 0 217 96q0 48 -52 97q-77 71 -137 119q-57 44 -57 93q0 64 70 91q116 44 347 132v-91q-84 -31 -336 -125q132 -111 190 -174z
M892 792l-392 -152v65q98 38 392 151v-64z" />
    <glyph glyph-name="uni06ba" unicode="&#x6ba;" horiz-adv-x="728" 
d="M647 -73q-75 -152 -283 -152q-313 0 -313 290q0 105 45 215q27 -11 80 -32q-37 -96 -37 -181q0 -203 228 -203q222 0 224 222q0 92 -46 185l87 30q44 -120 44 -235q0 -81 -29 -139z" />
    <glyph glyph-name="uni06c0" unicode="&#x6c0;" horiz-adv-x="471" 
d="M91 622q30 -6 57 -6q80 0 111 24q23 20 23 40q0 13 -18 13q-17 1 -51 2q-58 1 -58 60q0 61 62 101q45 28 124 28q-2 -21 -5 -63q-113 -2 -120 -60q-1 -2 -1 -5q14 -1 56 -2q58 -2 68 -50q9 -49 -34 -97q-40 -44 -122 -52q-18 -2 -38 -2q-30 0 -64 6q3 21 10 63zM231 322
q-95 -83 -95 -146q0 -84 101 -84q103 0 103 84q0 59 -109 146zM192 473q233 -170 233 -300q0 -94 -82 -145q-39 -25 -105 -26q-61 0 -103 22q-84 41 -84 149q0 103 113 215q-7 6 -22 19q13 17 50 66z" />
    <glyph glyph-name="uni06ca" unicode="&#x6ca;" horiz-adv-x="430" 
d="M223 518l68 68l69 -69l-68 -68zM71 518l68 68l69 -69l-68 -68zM51 -175q217 40 254 182q-60 -8 -76 -8q-182 -1 -182 150q0 60 25 115q48 98 143 98q16 0 31 -3q79 -15 115 -111q30 -75 30 -164q0 -280 -309 -338q-10 26 -31 79zM305 101q-10 167 -97 167q-48 0 -68 -60
q-9 -28 -9 -52q0 -68 98 -68q37 0 76 13z" />
    <glyph glyph-name="uni06cc" unicode="&#x6cc;" horiz-adv-x="752" 
d="M139 42q0 -203 232 -204q89 0 158 33q37 17 64 45q28 28 28 64q0 28 -39 28q-19 1 -57 1q-125 0 -125 99q0 95 60 160q78 85 219 85h10v-97h-11q-80 0 -133 -36q-53 -37 -54 -92q0 -15 8 -21q9 -7 27 -7h59q119 0 119 -100q0 -145 -144 -211q-84 -38 -192 -38
q-316 0 -316 289q0 108 54 236q26 -10 79 -32q-46 -112 -46 -202z" />
    <glyph glyph-name="uni06d5" unicode="&#x6d5;" horiz-adv-x="471" 
d="M231 322q-95 -83 -95 -146q0 -84 101 -84q103 0 103 84q0 59 -109 146zM192 473q233 -170 233 -300q0 -94 -82 -145q-39 -25 -105 -26q-61 0 -103 22q-84 41 -84 149q0 103 113 215q-7 6 -22 19q13 17 50 66z" />
    <glyph glyph-name="uni06f0" unicode="&#x6f0;" horiz-adv-x="447" 
d="M155 272q0 -30 20 -51q10 -10 23 -15q13 -6 29 -6q29 0 50 21q10 11 15 23q5 13 5 28t-5 27q-5 13 -15 23q-21 21 -51 21q-15 0 -28 -6q-13 -5 -23 -15q-20 -21 -20 -50zM112 384q12 12 24 20q13 9 27 15q28 12 61 12q21 0 40 -6q20 -5 37 -16q19 -9 34 -25
q23 -24 35 -52q11 -28 11 -60q0 -65 -46 -112q-12 -11 -25 -20q-13 -8 -26 -15q-14 -5 -29 -8q-15 -2 -31 -2q-33 0 -61 11q-10 3 -18 9q-9 5 -17 12q-8 6 -16 13q-24 24 -35 52q-12 28 -12 60t12 60q11 28 35 52z" />
    <glyph glyph-name="uni06f1" unicode="&#x6f1;" horiz-adv-x="358" 
d="M155 688q102 -224 102 -544v-138h-89v140q0 321 -96 513q28 10 83 29z" />
    <glyph glyph-name="uni06f2" unicode="&#x6f2;" horiz-adv-x="599" 
d="M205 547q31 -86 138 -86q53 0 77 47q28 53 28 175q30 -1 90 -1q-1 -38 -2 -70q-10 -128 -55 -184q-49 -61 -137 -60q-67 0 -104 23v-3q17 -126 17 -244v-138h-89v140q0 321 -96 513q28 10 83 29q12 -35 50 -141z" />
    <glyph glyph-name="uni06f3" unicode="&#x6f3;" horiz-adv-x="746" 
d="M240 388q17 -124 17 -244v-138h-89v140q0 321 -96 513q28 10 83 29q13 -39 54 -157q22 -62 96 -62q80 -1 77 128q0 20 -1 59q20 1 79 3q1 -19 2 -73q3 -120 78 -121q35 0 49 31q10 21 11 48q4 55 5 80v67h88v-66q0 -28 -4 -73q-14 -179 -145 -178q-76 1 -124 57l-1 1
q-1 0 -2 -1q-46 -58 -105 -58q-49 0 -69 16l-3 3v-4z" />
    <glyph glyph-name="uni06f4" unicode="&#x6f4;" horiz-adv-x="622" 
d="M541 670q-5 -21 -21 -86q-39 16 -80 16q-52 0 -87 -26q-57 -43 -65 -110q-2 -23 40 -45q36 -19 99 -19q69 0 130 25l12 -87q-62 -27 -132 -27h-1q-137 0 -197 72q0 -2 1 -6q17 -122 17 -233v-138h-89v140q0 321 -96 513q28 10 83 29q28 -80 61 -180q3 9 8 25
q21 74 74 117q54 45 130 45q60 0 113 -25z" />
    <glyph glyph-name="uni06f5" unicode="&#x6f5;" horiz-adv-x="644" 
d="M142 169q0 -70 47 -70q75 0 106 148q21 -1 62 -1q25 -149 92 -149q53 0 53 73q0 167 -187 355q-173 -227 -173 -356zM181 6q-126 0 -126 163t192 421l1 1q-1 0 -1 1q-7 6 -27 25q15 19 61 76q16 -15 63 -60q246 -241 245 -458q0 -169 -132 -169q-93 0 -131 106
q-35 -106 -145 -106z" />
    <glyph glyph-name="uni06f6" unicode="&#x6f6;" horiz-adv-x="552" 
d="M376 592q-26 3 -57 3q-96 0 -135 -43q-28 -32 -28 -70q0 -107 188 -108q1 0 1 1q100 54 142 71q1 -31 4 -93q-222 -100 -332 -367q-28 9 -84 28q65 162 188 284q-200 19 -199 186q0 48 19 87q58 118 220 117q40 0 86 -7q-4 -30 -13 -89z" />
    <glyph glyph-name="uni06f7" unicode="&#x6f7;" horiz-adv-x="640" 
d="M592 645q-160 -320 -230 -639h-83q-71 320 -230 639q28 14 84 43q134 -287 187 -524q53 237 187 524q28 -14 85 -43z" />
    <glyph glyph-name="uni06f8" unicode="&#x6f8;" horiz-adv-x="640" 
d="M592 39l-85 -43q-134 286 -187 524q-53 -237 -187 -524l-84 43q159 318 230 639h83q70 -320 230 -639z" />
    <glyph glyph-name="uni06f9" unicode="&#x6f9;" horiz-adv-x="569" 
d="M250 288q-194 0 -194 175q0 73 35 129q61 98 166 98q184 0 198 -250q10 -220 16 -434h-86q-2 79 -7 315q-68 -33 -128 -33v0zM252 383q52 0 117 32q0 3 -1 11q-14 169 -106 169q-57 0 -89 -45q-29 -40 -29 -82q0 -85 108 -85z" />
    <glyph glyph-name="uni2000" unicode="&#x2000;" horiz-adv-x="522" 
 />
    <glyph glyph-name="uni2001" unicode="&#x2001;" horiz-adv-x="1044" 
 />
    <glyph glyph-name="uni2002" unicode="&#x2002;" horiz-adv-x="522" 
 />
    <glyph glyph-name="uni2003" unicode="&#x2003;" horiz-adv-x="1044" 
 />
    <glyph glyph-name="uni2004" unicode="&#x2004;" horiz-adv-x="348" 
 />
    <glyph glyph-name="uni2005" unicode="&#x2005;" horiz-adv-x="261" 
 />
    <glyph glyph-name="uni2006" unicode="&#x2006;" horiz-adv-x="174" 
 />
    <glyph glyph-name="uni2007" unicode="&#x2007;" horiz-adv-x="576" 
 />
    <glyph glyph-name="uni2008" unicode="&#x2008;" horiz-adv-x="280" 
 />
    <glyph glyph-name="uni2009" unicode="&#x2009;" horiz-adv-x="209" 
 />
    <glyph glyph-name="uni200a" unicode="&#x200a;" horiz-adv-x="104" 
 />
    <glyph glyph-name="uni200b" unicode="&#x200b;" 
 />
    <glyph glyph-name="uni200c" unicode="&#x200c;" 
 />
    <glyph glyph-name="uni200d" unicode="&#x200d;" 
 />
    <glyph glyph-name="endash" unicode="&#x2013;" horiz-adv-x="672" 
d="M583 325h-502v76h502v-76z" />
    <glyph glyph-name="emdash" unicode="&#x2014;" horiz-adv-x="800" 
d="M740 325h-668v76h668v-76z" />
    <glyph glyph-name="uni2015" unicode="&#x2015;" horiz-adv-x="800" 
d="M740 325h-668v76h668v-76z" />
    <glyph glyph-name="uni2017" unicode="&#x2017;" horiz-adv-x="467" 
d="M464 -202h-457v75h305h152v-75zM464 -76h-457v76h457v-76z" />
    <glyph glyph-name="quoteleft" unicode="&#x2018;" horiz-adv-x="204" 
d="M48 596q0 23 6 48q6 24 17 48t27 46q17 22 37 39q18 -12 53 -36q-24 -33 -36 -67q-12 -35 -12 -76v-62h-92v60z" />
    <glyph glyph-name="quoteright" unicode="&#x2019;" horiz-adv-x="204" 
d="M164 704q0 -23 -6 -48q-6 -24 -18 -48q-11 -24 -27 -46t-37 -39q-17 12 -52 36q24 33 36 68q12 34 12 76v65h92v-64z" />
    <glyph glyph-name="quotesinglbase" unicode="&#x201a;" horiz-adv-x="204" 
d="M157 39q0 -23 -5 -47q-6 -24 -17 -48t-27 -46t-37 -39q-18 12 -53 36q23 33 35 68q12 34 12 74v54h92v-52z" />
    <glyph glyph-name="uni201b" unicode="&#x201b;" horiz-adv-x="205" 
d="M40 704v64h92v-65q0 -42 12 -76q12 -35 36 -68q-18 -12 -53 -36q-21 17 -37 39t-27 46t-17 48q-6 25 -6 48z" />
    <glyph glyph-name="quotedblleft" unicode="&#x201c;" horiz-adv-x="362" 
d="M52 596q0 23 6 48q6 24 17 48t27 46q17 22 37 39q18 -12 53 -36q-24 -33 -36 -67q-12 -35 -12 -76v-62h-92v60zM209 596q0 23 6 48q6 24 17 48q12 24 28 46t36 39q18 -12 53 -36q-24 -33 -36 -67q-12 -35 -12 -76v-62h-92v60z" />
    <glyph glyph-name="quotedblright" unicode="&#x201d;" horiz-adv-x="365" 
d="M169 704q0 -23 -5 -48q-6 -24 -17 -48t-27 -46t-37 -39q-18 12 -53 36q23 33 36 68q12 34 12 76v65h91v-64zM323 704q0 -23 -6 -48q-5 -24 -17 -48q-11 -24 -27 -46t-37 -39q-17 12 -52 36q23 33 35 68q13 34 13 76v65h91v-64z" />
    <glyph glyph-name="quotedblbase" unicode="&#x201e;" horiz-adv-x="352" 
d="M157 39q0 -23 -5 -49q-6 -26 -17 -51q-11 -26 -27 -49q-16 -22 -37 -41q-18 12 -53 36q23 36 35 73t12 79v86h92v-84zM306 39q0 -23 -6 -49q-5 -26 -17 -51q-11 -26 -27 -49q-16 -22 -37 -41q-18 12 -53 36q23 36 35 73t12 79v86h93v-84z" />
    <glyph glyph-name="dagger" unicode="&#x2020;" horiz-adv-x="564" 
d="M530 464h-202v-464h-93v464h-200v77h200v187h93v-187h202v-77z" />
    <glyph glyph-name="daggerdbl" unicode="&#x2021;" horiz-adv-x="584" 
d="M538 0h-203v-208h-93v208h-198v76h198v388h-198v77h198v187h93v-187h203v-77h-203v-388h203v-76z" />
    <glyph glyph-name="bullet" unicode="&#x2022;" horiz-adv-x="345" 
d="M69 396q0 22 7 40q8 19 20 32q13 12 32 20t43 8t43 -8q18 -8 31 -20q14 -13 21 -32q7 -18 7 -40v-30q0 -22 -7 -40t-21 -31q-13 -13 -31 -20q-19 -7 -43 -7q-23 0 -42 7t-33 20q-12 13 -20 31q-7 18 -7 40v30z" />
    <glyph glyph-name="uni2025" unicode="&#x2025;" horiz-adv-x="482" 
d="M95 70q0 28 19 48q20 20 48 20t48 -20q19 -20 19 -48q0 -27 -19 -47q-20 -20 -48 -20q-25 0 -42 15q-14 11 -20 26q-5 12 -5 26zM313 70q0 28 20 48q19 20 47 20t48 -20t20 -48q0 -27 -20 -47t-48 -20q-24 0 -42 15q-14 11 -20 26q-5 12 -5 26z" />
    <glyph glyph-name="ellipsis" unicode="&#x2026;" horiz-adv-x="685" 
d="M95 70q0 28 19 48q20 20 48 20t48 -20q19 -20 19 -48q0 -27 -19 -47q-20 -20 -48 -20q-25 0 -42 15q-14 11 -20 26q-5 12 -5 26zM313 70q0 28 20 48q19 20 47 20t48 -20t20 -48q0 -27 -20 -47t-48 -20q-24 0 -42 15q-14 11 -20 26q-5 12 -5 26zM520 70q0 28 20 48t48 20
t48 -20t20 -48q0 -27 -20 -47t-48 -20q-24 0 -43 15q-13 11 -20 26q-5 12 -5 26z" />
    <glyph glyph-name="uni202f" unicode="&#x202f;" horiz-adv-x="63" 
 />
    <glyph glyph-name="perthousand" unicode="&#x2030;" horiz-adv-x="981" 
d="M412 179q0 30 10 57q10 28 30 48q10 11 22 19t25 13q27 12 61 12q40 0 68 -16q29 -16 48 -44q17 28 46 44t68 16q35 0 63 -12q27 -12 47 -32q19 -20 29 -48q11 -27 11 -57v-39q0 -32 -11 -59q-10 -27 -29 -48q-19 -20 -47 -32t-62 -12q-39 0 -68 17q-30 16 -47 43
q-18 -27 -47 -43q-29 -17 -68 -17q-34 0 -62 12t-47 32q-20 21 -30 48t-10 59v39zM34 588q0 31 10 58q11 27 30 48t47 33q27 12 62 12t63 -12q27 -12 46 -33q20 -21 30 -48t10 -58v-39q0 -30 -10 -57t-28 -47l-1 -1q-19 -20 -47 -32q-27 -12 -62 -12t-63 12t-47 32t-30 48
q-10 27 -10 57v39zM481 140q0 -18 5 -34q5 -17 15 -29q10 -13 25 -20q15 -8 35 -8t35 8q16 7 25 20q11 12 15 29q5 16 5 34v39q0 17 -5 33t-15 29q-10 12 -25 20q-15 7 -36 7q-20 0 -34 -7q-15 -8 -26 -20q-9 -13 -14 -29t-5 -33v-39zM710 140q0 -18 5 -34q5 -17 15 -29
q10 -13 25 -20q15 -8 36 -8q20 0 35 8q14 7 24 20q10 12 15 29q5 16 5 34v39q0 17 -5 33t-15 29q-10 12 -25 20q-15 7 -36 7q-20 0 -35 -7q-14 -8 -25 -20q-9 -13 -14 -29t-5 -33v-39zM104 549q0 -17 4 -33q5 -16 16 -28q9 -13 24 -20q16 -8 36 -8t35 8q15 7 25 19
q10 13 15 29t5 33v39q0 17 -6 34q-5 17 -14 29q-11 13 -26 20q-14 8 -35 8q-20 0 -35 -8q-15 -7 -25 -20q-10 -12 -15 -29q-4 -17 -4 -34v-39zM215 55q-13 8 -52 33q88 142 355 569q13 -8 52 -33q-89 -142 -355 -569z" />
    <glyph glyph-name="uni2032" unicode="&#x2032;" horiz-adv-x="179" 
d="M127 712q-3 -46 -11 -184h-64v176v64h75v-56z" />
    <glyph glyph-name="uni2033" unicode="&#x2033;" horiz-adv-x="328" 
d="M139 700q-4 -45 -15 -179h-56v174v73h71v-68zM273 700q-3 -45 -14 -179h-56q0 44 1 178v69h69v-68z" />
    <glyph glyph-name="guilsinglleft" unicode="&#x2039;" horiz-adv-x="307" 
d="M143 275q32 -50 129 -199h-71q-36 49 -147 195v9q37 49 147 195h71q-32 -50 -129 -200z" />
    <glyph glyph-name="guilsinglright" unicode="&#x203a;" horiz-adv-x="307" 
d="M116 475q36 -49 147 -195v-9q-37 -49 -147 -195h-72q33 50 129 199q-32 50 -129 200h72z" />
    <glyph glyph-name="uni203c" unicode="&#x203c;" horiz-adv-x="527" 
d="M92 70q0 28 20 48q18 18 41 20h7q28 0 48 -20t20 -48q0 -27 -20 -47t-48 -20q-24 0 -43 15q-13 11 -20 26q-5 12 -5 26zM107 704h109q-4 -120 -13 -480h-43h-40q-4 120 -13 480zM356 70q0 28 20 48t48 20t47 -20q20 -20 20 -48q0 -27 -20 -47q-19 -20 -47 -20
q-25 0 -43 15q-13 11 -20 26q-5 12 -5 26zM370 704h109l-12 -480h-84q-3 120 -13 480z" />
    <glyph glyph-name="fraction" unicode="&#x2044;" horiz-adv-x="465" 
d="M81 55q-13 8 -52 33q89 142 356 569q13 -8 52 -33q-89 -142 -356 -569z" />
    <glyph glyph-name="uni2074" unicode="&#x2074;" horiz-adv-x="376" 
d="M296 483h53v-65h-53v-85h-79v85h-187q-1 13 -3 51q47 65 189 259h80v-245zM106 483h111v145q-2 -4 -8 -15q-26 -32 -103 -130z" />
    <glyph glyph-name="uni207f" unicode="&#x207f;" horiz-adv-x="432" 
d="M125 725q4 -15 15 -61q17 32 45 51q28 18 65 18q30 0 54 -9q24 -8 40 -28q17 -18 27 -47q9 -29 9 -69v-255h-85v239q0 27 -5 45q-6 19 -15 31q-9 11 -22 16t-30 5q-30 0 -48 -15q-19 -14 -29 -39v-282h-85v400h64z" />
    <glyph glyph-name="franc" unicode="&#x20a3;" horiz-adv-x="566" 
d="M327 133h-318v75h318v-75zM486 321h-306v-321h-96v728h452v-79h-356v-249h306v-79z" />
    <glyph glyph-name="uni20a4" unicode="&#x20a4;" horiz-adv-x="595" 
d="M395 235h-168q0 -8 1 -34q0 -35 -7 -67q-8 -32 -24 -55h367v-79h-516v79h38q13 2 22 16q8 13 14 31t8 38t2 36q0 12 -1 35h-86v62h83q0 17 -1 68h-82v63h79q-1 23 -3 92q0 51 17 92q17 40 46 68q30 28 71 43t89 15t86 -14q39 -15 65 -40t40 -61t14 -79h-95q0 31 -10 53
t-27 35q-16 15 -37 21q-22 6 -45 6q-24 0 -46 -9q-21 -10 -37 -27q-16 -18 -25 -44q-10 -26 -10 -59q1 -31 3 -92h175v-63h-172q1 -17 2 -68h170v-62z" />
    <glyph glyph-name="uni20a7" unicode="&#x20a7;" horiz-adv-x="840" 
d="M176 283v-283h-92v728h188q63 0 106 -17q44 -16 72 -47q28 -29 41 -70t13 -89t-13 -89q-13 -40 -41 -71q-8 -8 -18 -16q-23 -18 -54 -30q-43 -16 -106 -16h-96zM176 359h96q44 0 71 12q27 13 42 33t21 46q5 26 5 54t-5 55q-6 26 -21 47t-42 34q-27 12 -71 12h-96v-293z
M665 672v-131h102v-72h-102v-335q0 -21 5 -34q6 -12 14 -20q8 -7 19 -9q10 -2 22 -2q11 0 24 2t20 4v-75q-11 -3 -28 -6q-18 -4 -43 -4q-26 0 -48 7q-23 7 -40 24q-17 18 -27 45q-10 28 -10 69v334h-98v72h98v131h92z" />
    <glyph glyph-name="uni20ab" unicode="&#x20ab;" horiz-adv-x="592" 
d="M598 617h-318v75h318v-75zM48 275q0 62 15 113t43 87t67 56t88 20q50 0 87 -17q36 -17 64 -48v282h92v-768h-85q-1 14 -4 58q-27 -33 -65 -50q-38 -18 -90 -18q-48 0 -87 21q-39 20 -67 57q-28 36 -43 87q-15 50 -15 109v11zM140 264q0 -40 8 -76t26 -62t44 -42
q27 -16 65 -16q25 0 44 6q20 6 35 17q16 10 28 24q13 15 22 33v248q-9 16 -21 30t-28 25q-16 10 -35 16q-20 5 -44 5q-38 0 -65 -15q-27 -16 -45 -43t-26 -63q-8 -35 -8 -76v-11zM540 -153h-459v75h330h129v-75z" />
    <glyph glyph-name="uni20ac" unicode="&#x20ac;" horiz-adv-x="575" 
d="M424 271h-192q1 -52 14 -90t35 -64q23 -25 55 -37t71 -12q29 0 56 4q28 4 53 13q3 -27 10 -80q-28 -7 -58 -11q-31 -4 -62 -4q-58 0 -108 18q-49 17 -84 52t-56 88q-20 52 -22 123h-88v61h88v69h-88v63h88q3 68 24 119q20 52 56 86q35 35 83 52q49 17 106 17q32 0 61 -4
q30 -5 60 -11q-3 -27 -10 -82q-25 8 -53 13q-27 5 -56 5q-39 0 -70 -12q-32 -11 -54 -36q-23 -24 -35 -61q-13 -37 -15 -86h191v-63h-192v-69h192v-61z" />
    <glyph glyph-name="uni2105" unicode="&#x2105;" horiz-adv-x="756" 
d="M340 527q0 -26 -9 -49q-10 -23 -27 -41q-9 -8 -20 -15t-24 -12q-25 -10 -57 -10q-33 0 -59 12q-27 12 -45 32t-28 48q-10 27 -10 57v39q0 31 10 58t28 48t44 33t58 12q33 0 59 -11q25 -10 44 -28q17 -16 27 -40q9 -24 9 -49h-69q0 13 -4 25t-13 21q-9 10 -22 16
q-12 6 -31 6q-17 0 -30 -8q-14 -7 -23 -20q-8 -12 -12 -29q-5 -17 -5 -34v-39q0 -17 5 -33q4 -16 13 -28q9 -13 22 -20q13 -8 32 -8q17 0 30 6t22 15q8 11 12 22q4 12 4 24h69zM407 179q0 30 10 57q11 28 30 48q12 12 26 22q10 6 21 10q27 12 62 12t63 -12t46 -32
q20 -20 30 -48q10 -27 10 -57v-39q0 -32 -10 -59t-29 -48q-19 -20 -47 -32q-27 -12 -62 -12t-63 12q-27 12 -47 32q-19 21 -30 48q-10 27 -10 59v39zM476 140q0 -18 6 -34q5 -17 14 -29q11 -13 26 -20q14 -8 35 -8q20 0 35 8q15 7 25 20q10 12 15 29q4 16 4 34v39
q0 17 -4 33q-5 16 -16 29q-9 12 -24 20q-16 7 -36 7t-35 -7q-15 -8 -25 -20q-9 -13 -14 -29q-6 -16 -6 -33v-39zM223 55q-13 8 -52 33q88 142 355 569q13 -8 52 -33q-89 -142 -355 -569z" />
    <glyph glyph-name="uni2113" unicode="&#x2113;" horiz-adv-x="487" 
d="M358 -11q-51 0 -89 16t-64 46q-25 30 -37 72q-12 41 -12 93v8q-24 -7 -50 -11q-26 -3 -54 -3v88q29 0 55 4q26 5 49 14v272q0 44 10 80q10 35 29 59q19 25 46 37q27 13 60 13q30 0 55 -11q24 -10 43 -31q17 -20 28 -49q10 -30 10 -66v-21q0 -44 -12 -92q-13 -47 -37 -91
q-24 -45 -59 -84t-81 -68v-48q0 -35 6 -62t18 -46q13 -20 34 -30t52 -10v-79zM248 373q25 24 43 52t30 58q12 29 18 59q5 30 5 56v22q0 40 -12 60q-12 19 -31 19q-53 0 -53 -111v-215z" />
    <glyph glyph-name="uni2116" unicode="&#x2116;" horiz-adv-x="1053" 
d="M978 206h-307v71h307v-71zM652 564q0 38 12 70q12 31 35 54q22 23 53 36q32 12 72 12t71 -12q32 -13 54 -36q23 -23 34 -54q12 -32 12 -70v-49q0 -39 -12 -71q-11 -32 -34 -54q-22 -22 -53 -35q-32 -12 -72 -12t-71 12q-6 2 -11 5q-25 11 -43 30q-23 22 -35 54t-12 71v49
zM734 515q0 -23 6 -42q5 -19 16 -33q12 -13 28 -20q17 -8 40 -8t40 8q16 7 28 20q11 14 16 33t5 42v49q0 22 -5 41t-17 32q-11 14 -28 21q-16 7 -39 7t-40 -7q-16 -7 -28 -21q-11 -13 -16 -32q-6 -19 -6 -41v-49zM572 0h-102q-74 142 -297 567v-567h-92v728h102
q74 -142 297 -568v568h92v-728z" />
    <glyph glyph-name="trademark" unicode="&#x2122;" horiz-adv-x="640" 
d="M495 656q-17 -49 -70 -196h-26q-17 49 -70 196v-196h-45v268h56l72 -200l72 200h56v-268h-45v196zM244 688h-73v-228h-46v228h-73v40h192v-40z" />
    <glyph glyph-name="uni212e" unicode="&#x212e;" horiz-adv-x="652" 
d="M523 47q-43 -27 -89 -42t-96 -15q-36 0 -70 10q-33 10 -63 28q-29 19 -53 44q-24 26 -40 57q-17 31 -27 67q-9 36 -9 75q0 38 10 74q10 35 29 67q18 31 43 57q25 25 54 43q29 19 61 29t65 10q51 0 96 -20q46 -21 79 -57q34 -36 53 -85q19 -50 19 -109v-23h-384v-164
q28 -25 63 -40t74 -15q47 0 93 15t91 46q0 -17 1 -52zM338 504q-38 0 -73 -16t-64 -45v-139h271v144q-27 25 -61 41q-35 15 -73 15z" />
    <glyph glyph-name="uni215b" unicode="&#x215b;" horiz-adv-x="787" 
d="M720 289q0 -29 -16 -51t-44 -35q32 -14 51 -38q18 -24 18 -57q0 -28 -11 -50q-11 -21 -31 -35q-20 -15 -47 -21q-27 -7 -59 -7q-31 0 -58 7q-27 6 -47 21q-20 14 -31 35q-12 22 -12 50q0 33 19 57t51 38q-28 13 -44 35t-16 51q0 27 10 48q11 20 29 35q18 13 44 21
q25 7 55 7t56 -7q25 -8 43 -21q19 -15 29 -35q11 -21 11 -48zM651 114q0 26 -19 40q-20 15 -51 15q-32 0 -50 -15q-19 -14 -19 -40t19 -41q19 -14 50 -14q32 0 51 14q19 15 19 41zM641 285q0 23 -16 37t-44 14t-43 -14q-16 -13 -16 -37q0 -23 16 -37q15 -14 43 -14t44 14
t16 37zM228 323h-78v301q-27 -8 -108 -29v64q44 15 178 58h8v-394zM196 55q-13 8 -52 33q89 142 356 569q13 -8 52 -33q-89 -142 -356 -569z" />
    <glyph glyph-name="uni215c" unicode="&#x215c;" horiz-adv-x="876" 
d="M800 289q0 -29 -16 -51t-44 -35q32 -14 51 -38q18 -24 18 -57q0 -28 -11 -50q-11 -21 -31 -35q-20 -15 -47 -21q-27 -7 -59 -7q-31 0 -58 7q-27 6 -47 21q-20 14 -31 35q-12 22 -12 50q0 33 19 57t51 38q-28 13 -44 35t-16 51q0 27 10 48q8 15 20 27q4 4 9 8q18 13 44 21
q25 7 55 7t56 -7q25 -8 43 -21q19 -15 29 -35q11 -21 11 -48zM731 114q0 26 -19 40q-20 15 -51 15q-32 0 -50 -15q-19 -14 -19 -40t19 -41q19 -14 50 -14q32 0 51 14q19 15 19 41zM721 285q0 23 -16 37t-44 14t-43 -14q-16 -13 -16 -37q0 -23 16 -37q15 -14 43 -14t44 14
t16 37zM152 560h41q38 0 56 15t18 39q0 22 -16 37q-16 14 -51 14q-14 0 -26 -3t-21 -9t-14 -14q-5 -9 -5 -19h-78q0 25 10 45q11 20 31 35q19 15 46 22q26 8 56 8q33 0 59 -7q27 -7 46 -22q20 -14 31 -35q10 -21 10 -49q0 -27 -17 -50t-51 -35q39 -11 57 -34t18 -58
q0 -28 -12 -50q-8 -15 -21 -26q-5 -5 -11 -9q-20 -15 -48 -23t-61 -8q-28 0 -55 7t-48 21q-20 15 -33 37t-13 52h79q0 -22 20 -37q19 -16 53 -16q35 0 53 16q18 15 18 40q0 31 -21 44q-22 13 -59 13h-41v59zM292 55q-13 8 -52 33q89 142 356 569q13 -8 52 -33
q-89 -142 -356 -569z" />
    <glyph glyph-name="uni215d" unicode="&#x215d;" horiz-adv-x="872" 
d="M795 289q0 -29 -16 -51t-44 -35q32 -14 51 -38q18 -24 18 -57q0 -28 -11 -50q-11 -21 -31 -35q-20 -15 -47 -21q-27 -7 -59 -7q-31 0 -58 7q-27 6 -47 21q-20 14 -31 35q-12 22 -12 50q0 33 19 57q18 24 50 38q-28 13 -43 35q-16 22 -16 51q0 27 10 48q5 10 12 18
q7 9 17 17q19 13 44 21q25 7 55 7t56 -7q25 -8 44 -21q18 -15 28 -35q11 -21 11 -48zM726 114q0 26 -19 40q-20 15 -51 15q-32 0 -50 -15q-19 -14 -19 -40t19 -41q19 -14 50 -14q32 0 51 14q19 15 19 41zM716 285q0 23 -16 37t-44 14t-43 -14q-16 -13 -16 -37q0 -23 16 -37
q15 -14 43 -14t44 14t16 37zM60 521q6 50 25 201h239v-66h-175q-2 -21 -10 -85q9 4 27 9q19 5 42 5q64 0 100 -34t36 -95q0 -27 -9 -51q-9 -25 -27 -43q-1 -1 -2 -1q-18 -17 -44 -28q-28 -11 -66 -11q-28 0 -53 7q-26 8 -47 23q-20 14 -32 35q-13 21 -15 49h78q2 -27 21 -38
q19 -12 48 -12q19 0 32 5q12 6 20 16q9 9 13 22t4 28q0 31 -20 51q-19 19 -56 19q-13 0 -23 -2t-18 -5t-14 -7t-11 -8q-21 6 -63 16zM275 55q-13 8 -52 33q89 142 356 569q13 -8 52 -33q-89 -142 -356 -569z" />
    <glyph glyph-name="uni215e" unicode="&#x215e;" horiz-adv-x="821" 
d="M756 289q0 -29 -15 -51q-16 -22 -44 -35q32 -14 51 -38t19 -57q0 -28 -12 -50q-11 -21 -31 -35q-20 -15 -47 -21q-27 -7 -58 -7q-32 0 -59 7q-27 6 -47 21q-20 14 -31 35q-11 22 -11 50q0 33 18 57q19 24 51 38q-28 13 -44 35t-16 51q0 27 10 48q5 10 12 18q7 9 17 17
q18 13 44 21q25 7 55 7t56 -7q25 -8 43 -21q19 -15 29 -35q10 -21 10 -48zM688 114q0 26 -20 40q-19 15 -50 15t-50 -15q-19 -14 -19 -40t19 -41q19 -14 51 -14q31 0 50 14q19 15 19 41zM678 285q0 23 -16 37t-44 14q-27 0 -43 -14q-16 -13 -16 -37q0 -23 16 -37t44 -14
t43 14q16 14 16 37zM354 677q-44 -87 -174 -349h-84q44 82 175 329h-227v65h310v-45zM225 55q-13 8 -52 33q89 142 356 569q13 -8 52 -33q-89 -142 -356 -569z" />
    <glyph glyph-name="partialdiff" unicode="&#x2202;" horiz-adv-x="584" 
d="M286 511q46 0 88 -19q42 -20 70 -53q-5 54 -22 99q-17 44 -42 75q-26 31 -58 48q-33 16 -68 16q-40 0 -73 -8t-69 -21q-3 25 -8 76q13 5 29 12q15 6 34 11q18 5 42 8q23 3 53 3q69 0 120 -29q52 -30 86 -84q35 -54 52 -130q17 -77 17 -171v-29q0 -69 -17 -128
q-16 -60 -48 -104q-31 -43 -76 -69q-45 -25 -102 -25t-102 20q-44 20 -76 56q-31 35 -47 84q-16 48 -16 104v12q0 52 16 97q15 46 46 78q29 33 73 52q43 19 98 19zM295 435q-39 0 -67 -14q-28 -13 -47 -37q-17 -24 -27 -54q-9 -31 -9 -65v-12q0 -37 9 -72q10 -34 27 -60
q19 -25 47 -41q28 -15 66 -15q39 0 67 18t47 49q19 32 28 74q8 42 8 90v33q-2 13 -11 31q-9 19 -28 35q-17 17 -44 28q-28 12 -66 12z" />
    <glyph glyph-name="product" unicode="&#x220f;" horiz-adv-x="711" 
d="M627 -107h-93v759h-357v-759h-93v835h543v-835z" />
    <glyph glyph-name="summation" unicode="&#x2211;" horiz-adv-x="600" 
d="M437 288q-72 -86 -290 -347h450v-76h-562v72q76 89 304 358q-76 90 -304 361v72h524v-76h-412q72 -88 290 -351v-13z" />
    <glyph glyph-name="minus" unicode="&#x2212;" horiz-adv-x="585" 
d="M501 325h-417v76h417v-76z" />
    <glyph glyph-name="radical" unicode="&#x221a;" horiz-adv-x="611" 
d="M280 142q53 147 213 586h95q-68 -182 -271 -728h-70q-31 78 -123 314h-92v77h157q23 -62 91 -249z" />
    <glyph glyph-name="infinity" unicode="&#x221e;" horiz-adv-x="1053" 
d="M997 264q0 -55 -17 -105t-49 -87q-32 -38 -77 -60q-45 -23 -99 -23q-47 0 -84 17q-36 17 -64 43t-49 58t-35 63q-14 -31 -35 -63q-20 -32 -48 -58t-64 -43q-37 -17 -84 -17q-55 0 -100 23q-44 22 -76 60q-32 37 -50 87q-17 50 -17 105v12q0 55 17 105q18 50 50 87
q32 38 76 60q45 23 100 23q46 0 83 -17t65 -43t48 -58q21 -32 35 -63q14 31 35 63t49 58t65 43t84 17q54 0 98 -23q45 -22 77 -60q32 -37 49 -87t17 -105v-12zM141 264q0 -41 10 -77t29 -63q20 -28 48 -43q28 -16 64 -16q30 0 54 11q25 12 43 30q20 18 35 40q14 22 24 44
q11 22 17 40q6 19 8 30v21q-2 11 -8 29t-17 39q-10 23 -25 45t-34 40t-44 30q-24 11 -53 11q-37 0 -65 -16t-47 -43t-29 -63t-10 -77v-12zM905 276q0 41 -10 77t-29 63t-47 43q-27 16 -63 16q-31 0 -55 -11q-24 -12 -44 -30q-19 -18 -34 -40t-25 -45q-10 -21 -16 -39t-9 -29
v-21q3 -11 9 -30q6 -18 16 -40t25 -44t34 -40t44 -30q24 -11 54 -11q36 0 64 16q28 15 47 43q19 27 29 63t10 77v12z" />
    <glyph glyph-name="integral" unicode="&#x222b;" horiz-adv-x="262" 
d="M179 -53q0 -43 -11 -74q-12 -31 -32 -51q-21 -21 -51 -31q-29 -10 -68 -10q-14 0 -28 3t-29 8l9 72q3 -1 9 -2q5 -2 10 -2q6 -1 11 -2t9 -1q37 0 58 22q20 21 20 68v652q0 44 12 77q11 33 33 56t53 35q32 12 71 12q18 0 36 -3l36 -8q-4 -24 -12 -71q-8 3 -20 4
q-11 2 -26 2q-44 0 -67 -28q-23 -27 -23 -76v-652v0z" />
    <glyph glyph-name="approxequal" unicode="&#x2248;" horiz-adv-x="577" 
d="M51 451q24 25 57 39q32 15 65 15q20 0 35 -2q15 -3 28 -8t26 -12t29 -15l26 -13q12 -7 24 -11q12 -5 26 -8q14 -2 33 -2q32 0 63 17q30 17 54 47v-95q-24 -26 -54 -40q-31 -15 -63 -15q-19 0 -33 3q-14 2 -26 7t-24 11q-12 7 -26 14q-16 8 -29 15t-26 12t-28 8
q-15 2 -35 2q-33 0 -65 -17q-33 -17 -57 -47v95zM51 241q24 26 56 41q33 14 65 14q4 1 7 1q16 0 28 -3q15 -2 28 -7l26 -12q12 -7 28 -15q15 -8 27 -14t24 -11q12 -4 26 -7t33 -3q33 0 63 17t54 47q1 -32 1 -94q-24 -26 -55 -41q-30 -14 -63 -14q-19 0 -32 2q-14 3 -27 7
q-12 6 -23 12q-12 6 -27 14q-16 8 -29 14q-13 7 -25 12q-13 5 -28 8t-35 2q-33 0 -66 -17q-32 -17 -56 -47v94z" />
    <glyph glyph-name="notequal" unicode="&#x2260;" horiz-adv-x="562" 
d="M493 200h-265q-18 -31 -71 -122q-12 7 -48 30q14 23 54 92h-87v80h134q19 31 74 127h-208v81h256q19 32 76 131q12 -8 47 -30q-15 -25 -59 -101h97v-81h-145q-18 -32 -73 -127h218v-80z" />
    <glyph glyph-name="lessequal" unicode="&#x2264;" horiz-adv-x="520" 
d="M132 339q78 -29 313 -115v-88q-102 43 -409 171v65q102 43 409 171v-88q-78 -29 -313 -116zM448 1h-417v75h414h3v-75z" />
    <glyph glyph-name="greaterequal" unicode="&#x2265;" horiz-adv-x="536" 
d="M397 350q-82 29 -330 117v85q107 -42 427 -170v-66q-29 -12 -117 -47q-78 -31 -310 -124v87q83 30 330 118zM484 0h-417v76v0h417v-76z" />
    <glyph glyph-name="lozenge" unicode="&#x25ca;" horiz-adv-x="516" 
d="M222 728h70q51 -91 202 -364l-200 -364h-70q-51 91 -203 364q51 91 201 364zM256 627q-34 -66 -139 -263q35 -66 142 -264l140 264q-36 65 -143 263z" />
    <glyph glyph-name="uniee01" unicode="&#xee01;" horiz-adv-x="294" 
d="M111 159q0 28 20 48t48 20t47 -20q20 -20 20 -48q0 -27 -20 -47q-19 -20 -47 -20q-25 0 -43 15q-13 11 -20 26q-5 12 -5 26zM111 600q0 28 20 48t48 20t47 -20q20 -20 20 -48t-20 -48q-19 -20 -47 -20q-25 0 -43 16q-13 11 -20 27q-5 11 -5 25z" />
    <glyph glyph-name="uniee02" unicode="&#xee02;" horiz-adv-x="328" 
d="M125 316h-70v225h70v-225zM281 316h-70v225h70v-225z" />
    <glyph glyph-name="unif6c3" unicode="&#xf6c3;" horiz-adv-x="257" 
d="M172 80q0 -20 -5 -42q-4 -22 -14 -43q-9 -22 -22 -41q-14 -19 -32 -34q-18 12 -53 36q19 28 28 58t9 65v41h89v-40z" />
    <glyph glyph-name="fi" unicode="&#xfb01;" horiz-adv-x="567" 
d="M101 0v469h-85v72h85v47q0 46 14 81q13 36 39 60t62 37q37 13 83 13q37 0 71 -9t70 -22l-15 -78q-22 9 -53 17q-30 8 -66 8q-59 0 -86 -27q-26 -27 -26 -80v-47h110v-72h-110v-469h-93zM487 0h-94v541h94v-541z" />
    <glyph glyph-name="fl" unicode="&#xfb02;" horiz-adv-x="604" 
d="M116 0v469h-86v72h86v57t12 77t35 57t56 35t74 12q32 0 64 -9q-2 -25 -5 -75q-11 2 -24 3q-13 2 -26 2q-45 0 -70 -27q-24 -26 -24 -75v-57h116v-72h-116v-469h-92zM526 0h-93v768h93v-768z" />
    <glyph glyph-name="unifb03" unicode="&#xfb03;" horiz-adv-x="923" 
d="M116 0v469h-86v72h86v57t12 77t35 57t56 35t74 12q32 0 64 -9q-2 -25 -5 -75q-11 2 -24 3q-13 2 -26 2q-45 0 -70 -27q-24 -26 -24 -75v-57h116v-72h-116v-469h-92zM456 0v469h-85v72h85v47q0 46 14 81q14 36 39 60q26 24 63 37q36 13 83 13q36 0 70 -9q35 -9 71 -22
q-5 -26 -16 -78q-22 9 -52 17q-31 8 -67 8q-59 0 -85 -27q-27 -27 -27 -80v-47h111v-72h-111v-469h-93zM842 0h-93v541h93v-541z" />
    <glyph glyph-name="unifb04" unicode="&#xfb04;" horiz-adv-x="960" 
d="M116 0v469h-86v72h86v57t12 77t35 57t56 35t74 12q32 0 64 -9q-2 -25 -5 -75q-11 2 -24 3q-13 2 -26 2q-45 0 -70 -27q-24 -26 -24 -75v-57h116v-72h-116v-469h-92zM471 0v469h-86v72h86v57t12 77q13 34 36 57q22 23 55 35q34 12 75 12q32 0 63 -9q-1 -25 -4 -75
q-11 2 -24 3q-13 2 -27 2q-45 0 -69 -27q-24 -26 -24 -75v-57h115v-72h-115v-469h-93zM881 0h-92v768h92v-768z" />
    <glyph glyph-name="unife73" unicode="&#xfe73;" horiz-adv-x="336" 
d="M150 213q0 -121 159 -121h35v-91h-40q-249 0 -249 214v12h95v-14z" />
    <glyph glyph-name="unifeff" unicode="&#xfeff;" 
 />
    <glyph glyph-name="unifffc" unicode="&#xfffc;" horiz-adv-x="1049" 
d="M412 234q0 -25 -8 -45t-24 -34q-15 -15 -36 -23q-20 -8 -46 -8t-47 8q-22 8 -37 23q-15 14 -23 34q-9 20 -9 45v56q0 24 9 44q8 21 23 35q15 15 36 23q22 8 47 8q26 0 47 -8t36 -23q16 -14 24 -35q8 -20 8 -44v-56zM446 126v274h94q49 0 78 -18q28 -18 28 -57
q0 -18 -10 -34q-11 -15 -32 -23q25 -7 38 -25q13 -17 13 -39q0 -39 -26 -58q-26 -20 -73 -20h-110zM367 290q0 34 -19 54t-51 20t-51 -20q-18 -20 -18 -54v-56q0 -34 18 -54q19 -20 52 -20q32 0 50 20q19 20 19 54v56zM844 401h45v-189q0 -20 -7 -35q-6 -16 -19 -27
q-12 -11 -30 -17q-17 -6 -37 -6q-44 0 -71 20q-28 21 -28 62h47q0 -24 14 -35q14 -10 38 -10q20 0 34 13q14 14 14 35v189zM45 -199v158h57v-102h98v-56h-155zM860 -199v56h100v102h55v-158h-155zM45 584v143h155v-58h-98v-85h-57zM860 669v58h155v-143h-55v85h-100z
M493 248v-84h63q27 0 39 10q13 11 13 31q0 19 -12 31q-12 11 -37 12h-3h-63zM660 669v58h140v-58h-140zM461 669v58h139v-58h-139zM261 669v58h139v-58h-139zM660 -199v56h140v-56h-140zM461 -199v56h139v-56h-139zM261 -199v56h139v-56h-139zM493 283h47q59 0 59 40
q0 21 -15 28q-14 8 -44 8h-47v-76zM102 208h-57v126h57v-126zM102 397h-57v125h57v-125zM102 20h-57v125h57v-125zM1015 208h-55v126h55v-126zM1015 397h-55v125h55v-125zM1015 20h-55v125h55v-125z" />
    <glyph glyph-name="unifffd" unicode="&#xfffd;" horiz-adv-x="1051" 
d="M524 809l480 -488q-120 -121 -480 -487q-119 122 -478 487q120 122 478 488zM565 201q0 12 2 22q1 10 5 18q4 9 10 16t17 14q17 9 31 22q15 13 26 28q12 16 19 35q6 19 6 39q0 32 -10 58q-11 26 -31 43q-20 19 -50 29t-66 10q-32 0 -60 -8q-28 -7 -48 -24
q-21 -16 -33 -41q-12 -26 -12 -61h101q0 14 5 24q4 10 11 15q8 7 16 10q9 3 20 3q28 0 42 -16t14 -42t-13 -45q-14 -19 -34 -33q-17 -12 -30 -23q-13 -10 -22 -23q-8 -13 -12 -30q-5 -16 -5 -40h101zM565 156h-101v-85h101v85zM528 -276h2v-1h-2v1zM527 1081h2v-1h-2v1z" />
    <glyph glyph-name=".notdef_2" horiz-adv-x="543" 
d="M51 102h307v524h-307v-524zM0 677h410v-626h-410v626z" />
  </font>
</defs>
</svg>
