<?xml version="1.0" encoding="UTF-8" standalone="no"?>
<!-- Created with Inkscape (http://www.inkscape.org/) -->

<svg
   xmlns="http://www.w3.org/2000/svg"
   width="110mm"
   height="97mm"
   viewBox="0 0 210 297"
   class="double-blinking"
   id="">
  <defs
     id="defs2" />
  <metadata
     id="metadata5">
  </metadata>

  <style
    type="text/css"
    id="style28">

    .svg{
      animation: fade-in 3s ease;
    }

    @keyframes fade-in{
      0%{
        opacity: 0;
      }
      100%{
        opacity: 1;
      }
    }

    .walking #owl{
      animation: walk 1s linear backwards;
    }

    .walking #right-leg{
      offset-path: path('M0,0 L20,0 0,0');
      animation: move .1s linear alternate 10;
    }
    .walking #left-leg {
      offset-path: path('M0,0 L20,0 0,0');
      animation: move .1s .1s linear alternate 10;
    }

    @keyframes move {
      from{
        offset-distance: 0;
      }
      to {
        offset-distance: 50%;
      }
    }

    .double-blinking #left-full-eyelid {
      opacity: 0;
      animation: blink 7s ease infinite;
    }
    .double-blinking #right-full-eyelid {
      opacity: 0;
      animation: blink 7s 2s ease infinite;
    }

    .single-blinking #left-full-eyelid {
      animation: blink 7s ease infinite;
    }
    .single-blinking #right-full-eyelid {
      display: none;
    }

    #right-ear{
      transform-origin: center center;
      animation: itch 12s ease infinite;
    }

    @keyframes blink {
      0%{ opacity: 0; }
      10%{ opacity: 0; }
      11%{ opacity: 1; }
      15%{ opacity: 1; }
      16%{ opacity: 0; }
      30%{ opacity: 0; }
      31% {opacity: 1;}
      35% {opacity: 1;}
      36% {opacity: 0;}
      100%{ opacity: 0; }
    }
    @keyframes walk {
      from {
        transform: translateX(-100%);
      }
      to {
        transform: translateX(0);
      }
    }

    @keyframes walk-leg {
      0% {
        transform: translate3d(0, 0, 0);
      }
      50% {
        transform: translate3d(0, -10px, 0);
      }
      100% {
        transform: translate3d(0, 0, 0);
      }
    }
    @keyframes itch {
      0% {-webkit-transform: rotate(0deg);transform:rotate(0deg);}
      40% {-webkit-transform: rotate(0deg);transform:rotate(0deg);}
      41% {-webkit-transform: rotate(-1deg);transform:rotate(-1deg);}
      42% {-webkit-transform: rotate(0deg);transform:rotate(0deg);}
      43% {-webkit-transform: rotate(-1deg);transform:rotate(-1deg);}
      44% {-webkit-transform: rotate(0deg);transform:rotate(0deg);}
      100% {-webkit-transform: rotate(0deg);transform:rotate(0deg);}
    }

  </style>


  <g id="owl">
    <path
      style="fill:#674200;fill-opacity:1;stroke:none;stroke-width:0.26458332px;stroke-linecap:butt;stroke-linejoin:miter;stroke-opacity:1"
      d="m 143.25297,31.282737 c 19.52877,12.347222 48.50694,9.575398 60.09821,10e-7 0,0 -1.29111,10.869912 -10.96131,25.70238 -11.01081,16.888734 -19.65475,7.181547 -19.65475,7.181547 z"
      id="right-ear" />
    <path
      style="fill:#674200;fill-opacity:1;stroke:none;stroke-width:0.26458332px;stroke-linecap:butt;stroke-linejoin:miter;stroke-opacity:1"
      d="m 70.568152,29.403265 c -19.52877,12.347222 -48.506941,9.575398 -60.09821,10e-7 0,0 1.291109,10.869912 10.961309,25.70238 11.01081,16.888733 19.654751,7.181546 19.654751,7.181546 z"
      id="left-ear" />
    <path
      style="fill:#e18f35;fill-opacity:1;stroke:none;stroke-width:2.82404017;stroke-miterlimit:4;stroke-dasharray:none;stroke-opacity:1"
      id="top-body"
      d="M -0.75374603,-213.82623 A 104.02676,193.81102 0 0 1 -53.103657,-45.620531 104.02676,193.81102 0 0 1 -157.46477,-46.708842 104.02676,193.81102 0 0 1 -208.80074,-215.99581"
      transform="matrix(-0.99991358,0.01314626,-0.0094627,-0.99995523,0,0)" />
    <path
      style="fill:#e18f35;fill-opacity:1;stroke:none;stroke-width:2.17025971;stroke-miterlimit:4;stroke-dasharray:none;stroke-opacity:1"
      id="bottom-body"
      d="m -209.29438,-213.46498 a 104.10773,44.97929 0 0 1 104.10773,-44.97929 104.10773,44.97929 0 0 1 104.1077239,44.97929 H -105.18665 Z"
      transform="matrix(-0.9999763,0.00688462,-0.00760877,-0.99997105,0,0)" />
    <path
      style="display:inline;fill:#ffcc00;fill-opacity:1;stroke:none;stroke-width:2.83378673;stroke-miterlimit:4;stroke-dasharray:none;stroke-opacity:1"
      id="top-belly"
      d="m 34.745041,242.23663 a 73.23185,101.50218 0 0 1 73.231849,-101.50218 73.23185,101.50218 0 0 1 73.23185,101.50218 l -73.23185,0 z" />
    <path
      style="display:inline;fill:#ffcc00;fill-opacity:1;stroke:none;stroke-width:1.31330276;stroke-miterlimit:4;stroke-dasharray:none;stroke-opacity:1"
      id="bottom-belly"
      d="m -200.73138,-241.09068 a 73.223938,21.80307 0 0 1 73.22394,-21.80307 73.223938,21.80307 0 0 1 73.223939,21.80307 h -73.223939 z"
      transform="matrix(-0.99999622,-0.00275094,0.08100722,-0.99671351,0,0)" />
    <rect
      style="fill:#6c5353;fill-opacity:1;stroke:none;stroke-width:0;stroke-miterlimit:4;stroke-dasharray:none;stroke-opacity:1;paint-order:markers fill stroke"
      id="left-leg"
      width="40.353695"
      height="44.617088"
      x="87.572639"
      y="215.35181"
      ry="17.017534"
      transform="rotate(11.104717)" />
    <rect
      style="fill:#6c5353;fill-opacity:1;stroke:none;stroke-width:0;stroke-miterlimit:4;stroke-dasharray:none;stroke-opacity:1;paint-order:markers fill stroke"
      id="right-leg"
      width="40.353695"
      height="44.617088"
      x="93.301643"
      y="251.29562"
      ry="17.017534"
      transform="rotate(-8.5462553)" />
    <ellipse
      style="display:inline;fill:#ffffff;fill-opacity:1;stroke:none;stroke-width:0;stroke-miterlimit:4;stroke-dasharray:none;stroke-opacity:1;paint-order:markers fill stroke"
      id="right-eyeball"
      cx="147.41072"
      cy="93.119644"
      rx="35.529762"
      ry="35.907738" />
    <ellipse
      style="display:inline;fill:#ffffff;fill-opacity:1;stroke:none;stroke-width:0;stroke-miterlimit:4;stroke-dasharray:none;stroke-opacity:1;paint-order:markers fill stroke"
      id="left-eyeball"
      cx="67.884529"
      cy="92.590477"
      rx="35.529762"
      ry="35.907738" />
    <path
      style="fill:#6c5353;fill-opacity:1;stroke:none;stroke-width:0.26850823px;stroke-linecap:butt;stroke-linejoin:miter;stroke-opacity:1"
      d="m 94.556776,118.12572 12.992934,-4.44122 12.45408,4.53416 -13.06481,19.27246 z"
      id="beak" />
    <ellipse
      style="fill:#000000;fill-opacity:1;stroke:none;stroke-width:0;stroke-miterlimit:4;stroke-dasharray:none;stroke-opacity:1;paint-order:markers fill stroke"
      id="right-pupil"
      cx="148.92261"
      cy="96.597023"
      rx="8.8824406"
      ry="10.394345" />
    <ellipse
      style="fill:#000000;fill-opacity:1;stroke:none;stroke-width:0;stroke-miterlimit:4;stroke-dasharray:none;stroke-opacity:1;paint-order:markers fill stroke"
      id="left-pupil"
      cx="67.657738"
      cy="96.597023"
      rx="8.8824406"
      ry="10.394345" />
    <path
      style="fill:#674200;fill-opacity:1;stroke:none;stroke-width:0;stroke-miterlimit:4;stroke-dasharray:none;stroke-opacity:1;paint-order:markers fill stroke"
      id="right-half-eyelid"
      d="m -109.40827,-96.473656 a 36.474957,38.344967 0 0 1 -18.51055,33.371809 36.474957,38.344967 0 0 1 -36.74393,-0.499675 36.474957,38.344967 0 0 1 -17.68323,-33.864001"
      transform="matrix(-0.99990815,0.01355317,-0.01251879,-0.99992164,0,0)" />
    <path
      style="fill:#674200;fill-opacity:1;stroke:none;stroke-width:0;stroke-miterlimit:4;stroke-dasharray:none;stroke-opacity:1;paint-order:markers fill stroke"
      id="left-half-eyelid"
      d="m -30.138042,-96.020416 a 36.474957,38.344967 0 0 1 -18.510548,33.371808 36.474957,38.344967 0 0 1 -36.743937,-0.499674 36.474957,38.344967 0 0 1 -17.683223,-33.864002"
      transform="matrix(-0.99990815,0.01355317,-0.01251879,-0.99992164,0,0)" />
    <path
      class="full-eyelid"
      style="fill:#674200;fill-opacity:1;stroke:none;stroke-width:0;stroke-miterlimit:4;stroke-dasharray:none;stroke-opacity:1;paint-order:markers fill stroke"
      id="right-full-eyelid"
      d="m -109.07708,-95.160248 a 36.474571,36.077488 0 0 1 -35.86146,36.072391 36.474571,36.077488 0 0 1 -37.06707,-34.859683 36.474571,36.077488 0 0 1 34.61531,-37.24433 36.474571,36.077488 0 0 1 38.2308,33.607578"
      transform="matrix(-0.99991869,0.01275173,-0.0133056,-0.99991148,0,0)" />
    <path
      style="fill:#674200;fill-opacity:1;stroke:none;stroke-width:0;stroke-miterlimit:4;stroke-dasharray:none;stroke-opacity:1;paint-order:markers fill stroke"
      id="left-full-eyelid"
      class="full-eyelid"
      d="m -30.317131,-93.904022 a 36.474571,36.077488 0 0 1 -35.861457,36.07239 36.474571,36.077488 0 0 1 -37.067072,-34.859683 36.474571,36.077488 0 0 1 34.615308,-37.244325 36.474571,36.077488 0 0 1 38.230796,33.607573"
      transform="matrix(-0.99991869,0.01275173,-0.0133056,-0.99991148,0,0)" />
  </g>
</svg>
